<?xml version="1.0" encoding="UTF-8"?>
<svg id="Layer_1" data-name="Layer 1" xmlns="http://www.w3.org/2000/svg" viewBox="0 0 933.34 595.72">
  <defs>
    <style>
      .cls-1 {
        fill-rule: evenodd;
      }

      .cls-1, .cls-2 {
        fill: #dbdce2;
      }

      .cls-3 {
        fill: #fff;
      }

      .cls-4 {
        fill: #08877b;
        stroke: #85919d;
        stroke-miterlimit: 10;
      }
    </style>
  </defs>
  <g>
    <path id="WY" class="cls-2" d="M348.97,143.59l-11.76-1.01-32.77-3.43-16.58-2.14-28.95-4.28-20.31-3.09-1.45,11.62-3.92,25.22-5.37,31.61-1.56,10.93-1.71,12.36,6.66.97,17.25,2.38,9.02,1.22,21.01,2.57,38.06,4.28,24.98,2.14,4.44-46.11,1.63-26.38,1.33-18.86h0Z"/>
    <path id="CO" class="cls-2" d="M369.82,329.56l4.2-68.46,1.63-23.29-34.09-2.85-24.98-2.14-38.06-4.28-21.13-2.61-2.69,23.06-3.27,23.29-3.83,29.1-1.54,11.55-.58,4.04,35.14,4.28,37.72,4.6,33.46,2.29,6.8.71,11.67.59"/>
    <path id="NM" class="cls-2" d="M276.09,442.27l-.83-5.03,8.17.71,29.65,2.85,29.65,1.66,2.33-24.72,3.97-57.76,1.63-19.49,1.4.03v-12.18s-33.72-2.5-33.72-2.5l-37.72-4.6-35.2-4.28-4.29,31.98-7.11,55.31-3.83,27.99-2.09,13.84,15.79,2.07,1.32-10.42,17.01,2.69,13.87,1.85h0Z"/>
    <polyline id="TX" class="cls-2" points="350.85 340.55 374.02 341.68 405.78 342.87 404.38 367.59 403.91 386.13 404.14 387.79 408.58 391.6 410.68 392.78 411.38 392.55 412.08 390.41 413.48 392.31 415.58 392.31 415.58 390.88 418.38 392.31 417.92 396.35 422.12 396.59 424.69 397.78 428.89 398.49 431.46 400.39 433.79 398.25 437.3 398.96 439.86 402.53 440.8 402.53 440.8 404.91 443.13 405.62 445.47 403.24 447.34 403.96 449.9 403.96 450.84 406.57 455.74 408.47 457.14 407.76 459.01 403.48 460.18 403.48 461.35 405.62 465.55 406.33 469.28 407.76 472.32 408.71 474.19 407.76 474.89 405.14 479.32 405.14 481.43 406.1 484.23 403.96 485.39 403.96 486.09 405.62 490.3 405.62 491.93 403.48 493.8 403.96 495.9 406.57 499.17 408.47 502.44 409.42 505.24 410.73 507.58 412.75 510.61 411.32 513.41 412.51 514.1 424.06 514.11 434.14 514.81 443.89 515.51 447.93 518.08 452.21 519.02 457.44 523.45 463.14 523.69 466.47 524.39 467.18 523.69 475.98 520.65 481.21 522.28 483.35 521.58 485.96 520.88 493.57 519.48 496.9 519.77 500.62 513.17 502.44 503.1 507.14 502.11 509.16 499.46 511.18 497.32 512.69 496 513.53 490.22 519.08 487.41 521.26 481.96 524.62 476.19 527.14 469.75 530.67 467.93 532.19 461.99 535.88 458.52 536.56 454.56 542.27 450.43 542.61 449.44 544.63 451.75 546.64 450.27 552.36 448.94 557.06 447.79 561.1 446.96 565.8 447.79 568.32 449.6 575.55 450.6 581.94 452.41 584.8 451.42 586.31 448.28 588.33 442.51 584.29 436.89 583.11 435.57 583.62 432.27 582.95 427.98 579.75 422.69 578.58 414.93 575.05 412.79 571.01 411.47 564.29 408.16 562.27 407.5 559.92 408.16 559.25 408.5 555.72 407.17 555.05 406.51 554.04 407.83 549.5 406.18 547.15 402.88 545.8 399.41 541.26 395.78 534.37 391.49 531.68 391.66 529.67 386.21 516.89 385.38 512.52 383.57 510.51 383.4 508.99 377.29 503.45 374.65 500.25 374.65 499.08 372.01 496.89 365.07 495.71 357.48 495.04 354.34 492.69 349.72 494.54 346.09 496.05 343.78 499.41 342.79 503.28 338.33 509.66 335.85 512.19 333.21 511.18 331.39 510 329.41 509.33 325.45 506.98 325.45 506.3 323.63 504.29 318.35 502.1 310.76 494.03 308.45 489.16 308.45 480.76 305.14 474.03 304.65 471.17 303 470.17 301.84 467.98 296.72 465.8 295.4 464.12 288.14 455.88 286.82 452.52 282.03 450.17 280.54 445.63 277.9 442.6 275.92 442.1 275.26 437.23 283.43 437.95 313.08 440.8 342.73 442.46 345.07 417.74 349.04 359.98 350.67 340.49 352.07 340.52"/>
    <path id="AR" class="cls-2" d="M590.76,352.59l-4.97.97-6.3-.48.7-3.09,3.27-2.85.47-2.38-1.87-3.09-11.21.48-21.25.95-23.82.71-23.82.48,1.63,7.13v8.56l1.4,11.41.23,39.34,2.33,2.02,3.04-1.43,2.8,1.19.67,11.68,22.68-.03,19.61-.95,11.03.15,1.52-2.76-.41-4.52-1.4-3.09,1.4-1.43-1.4-2.14.47-1.9.93-6.42,3.04-2.85-.7-2.14,3.74-5.47,2.8-.95v-2.61l-.7-1.43,2.8-5.47,2.8-1.19-.3-3.8,2.5-1.17.99-4.87-1.49-3.7,4.13-2.35.33-2.69,1.38-4.55.93-3.27h0Z"/>
    <path id="OK" class="cls-2" d="M369.53,329.32l-10.92-.48-6.57-.51.26.21-.55,12,22.27,1.13,31.75,1.19-1.4,24.72-.47,18.54.23,1.66,4.44,3.8,2.1,1.19.7-.24.7-2.14,1.4,1.9h2.1v-1.43l2.8,1.43-.47,4.04,4.2.24,2.57,1.19,4.2.71,2.57,1.9,2.33-2.14,3.5.71,2.57,3.57h.93v2.38l2.33.71,2.33-2.38,1.87.71h2.57l.93,2.61,4.9,1.9,1.4-.71,1.87-4.28h1.17l1.17,2.14,4.2.71,3.74,1.43,3.04.95,1.87-.95.7-2.61h4.44l2.1.95,2.8-2.14h1.17l.7,1.66h4.2l1.63-2.14,1.87.48,2.1,2.61,3.27,1.9,3.27.95,2.8,1.66-.23-39.7-1.4-11.41v-8.56l-1.63-7.13-.47-7.13-.23-4.64-13.54.83-47.4-.48-46-2.14-24.81-1.43h0Z"/>
    <path id="KS" class="cls-2" d="M501.27,332.65l-13.54.71-47.4-.48-46-2.14-24.66-1.31,4.23-68.46,22.3.83,41.33,1.43,45.06.48h6.19l3.15,2.85,2.33.24,1.4.95v3.09l-1.87,1.66-.47,2.38,2.1,3.57,2.57,3.09,2.57,1.9,1.4,12.12-.7,37.08h0Z"/>
    <path id="LA" class="cls-2" d="M602.49,485.71l-1.28-2.37-1.17-4.04-3.5-3.33,1.17-7.84-.7-.95-1.87.24-8.41.71-24.75.71-.47-1.66.7-8.32,3.5-6.42,5.37-9.51-.93-2.14h1.17l.7-3.33-2.33-1.9.23-1.9-2.1-4.75-.35-5.7h-11.09l-19.61.95-22.68.03.03,9.95.7,9.75.7,4.04,2.57,4.28.93,5.23,4.44,5.7.23,3.33.7.71-.7,8.79-3.04,5.23,1.63,2.14-.7,2.61-.7,7.61-1.4,3.33.13,3.76,4.79-1.58,8.25-.34,10.57,3.7,6.6,1.18,3.8-1.51,3.3,1.18,3.3,1.01.83-2.18-3.3-1.18-2.64.5-2.81-1.68s.17-1.34.83-1.51c.66-.17,3.14-1.01,3.14-1.01l1.82,1.51,1.82-1.01,3.3.67,1.49,2.52.33,2.35,4.62.34,1.82,1.85-.83,1.68-1.32.84,1.65,1.68,8.59,3.7,3.63-1.34.99-2.52,2.64-.67,1.82-1.51,1.32,1.01.83,3.03-2.31.84.66.67,3.47-1.34,2.31-3.53.83-.5-2.15-.34.83-1.68-.17-1.51,2.15-.5,1.16-1.34.66.84s-.17,3.19.66,3.19,4.29.67,4.29.67l4.13,2.02.99,1.51h2.97l1.16,1.01,2.31-3.19v-1.51h-1.32l-3.47-2.86-5.94-.84-3.3-2.35,1.16-2.86,2.31.34.17-.67-1.82-1.01v-.5h3.3l1.82-3.19-1.32-2.02-.33-2.86-1.49.17-1.98,2.18-.66,2.69-3.14-.67-.99-1.85,1.82-2.02,2.06-1.85.91-.76h0Z"/>
    <path id="FL" class="cls-2" d="M757.84,456.22l2.13,8.53,3.81,10.13,5.45,9.75,3.8,6.56,4.95,5.71,4.13,3.87,1.65,3.03-1.16,1.34-.83,1.34,2.97,7.73,2.97,3.03,2.64,5.55,3.63,6.05,4.62,8.57,1.32,7.9.5,12.44.66,1.85-.33,3.53-2.48,1.34.33,2.02-.66,2.02.33,2.52.5,2.02-2.81,3.36-3.14,1.51-3.96.17-1.49,1.68-2.48,1.01-1.32-.5-1.16-1.01-.33-3.03-.83-3.53-3.47-5.38-3.63-2.35-3.96-.34-.83,1.34-3.14-4.54-.66-3.7-2.64-4.2-1.82-1.18-1.65,2.18-1.82-.34-2.15-5.21-2.97-4.03-2.97-5.55-2.64-3.19-3.63-3.87,2.15-2.52,3.3-5.71-.17-1.68-4.62-1.01-1.65.67.33.67,2.64,1.01-1.49,4.71-.83.5-1.82-4.2-1.32-5.04-.33-2.86,1.49-4.87v-9.92l-3.14-3.87-1.32-3.19-5.28-1.34-1.98-.67-1.65-2.69-3.47-1.68-1.16-3.53-2.81-1.01-2.48-3.87-4.29-1.51-2.97-1.51h-2.64l-4.13.84-.17,2.02.83,1.01-.5,1.18-3.14-.17-3.8,3.7-3.63,2.02h-3.96l-3.3,1.34-.33-2.86-1.65-2.02-2.97-1.18-1.65-1.51-8.25-4.03-7.76-1.85-4.46.67-6.11.5-6.11,2.19-3.55.64-.24-8.37-2.64-2.02-1.82-1.85.33-3.19,10.4-1.34,26.09-3.03,6.93-.67,6.27-.17,2.64,4.03,1.49,1.51,8.09.17,11.05-.67,21.97-1.34,5.56-.7,4.67.03.17,3.03,2.64.84.33-4.54-1.65-4.71,1.16-1.68,5.94.84,5.28.34h0ZM770.48,594.8l2.48-.67,1.32-.25,1.49-2.44,2.39-1.68,1.32.5,1.73.34.41,1.09-3.55,1.26-4.29,1.51-2.39,1.26-.91-.92ZM784.26,589.59l1.24,1.09,2.81-2.19,5.45-4.37,3.8-4.03,2.56-6.89.99-1.76.17-3.53-.74.5-.99,2.94-1.49,4.79-3.3,5.46-4.46,4.37-3.47,2.02-2.56,1.6h0Z"/>
    <path id="GA" class="cls-2" d="M690.48,366.13l-4.95.84-8.59,1.18-8.75.92v2.27l.17,2.19.66,3.53,3.47,8.24,2.48,10.25,1.49,6.39,1.65,5.04,1.49,7.23,2.15,6.56,2.64,3.53.5,3.53,1.98.84.17,2.19-1.82,5.04-.5,3.36-.17,2.02,1.65,4.54.33,5.55-.83,2.52.66.84,1.49.84.66,3.53,2.64,4.03,1.49,1.51,8.09.17,11.05-.67,21.97-1.34,5.56-.7,4.67.03.17,3.03,2.64.84.33-4.54-1.65-4.71,1.16-1.68,5.94.84,5.08.33-.79-6.55,2.31-10.42,1.49-4.37-.5-2.69,4.13-7.23-.61-1.68-1.86,1.01-2.64-1.34-.66-2.19-1.32-3.7-2.31-2.19-2.64-.67-1.65-5.04-2.81-6.22-4.29-2.02-2.15-2.02-1.32-2.69-2.15-2.02-2.31-1.34-2.31-3.03-3.14-2.35-4.62-1.85-.5-1.51-2.48-3.03-.5-1.51-3.47-5.38-3.47.17-4.13-2.52-1.32-1.34-.33-1.85.83-2.02,2.31-1.01-.17-2.37-1.82.52-5.94,1.01-7.1.84-6.93.5h0Z"/>
    <path id="AL" class="cls-2" d="M625.1,479.24l-1.65-15.8-2.81-19.5.17-14.62.83-32.27-.17-17.31.17-6.67,7.92-.39,28.4-2.69,10.39-.92-.15,2.27.17,2.19.66,3.53,3.47,8.24,2.48,10.25,1.49,6.39,1.65,5.04,1.49,7.23,2.15,6.56,2.64,3.53.5,3.53,1.98.84.17,2.19-1.82,5.04-.5,3.36-.17,2.02,1.65,4.54.33,5.55-.83,2.52.66.84,1.49.84.83,3.7h-6.44l-6.93.67-26.09,3.03-10.4,1.34-.33,3.19,1.82,1.85,2.64,2.02.59,8.25-6.7,2.68-2.81-.34,2.81-2.02v-1.01l-3.14-6.22-2.31-.67-1.49,4.54-1.32,2.86-.66-.17h-2.81Z"/>
    <path id="NC" class="cls-2" d="M836,304.26l1.75,4.89,3.63,6.72,2.48,2.52.66,2.35-2.48.17.83.67-.33,4.37-2.64,1.34-.66,2.19-1.32,3.03-3.8,1.68-2.48-.34-1.49-.17-1.65-1.34.33,1.34v1.01h1.98l.83,1.34-1.98,6.56h4.29l.66,1.68,2.31-2.35,1.32-.5-1.98,3.7-3.14,5.04h-1.32l-1.16-.5-2.81.67-5.28,2.52-6.6,5.55-3.47,4.87-1.98,6.72-.5,2.52-4.79.5-6.02,2.31-10.16-8.53-12.88-7.9-2.97-.84-12.88,1.51-4.46.5-1.65-3.36-2.31-2.02-16.84.5-7.43.84-9.25,4.71-6.27,2.69-1.65.34-5.94,1.01-7.1.84-6.93.5.33-5.04,1.82-1.51,2.81-.67.66-3.87,4.29-2.86,3.96-1.51,4.29-3.7,4.46-2.19.66-3.19,3.96-4.03.66-.17s0,1.18.83,1.18,1.98.34,1.98.34l2.31-3.7,2.15-.67,2.31.34,1.65-3.7,2.97-2.69.5-2.18v-4.12l4.62.76,7.29-1.34,16.16-2.02,17.5-2.69,21.04-3.92,19.57-3.98,11.72-3.03,5.02-1.69h0ZM839.98,338.56l2.64-2.61,3.22-2.69,1.57-.67.17-2.1-.66-6.39-1.49-2.44-.66-1.93.74-.25,2.81,5.71.41,4.62-.17,3.53-3.47,1.6-2.89,2.52-1.16,1.26-1.07-.17h0Z"/>
    <path id="MS" class="cls-2" d="M624.97,479.45l-1.19,1.31h-5.28l-1.49-.84-2.15-.34-6.93,2.02-1.82-.84-2.64,4.37-1.13.81-1.15-2.59-1.17-4.04-3.5-3.33,1.17-7.84-.7-.95-1.87.24-8.41.71-24.75.71-.47-1.66.7-8.32,3.5-6.42,5.37-9.51-.93-2.14h1.17l.7-3.33-2.33-1.9.23-1.9-2.1-4.75-.29-5.56,1.4-2.76-.41-4.52-1.4-3.09,1.4-1.43-1.4-2.14.47-1.9.93-6.42,3.04-2.85-.7-2.14,3.74-5.47,2.8-.95v-2.61l-.7-1.43,2.8-5.47,2.8-1.19.11-3.55,8.86-.08,24.6-2.02,5.61-.24v6.62s.17,17.31.17,17.31l-.83,32.27-.17,14.62,2.81,19.5,1.52,16.01h0Z"/>
    <path id="SC" class="cls-2" d="M763.62,423.27l-1.81,1.01-2.64-1.34-.66-2.19-1.32-3.7-2.31-2.19-2.64-.67-1.65-5.04-2.81-6.22-4.29-2.02-2.15-2.02-1.32-2.69-2.15-2.02-2.31-1.34-2.31-3.03-3.14-2.35-4.62-1.85-.5-1.51-2.48-3.03-.5-1.51-3.47-5.38-3.47.17-4.13-2.52-1.32-1.34-.33-1.85.83-2.02,2.31-1.01-.33-2.18,6.27-2.69,9.25-4.71,7.43-.84,16.84-.5,2.31,2.02,1.65,3.36,4.46-.5,12.88-1.51,2.97.84,12.88,7.9,10.32,8.44-5.54,5.68-2.64,6.39-.5,6.56-1.65.84-1.16,2.86-2.48.67-2.15,3.7-2.81,2.86-2.31,3.53-1.65.84-3.63,3.53-2.97.17.99,3.36-5.12,5.71-2.15,1.34h0Z"/>
    <path id="NY" class="cls-2" d="M831.97,191.83l-1.16-1.01-2.64-.17-2.31-2.02-2.48-5.55-3.07-.97-2.38-2.23-18.99,4.2-43.92,9.08-9.08,1.51-.75-7.2,2.73-1.88,1.32-1.18.99-1.68,1.82-1.18,1.98-1.85.5-1.68,2.15-2.86,1.16-1.01-.17-1.01-1.32-3.19-1.82-.17-1.98-6.39,2.97-1.85,4.46-1.51,4.13-1.34,3.3-.5,6.44-.17,1.98,1.34,1.65.17,2.15-1.34,2.64-1.18,5.28-.5,2.15-1.85,1.82-3.36,1.65-2.02h2.15l1.98-1.18.17-2.35-1.49-2.19-.33-1.51,1.16-2.19v-1.51h-1.82l-1.82-.84-.83-1.18-.17-2.69,5.94-5.71.66-.84,1.49-3.03,2.97-4.71,2.81-3.87,2.15-2.52,2.47-1.9,3.15-1.3,5.61-1.34,3.3.17,4.62-1.51,7.73-2.15.53,5.18,2.48,6.72.83,5.38-.99,4.03,2.64,4.71.83,2.19-.83,3.03,2.97,1.34.66.34,3.14,11.43.5,5.38-.5,11.26.83,5.71.83,3.7,1.49,7.56v8.4l-1.16,2.35,1.88,2.07-.23,1.63-1.98,1.85.33,1.34,1.32-.34,1.49-1.34,2.31-2.69,1.16-.67,1.65.67,2.31.17,8.09-4.03,2.97-2.86,1.32-1.51,4.29,1.68-3.47,3.7-3.96,3.03-7.26,5.55-2.64,1.01-5.94,2.02-4.13,1.18-1.55-.55-.6-3.48.5-2.86-.17-2.19-2.64-1.18-4.62-1.01-3.96-1.18-3.8-1.85h0Z"/>
    <path id="PA" class="cls-2" d="M827.52,229.98l1.16-.67,2.31-1.34,1.49-2.86,1.65-2.35,3.3-3.19v-.84l-2.48-1.68-3.63-2.52-.99-2.69-2.81-.34-.17-1.18-.83-2.86,2.31-1.18.17-2.52-1.32-1.34.17-1.68,1.98-3.19v-3.19l2.39-2.52-1.4-1.01-2.64-.17-2.31-2.02-2.48-5.55-3.07-.97-2.38-2.23-18.99,4.2-43.92,9.08-9.08,1.51-.51-7.37-5.6,5.85-1.32.5-4.29,3.13,2.97,19.9,1.72,11.18,3.65,20.03,4.73-.78,12.2-1.56,38.73-7.97,15.19-2.94,8.48-1.69,1.32-1.31,2.15-1.68h2.15Z"/>
    <g id="VA">
      <path id="VA-2" data-name="VA" class="cls-2" d="M724.49,302.93l1.98,3.7,1.32,1.34,2.97.84,2.64-.67,2.48-2.35s1.82,1.51,2.48,1.34c.66-.17,4.46-1.01,4.46-1.01l1.82-4.87,2.64,1.01,3.3-2.52,1.49.34,2.15-2.02.17-2.86-.83-1.34,5.12-11.26,2.15-6.89.33-4.54,1.82-.17,1.65,2.86,1.32.84h2.64l1.16-5.71.33-3.19,3.47-.34.5-2.35,3.14-2.52.66-1.68,1.65-2.86.5-2.18.17-5.55,4.62,1.85,5.78,3.19.83-5.29,4.29,2.1v3.03l5.61,1.34,1.98,1.34.99-2.02,2.31,1.68-1.49,3.36-.33,2.86-1.82,2.69v2.19l.66,1.85,5.17,1.41,1.93,1.62,5.28.34,2.64,2.35,3.3.67,1.32,1.34-.5,4.71.99,1.01.17,2.35,1.32,2.19-.17,1.85-3.3-1.18v1.01l1.98,1.68v1.18l1.49,1.18,1.32,1.68.17,2.35-2.31,1.51.33.5,2.64-.5,3.3-.67,1.16-.17,4.16,7.31-4.99,1.77-11.72,3.03-19.57,3.98-21.04,3.92-17.5,2.69-16.16,2.02-7.29,1.34-4.61-.64-2.16-.03-2.48,2.02-8.09.17-12.25,1.98-10.21.97,2.81-1.43,5.78-3.53,3.96-2.19v-2.18l1.82-1.85,4.62-5.55,4.29-3.7,3.3-4.03h0Z"/>
      <path id="path3106" class="cls-1" d="M831.46,291.38l-1.34-3.01.4-7.82,2.51-4.44-.13-4.3,5.94-2.29-.66,2.29-3.17,4.17-.32,8.17-.75,3.4-1.83,3.92-.64-.08h0Z"/>
    </g>
    <path id="MD" class="cls-2" d="M840.72,258.56l-6.27,1.34-5.12.17-1.65-6.56-2.15-10.08-2.31-5.88-1.32-4.57-8.48,1.69-15.19,2.94-38.25,7.85,1.16,5.21.99,5.88.33-.34,2.15-2.52,2.31-3.19,2.48-.17,1.49-1.51,1.82-2.69,1.32.67,2.97-.34,2.64-2.19,2.05-1.51,1.88-.5,1.68,1.17,2.97,1.51,1.98,1.85,1.24,1.6,4.21,1.76v3.03l5.61,1.34,1.98,1.34.99-2.02,2.31,1.68-1.49,3.36-.33,2.86-1.82,2.69v2.19l.66,1.85,5.17,1.41,4.4-.06,3.14,1.01,2.15.34.99-2.19-1.49-2.18v-1.85l-2.48-2.18-2.15-5.71,1.32-5.55-.17-2.19-1.32-1.34s1.49-1.68,1.49-2.35.5-2.19.5-2.19l1.98-1.34,1.98-1.68.5,1.01-1.49,1.68-1.32,3.87.33,1.18,1.82.34.5,5.71-2.15,1.01.33,3.7.5-.17,1.16-2.02,1.65,1.85-1.65,1.34-.33,3.53,2.64,3.53,3.96.5,1.65-.84,3.3,5.38,1.82.5v3.7l-2.31,5.04-.5,7.23,1.49,3.53,1.49.17,1.98-4.37.83-3.7.17-7.4,3.14-5.04,2.15-7.23v-5.88h0ZM823.97,268.72l1.16,2.61.17,1.85,1.16,1.93s.91-.92.91-1.26-.74-3.19-.74-3.19l-.74-2.44-1.9.5h0Z"/>
    <path id="WV" class="cls-2" d="M760.01,245.52l1.14,5.14.99,5.88.33-.34,2.15-2.52,2.31-3.19,2.48-.17,1.49-1.51,1.82-2.69,1.32.67,2.97-.34,2.64-2.19,2.05-1.51,1.88-.5,1.68,1.17,2.97,1.51,1.98,1.85,1.4,1.34-1.07,5.21-5.78-3.19-4.62-1.85-.17,5.55-.5,2.18-1.65,2.86-.66,1.68-3.14,2.52-.5,2.35-3.47.34-.33,3.19-1.16,5.71h-2.64l-1.32-.84-1.65-2.86-1.82.17-.33,4.54-2.15,6.89-5.12,11.26.83,1.34-.17,2.86-2.15,2.02-1.49-.34-3.3,2.52-2.64-1.01-1.82,4.87s-3.8.84-4.46,1.01c-.66.17-2.48-1.34-2.48-1.34l-2.48,2.35-2.64.67-2.97-.84-1.32-1.34-2.24-3.14-3.21-2.07-2.64-2.86-2.97-3.87-.66-2.35-2.64-1.51-.83-1.68-.25-5.46,2.23-.08,1.98-.84.17-2.86,1.65-1.51.17-5.21.99-4.03,1.32-.67,1.32,1.18.5,1.85,1.82-1.01.5-1.68-1.16-1.85v-2.52l.99-1.34,2.31-3.53,1.32-1.51,2.15.5,2.31-1.68,3.14-3.53,2.31-4.03.33-5.88.5-5.21v-4.87l-1.16-3.19.99-1.51,1.31-1.34,3.57,20.61,4.73-.78,12.7-1.61h0Z"/>
    <path id="NJ" class="cls-2" d="M831.97,191.83l-2.15,2.52v3.19l-1.98,3.19-.17,1.68,1.32,1.34-.17,2.52-2.31,1.18.83,2.86.17,1.18,2.81.34.99,2.69,3.63,2.52,2.48,1.68v.84l-3.3,3.19-1.65,2.35-1.49,2.86-2.31,1.34-1.24.76-.25,1.26-.62,2.71,1.12,2.33,3.3,3.03,4.95,2.35,4.13.67.17,1.51-.83,1.01.33,2.86h.83l2.15-2.52.83-5.04,2.81-4.2,3.14-6.72,1.16-5.71-.66-1.18-.17-9.75-1.65-3.53-1.16.84-2.81.34-.5-.5,1.16-1.01,2.15-2.02.06-1.14-.39-3.57.5-2.86-.17-2.19-2.64-1.18-4.62-1.01-3.96-1.18-3.8-1.85h0Z"/>
    <path id="ME" class="cls-2" d="M929.05,74.34l1.98,2.19,2.31,3.87v2.02l-2.15,4.87-1.98.67-3.47,3.19-4.95,5.71h-1.32c-.66,0-.99-2.19-.99-2.19l-1.82.17-.99,1.51-2.48,1.51-.99,1.51,1.65,1.51-.5.67-.5,2.86-1.98-.17v-1.68l-.33-1.34-1.49.34-1.82-3.36-2.15,1.34,1.32,1.51.33,1.18-.83,1.34.33,3.19.17,1.68-1.65,2.69-2.97.5-.33,3.03-5.45,3.19-1.32.5-1.65-1.51-3.14,3.7.99,3.36-1.49,1.34-.17,4.54-1.61,7.92-2.51-1.2-.5-3.19-3.96-1.18-.33-2.86-7.43-24.37-4.87-15.36,2.49-.36,1.55.43v-2.69l.83-5.71,2.64-4.87,1.49-4.2-1.98-2.52v-6.22l.83-1.01.83-2.86-.17-1.51-.17-5.04,1.82-5.04,2.97-9.24,2.15-4.37h1.32l1.32.17v1.18l1.32,2.35,2.81.67.83-.84v-1.01l4.13-3.03,1.82-1.85,1.49.17,6.11,2.52,1.98,1.01,9.25,31.09h6.11l.83,2.02.17,5.04,2.97,2.35h.83l.17-.5-.5-1.18,2.81-.17h0ZM907.67,105.69l1.57-1.6,1.4,1.09.58,2.52-1.73.92-1.82-2.94h0ZM914.53,99.55l1.82,1.93s1.32.08,1.32-.25.25-2.1.25-2.1l.91-.84-.83-1.85-2.06.76-1.4,2.35Z"/>
    <path id="VT" class="cls-2" d="M848.15,155.19l-.83-5.88-3.14-11.43-.66-.34-2.97-1.34.83-3.03-.83-2.19-2.64-4.71.99-4.03-.83-5.38-2.48-6.72-.82-5.12,27.73-7.49.33,6.05,1.98,2.86v4.2l-3.8,4.2-2.64,1.18v1.18l1.16,1.85v8.91l-.83,9.58-.17,5.04.99,1.34-.17,4.71-.5,1.85,1.49,2.1-7.1,1.43-5.12,1.18h0Z"/>
    <path id="NH" class="cls-2" d="M886.31,142.49l.31-1.59,1.11-3.42-2.6-.95-.5-3.19-3.96-1.18-.33-2.86-7.43-24.37-4.7-15.12h-.92s-.66,1.68-.66,1.68l-.66-.5-.99-1.01-1.49,2.02-.98,5.7.32,5.89,1.98,2.86v4.2l-3.8,4.2-2.64,1.18v1.18l1.16,1.85v8.91l-.83,9.58-.17,5.04.99,1.34-.17,4.71-.5,1.85,1.49,2.1,17.67-4.29,2.31-.67,2.15-3.36,3.82-1.77h0Z"/>
    <path id="MA" class="cls-2" d="M905.32,174.69l2.22-.71.47-1.78,1.05.12,1.05,2.38-1.28.48-3.97.12.47-.59h0ZM895.75,175.53l2.33-2.73h1.63l1.87,1.55-2.45,1.07-2.22,1.07-1.17-.95h0ZM860.21,152.67l17.83-4.37,2.31-.67,2.15-3.36,3.82-1.73,2.95,4.59-2.48,5.38-.33,1.51,1.98,2.69,1.16-.84h1.82l2.31,2.69,3.96,6.22,3.63.5,2.31-1.01,1.82-1.85-.83-2.86-2.15-1.68-1.49.84-.99-1.34.5-.5,2.15-.17,1.82.84,1.98,2.52.99,3.03.33,2.52-4.29,1.51-3.96,2.02-3.96,4.71-1.98,1.51v-1.01l2.48-1.51.5-1.85-.83-3.19-2.97,1.51-.83,1.51.5,2.35-2.81,1.51-2.81-4.71-3.47-4.54-1.65-1.18-5.86,1.6-5.2,1.09-22.29,4.96-.99-5.97.66-11.01,5.28-.92,6.93-1.34"/>
    <path id="CT" class="cls-2" d="M879.36,180.9l-.99-4.37-.83-4.54-1.65-6.22-5.28,1.18-22.29,4.96.66,3.45,1.49,7.56v8.4l-1.16,2.35,1.87,2.19,5.06-3.54,3.63-3.36,1.98-2.19.83.67,2.81-1.51,5.28-1.18,8.59-3.87h0Z"/>
    <path id="RI" class="cls-2" d="M878.86,180.9l-.49-4.37-.83-4.54-1.73-6.13,5.86-1.6,1.65,1.18,3.47,4.54,2.97,4.62-2.97,1.6-1.32-.17-1.16,1.85-2.48,2.02-2.97,1.01Z"/>
    <path id="DE" class="cls-2" d="M826.36,233.51l.83-2.19.25-1.34h-2.06l-2.15,1.68-1.49,1.51,1.49,4.37,2.31,5.88,2.15,10.08,1.65,6.56,5.12-.17,6.27-1.26-2.31-7.65-.99.5-3.63-2.52-1.82-4.87-1.98-3.7-2.31-1.01-2.15-3.7.83-2.19h0Z"/>
  </g>
  <g>
    <path id="WA" class="cls-4" d="M81.77.56l4.46,1.51,9.91,2.86,8.75,2.02,20.47,5.88,23.44,5.88,16.47,3.86-1.03,4.04-3.85,14.02-4.55,21.63-3.74,17.11-.2,10.08-14.28-3.55-15.41-3.68-15.76.12-.47-1.43-5.6,2.14-4.55-.59-2.45-1.66-1.28.71-4.79-.24-1.75-1.43-5.37-2.14-.82.12-4.44-1.55-1.98,1.9-6.3-.36-6.07-4.28.7-.83.23-8.08-2.33-4.04-4.2-.59-.7-2.61-2.4-.49-1.96-1.56-1.82,1.01-2.31-3.03.33-3.03,2.81-.34,1.65-4.2-2.64-1.18.17-3.87,4.46-.67-2.81-2.86-1.49-7.4.66-3.03v-8.24l-1.82-3.36,2.31-9.75,2.15.5,2.48,3.03,2.81,2.69,3.3,2.02,4.62,2.19,3.14.67,2.97,1.51,3.47,1.01,2.31-.17v-2.52l1.32-1.18,2.15-1.34.33,1.18.33,1.85-2.31.5-.33,2.19,1.82,1.51,1.16,2.52.66,2.02,1.49-.17.17-1.34-.99-1.34-.5-3.36.83-1.85-.66-1.51v-2.35l1.82-3.7-1.16-2.69-2.48-5.04.33-.84,1.16-.84ZM72.11,6.77l2.06-.17.5,1.43,1.57-1.68h2.39l.83,1.6-1.57,1.76.66.84-.74,2.1-1.4.42s-.91.08-.91-.25,1.49-2.69,1.49-2.69l-1.73-.59-.33,1.51-.74.67-1.57-2.35-.5-2.61Z"/>
    <path id="CA" class="cls-4" d="M126.51,396.72l4.22-.84,1.52-2.26.58-2.85-3.74-.59-.47-.83.47-1.78.12-6.06,2.1-.71,2.92-2.85.58-5.11,1.52-3.8,1.98-2.02,3.5-1.78,1.63-1.43.12-2.38-1.05-.59-.82-1.07-1.28-6.06-2.8-5.11.59-3.4-2.58-3.38-14.83-23.65-19.85-30.19-23.23-35.18-12.64-19.32,1.67-6.83,7.12-26.98,8.29-32.68-13.78-3.8-13.78-3.57-12.84-4.28-7.7-2.14-11.67-3.09-7.2-2.51-1.61,4.91-.17,7.73-5.28,12.27-3.14,2.69-.33,1.18-1.82.84-1.49,4.37-.83,3.36,2.81,4.37,1.65,4.37,1.16,3.7-.33,6.72-1.82,3.19-.66,6.05-.99,3.87,1.82,4.03,2.81,4.71,2.31,5.04,1.32,4.2-.33,3.36-.33.5v2.19l5.78,6.56-.5,2.52-.66,2.35-.66,2.02.17,8.57,2.15,3.87,1.98,2.69,2.81.5.99,2.86-1.16,3.7-2.15,1.68h-1.16l-.83,4.03.5,3.03,3.3,4.54,1.65,5.55,1.49,4.87,1.32,3.19,3.47,6.05,1.49,2.69.5,3.03,1.65,1.01v2.52l-.83,2.02-1.82,7.4-.5,2.02,2.48,2.86,4.29.5,4.62,1.85,3.96,2.18h2.97l2.97,3.19,2.64,5.04,1.16,2.35,3.96,2.18,4.95.84,1.49,2.19.66,3.36-1.49.67.33,1.01,3.3.84,2.81.17,2.97,4.87,3.96,4.37.83,2.35,2.64,4.37.33,3.36v9.75l.5,1.85,10.24,1.51,20.14,2.86,14.86,1.68h0ZM36.03,344.36l1.32,1.6-.17,1.34-3.3-.08-.58-1.26-.66-1.51,3.38-.08h0ZM38.01,344.36l1.24-.67,3.63,2.18,3.14,1.26-.91.67-4.62-.25-1.65-1.68-.83-1.51h0ZM59.15,364.95l1.82,2.44.83,1.01,1.57.59.58-1.51-.99-1.85-2.72-2.1-1.07.17s0,1.26,0,1.26ZM57.66,373.94l1.82,3.28,1.24,2.02-1.49.25-1.32-1.26s-.74-1.51-.74-1.93v-2.27l.5-.08Z"/>
    <path id="OR" class="cls-4" d="M129.85,178.56l4.85-19.2,4.44-18.42,1.4-4.4,2.57-6.18-1.28-2.38-2.57.12-.82-1.07.47-1.19.35-3.21,4.55-5.7,1.87-.48,1.17-1.19.58-3.33.93-.71,3.97-6.06,3.97-4.52.23-3.92-3.5-2.73-1.07-4.36-14.34-3.73-15.41-3.68-15.76.12-.47-1.43-5.6,2.14-4.55-.59-2.45-1.66-1.28.71-4.79-.24-1.75-1.43-5.37-2.14-.82.12-4.44-1.55-1.98,1.9-6.3-.36-6.07-4.28.7-.83.23-8.08-2.33-4.04-4.2-.59-.7-2.61-2.4-.49-5.92,2.14-2.31,6.72-3.3,10.42-3.3,6.72-5.12,14.62-6.6,14.12-8.25,13.11-1.98,3.03-.83,8.91-1.32,6.22,2.27,4.67,7.2,2.51,11.67,3.09,7.7,2.14,12.84,4.28,13.78,3.57,13.78,4.04M129.85,178.56l-47.92-11.5,34.32,8.47,14.01,3.09"/>
    <path id="MT" class="cls-4" d="M351.28,121.57l.83-12.09,2.31-25.94,1.4-15.69,1.29-14.8-32.64-3.42-29.88-3.7-29.88-4.2-33.02-5.55-18.82-3.53-33.42-7.21-4.57,22.19,3.5,7.84-1.4,4.75,1.87,4.75,3.27,1.43,3.74,10.7,3.74,3.8.47,1.19,3.5,1.19.47,2.14-7.24,18.3v2.61l2.57,3.33h.93l4.9-3.09.7-1.19,1.63.71-.23,5.47,2.8,13.07,3.04,2.61.93.71,1.87,2.38-.47,3.57.7,3.57,1.17.95,2.33-2.38h2.8l3.27,1.66,2.57-.95h4.2l3.74,1.66,2.8-.48.47-3.09,3.04-.71,1.4,1.43.47,3.33,2.64,2.59,1.57-11.86,20.31,3.09,28.95,4.28,16.58,2.14,32.77,3.43,11.72,1.25,1.73-16.54.62-5.73h0Z"/>
    <path id="NV" class="cls-4" d="M129.85,178.56l21.43,4.69,9.92,2.02,9.46,1.9,8.23,2.2-1.23,5.76-3.62,18.18-3.85,21.27-1.98,9.27-2.22,14.14-3.39,17.23-3.27,15.81-2.01,10.92-3.01,18.44-.47.48-1.75,2.73-2.57-.12-1.28-2.85-2.8-.36-.93-1.19h-.93l-.93.59-1.98,1.07-.12,7.25-.23,1.78-.58,13.07-1.51,2.28-2.57-3.35-14.83-23.65-19.85-30.19-23.23-35.18-12.64-19.32,1.67-6.83,7.12-26.98,8.06-32.59,34.32,8.47,14.01,3.09"/>
    <path id="ND" class="cls-4" d="M468.35,127.51l-.7-8.79-1.87-7.61-1.87-14.02-.47-10.22-1.87-3.57-1.63-5.23v-10.7l.7-4.04-2-5.72-30.01-.59-18.99-.67-27.08-1.34-25.48-1.96-1.29,14.8-1.4,15.69-2.31,25.94-.66,12.63,57.37,3.75,59.54,1.66Z"/>
    <path id="SD" class="cls-4" d="M469.87,206.02l-.97-2.12-1.72-2.94,1.87-4.52,1.4-5.94-2.8-2.14-.47-2.85.93-2.61h1.87l.47-7.13-.23-31.61-.47-3.09-4.2-3.57-1.17-1.9v-1.66l2.1-1.66,1.4-1.43.35-3.33-59.42-1.66-57.37-4.04-.78,5.49-1.65,16.5-1.37,18.66-1.63,26.74,15.88,1.07,20.55,1.19,18.21,1.19,24.28,1.19,10.97-.48,2.1,2.38,4.9,3.09,1.17.95,4.44-1.43,3.97-.48,2.8-.24,1.87,1.43,5.14,1.66,3.04,1.66.47,1.66.93,2.14h1.87l1.29-.17h0Z"/>
    <path id="IA" class="cls-4" d="M565.89,203.34l.06,1.9,2.33.71.93,1.19.47,1.9,3.97,3.57.7,2.38-.7,3.57-1.87,3.8-.7,2.61-2.33,1.9-1.87.71-5.37,1.43-.7,1.9-.7,2.14.7,1.43,1.87,1.66-.23,4.28-1.87,1.66-.7,1.66v2.85l-1.87.48-1.63,1.19-.23,1.43.23,2.14-1.75,1.84-3.39-3.51-1.17-2.38-7.94.71-10.04.48-25.92.95-13.78.24-9.57.24-1.11.13-1.69-5.59-.23-6.89-1.63-4.28-.7-5.47-2.33-3.8-.93-4.99-2.8-7.84-1.17-5.59-1.4-2.26-1.63-2.85,1.87-4.52,1.4-5.94-2.8-2.14-.47-2.85.93-2.61h13.54l50.67-.71,18.45-.71,4.2-.12.7,3.45,2.33,1.66.23,1.43-2.1,3.57.23,3.33,2.57,4.04,2.57,1.19,3.04.48,1.34,2.85h0Z"/>
    <path id="MN" class="cls-4" d="M468.12,127.51l-.47-8.79-1.87-7.61-1.87-14.02-.47-10.22-1.87-3.57-1.63-5.23v-10.7l.7-4.04-1.86-5.67,30.77.04.33-8.57.66-.17,2.31.5,1.98.84.83,5.71,1.49,6.39,1.65,1.68h4.95l.33,1.51,6.44.34v2.19h4.95l.33-1.34,1.16-1.18,2.31-.67,1.32,1.01h2.97l3.96,2.69,5.45,2.52,2.48.5.5-1.01,1.49-.5.5,3.03,2.64,1.34.5-.5,1.32.17v2.19l2.64,1.01h3.14l1.65-.84,3.3-3.36,2.64-.5.83,1.85.5,1.34h.99l.99-.84,9.08-.34,1.82,3.19h.66l.73-1.13,4.53-.39-.63,2.37-4.02,1.91-9.44,4.22-4.88,2.09-3.14,2.69-2.48,3.7-2.31,4.03-1.82.84-4.62,5.21-1.32.17-3.47,3.19.7.56-2.88,2.81-.23,2.85v8.79l-1.17,1.66-5.37,4.04-2.33,6.18.47.24,2.57,2.14.7,3.33-1.87,3.33v4.04l.47,6.89,3.04,3.09h3.5l1.87,3.33,3.5.48,3.97,5.94,7.24,4.28,2.1,2.85.93,7.84h-4.2l-18.45.71-50.67.71h-11.79l.58-7.13-.23-31.61-.47-3.09-4.2-3.57-1.17-1.9v-1.66l2.1-1.66,1.4-1.43.23-3.33h0Z"/>
    <path id="WI" class="cls-4" d="M612.41,200.25l.15-4.39-1.65-4.71-.66-6.39-1.16-2.52.99-3.19.83-3.03,1.49-2.69-.66-3.53-.66-3.7.5-1.85,1.98-2.52.17-2.86-.83-1.34.66-2.69.5-3.36,2.81-5.88,2.97-7.06.17-2.35-.33-1.01-.83.5-4.29,6.56-2.81,4.2-1.98,1.85-.83,2.35-1.49.84-1.16,2.02-1.49-.34-.17-1.85,1.32-2.52,2.15-4.87,1.82-1.68,1.12-2.38-1.67-.94-1.4-1.43-1.63-10.7-3.74-1.19-1.4-2.38-12.84-2.85-2.57-1.19-8.41-2.38-8.41-1.19-4.26-5.62-.54,1.31-1.16-.17-.66-1.18-2.81-.84-1.16.17-1.82,1.01-.99-.67.66-2.02,1.98-3.19,1.16-1.18-1.98-1.51-2.15.84-2.97,2.02-7.59,3.36-2.97.67-2.97-.5-1-.91-2.16,2.95-.23,2.85v8.79l-1.17,1.66-5.37,4.04-2.33,6.18.47.24,2.57,2.14.7,3.33-1.87,3.33v4.04l.47,6.89,3.04,3.09h3.5l1.87,3.33,3.5.48,3.97,5.94,7.24,4.28,2.1,2.85.93,7.73.7,3.45,2.33,1.66.23,1.43-2.1,3.57.23,3.33,2.57,4.04,2.57,1.19,3.04.48,1.26,2.61h9.37s27.2-1.66,27.2-1.66l10.04-1.19h0Z"/>
    <path id="HI" class="cls-4" d="M210.42,519.2l1.88-3.44,2.19-.31.31.78-2.03,2.97h-2.34ZM220.26,515.61l5.94,2.5,2.03-.31,1.56-3.75-.62-3.28-4.06-.47-3.91,1.72-.94,3.59h0ZM249.95,525.3l3.59,5.31,2.34-.31,1.09-.47,1.41,1.25,3.59-.16.94-1.41-2.81-1.72-1.88-3.59-2.03-3.44-5.63,2.81-.62,1.72h0ZM269.48,533.89l1.25-1.88,4.53.94.62-.47,5.94.62-.31,1.25-2.5,1.41-4.22-.31-5.31-1.56ZM274.64,538.89l1.88,3.75,2.97-1.09.31-1.56-1.56-2.03-3.59-.31v1.25h0ZM281.36,537.8l2.19-2.81,4.53,2.34,4.22,1.09,4.22,2.66v1.88l-3.44,1.72-4.69.94-2.34-1.41-4.69-6.41h0ZM297.45,552.8l1.56-1.25,3.28,1.56,7.34,3.44,3.28,2.03,1.56,2.34,1.88,4.22,3.91,2.5-.31,1.25-3.75,3.12-4.06,1.41-1.41-.62-2.97,1.72-2.34,3.12-2.19,2.81-1.72-.16-3.44-2.5-.31-4.38.62-2.34-1.56-5.47-2.03-1.72-.16-2.5,2.19-.94,2.03-2.97.47-.94-1.56-1.72-.31-2.03h0Z"/>
    <path id="AK" class="cls-4" d="M151.43,449.83l-.31,82.5,1.56.94,2.97.16,1.41-1.09h2.5l.16,2.81,6.72,6.56.47,2.5,3.28-1.88.63-.16.31-2.97,1.41-1.56,1.09-.16,1.88-1.41,2.97,2.03.63,2.81,1.88,1.09,1.09,2.34,3.75,1.72,3.28,5.78,2.66,3.75,2.19,2.66,1.41,3.59,4.84,1.72,5,2.03.94,4.22.47,2.97-.94,3.28-1.72,2.19-1.56-.78-1.41-2.97-2.66-1.41-1.72-1.09-.78.78,1.41,2.66.16,3.59-1.09.47-1.88-1.88-2.03-1.25.47,1.56,1.25,1.72-.78.78s-.78-.31-1.25-.94c-.47-.62-2.03-3.28-2.03-3.28l-.94-2.19s-.31,1.25-.94.94c-.63-.31-1.25-1.41-1.25-1.41l1.72-1.88-1.41-1.41v-4.84h-.78l-.78,3.28-1.09.47-.94-3.59-.63-3.59-.78-.47.31,5.47v1.09l-1.41-1.25-3.44-5.78-2.03-.47-.62-3.59-1.56-2.81-1.56-1.09v-2.19l2.03-1.25-.47-.31-2.5.62-3.28-2.34-2.5-2.81-4.69-2.5-3.91-2.5,1.25-3.12v-1.56l-1.72,1.56-2.81,1.09-3.59-1.09-5.47-2.34h-5.31l-.62.47-6.25-3.75-2.03-.31-2.66-5.62-3.44.31-3.44,1.41.47,4.38,1.09-2.81.94.31-1.41,4.22,3.13-2.66.63,1.56-3.75,4.22-1.25-.31-.47-1.88-1.25-.78-1.25,1.09-2.66-1.72-2.97,2.03-1.72,2.03-3.28,2.03-4.53-.16-.47-2.03,3.59-.62v-1.25l-2.19-.62.94-2.34,2.19-3.75v-1.72l.16-.78,4.22-2.19.94,1.25h2.66l-1.25-2.5-3.59-.31-4.84,2.66-2.34,3.28-1.72,2.5-1.09,2.19-4.06,1.41-2.97,2.5-.31,1.56,2.19.94.78,2.03-2.66,3.12-6.25,4.06-7.5,4.06-2.03,1.09-5.16,1.09-5.16,2.19,1.72,1.25-1.41,1.41-.47,1.09-2.66-.94-3.13.16-.78,2.19h-.94l.31-2.34-3.44,1.25-2.81.94-3.28-1.25-2.81,1.88h-3.13l-2.03,1.25-1.56.78-2.03-.31-2.5-1.09-2.19.62-.94.94-1.56-1.09v-1.88l2.97-1.25,6.09.62,4.22-1.56,2.03-2.03,2.81-.62,1.72-.78,2.66.16,1.56,1.25.94-.31,2.19-2.66,2.97-.94,3.28-.62,1.25-.31.62.47h.78l1.25-3.59,3.91-1.41,1.88-3.59,2.19-4.38,1.56-1.41.31-2.5-1.56,1.25-3.28.62-.62-2.34-1.25-.31-.94.94-.16,2.81-1.41-.16-1.41-5.62-1.25,1.25-1.09-.47-.31-1.88-3.91.16-2.03,1.09-2.5-.31,1.41-1.41.47-2.5-.62-1.88,1.41-.94,1.25-.16-.62-1.72v-4.22l-.94-.94-.78,1.41h-5.94l-1.41-1.25-.63-3.75-2.03-3.44v-.94l2.03-.78.16-2.03,1.09-1.09-.78-.47-1.25.47-1.09-2.66.94-4.84,4.38-3.12,2.5-1.56,1.88-3.59,2.66-1.25,2.5,1.09.31,2.34,2.34-.31,3.13-2.34,1.56.62.94.62h1.56l2.19-1.25.78-4.22s.31-2.81.94-3.28.94-.94.94-.94l-1.09-1.88-2.5.78-3.13.78-1.88-.47-3.44-1.72-4.84-.16-3.44-3.59.47-3.75.63-2.34-2.03-1.72-1.88-3.59.47-.78,6.56-.47h2.03l.94.94h.63l-.16-1.56,3.75-.62,2.5.31,1.41,1.09-1.41,2.03-.47,1.41,2.66,1.56,4.84,1.72,1.72-.94-2.19-4.22-.94-3.13.94-.78-3.28-1.88-.47-1.09.47-1.56-.78-3.75-2.81-4.53-2.34-4.06,2.81-1.88h3.13l1.72.62,4.06-.16,3.59-3.44,1.09-2.97,3.59-2.34,1.56.94,2.66-.62,3.59-2.03,1.09-.16.94.78,4.38-.16,2.66-2.97h1.09l3.44,2.34,1.88,2.03-.47,1.09.62,1.09,1.56-1.56,3.75.31.31,3.59,1.88,1.41,6.88.62,6.09,4.06,1.41-.94,5,2.5,2.03-.62,1.88-.78,4.69,1.88,4.22,2.81h0ZM40.18,477.8l2.03,5.16-.16.94-2.81-.31-1.72-3.91-1.72-1.41h-2.34l-.16-2.5,1.72-2.34,1.09,2.34,1.41,1.41,2.66.62h0ZM37.68,510.14l3.59.78,3.59.94.78.94-1.56,3.59-2.97-.16-3.28-3.44-.16-2.66ZM17.68,496.55l1.09,2.5,1.09,1.56-1.09.78-2.03-2.97v-1.88h.94ZM4.4,567.17l3.28-2.19,3.28-.94,2.5.31.47,1.56,1.88.47,1.88-1.88-.31-1.56,2.66-.62,2.81,2.5-1.09,1.72-4.22,1.09-2.66-.47-3.59-1.09-4.22,1.41-1.56.31-1.09-.62ZM51.75,562.8l1.56,1.88,2.03-1.56-1.41-1.25-2.19.94ZM54.56,565.76l1.09-2.19,2.03.31-.78,1.88h-2.34ZM77.37,563.89l1.41,1.72.94-1.09-.78-1.88-1.56,1.25ZM85.81,551.86l1.09,5.62,2.81.78,4.84-2.81,4.22-2.5-1.56-2.34.47-2.34-2.03,1.25-2.81-.78,1.56-1.09,1.88.78,3.75-1.72.47-1.41-2.34-.78.78-1.88-2.66,1.88-4.53,3.44-4.69,2.81-1.25,1.09ZM126.75,532.64l2.34-1.41-.94-1.72-1.72.94.31,2.19Z"/>
    <path id="MI" class="cls-4" d="M580.19,79.26l1.87-2.14,2.22-.83,5.49-4.04,2.33-.59.47.48-5.25,5.35-3.39,2.02-2.1.95-1.63-1.19h0ZM668.2,112.66l.66,2.61,3.3.17,1.32-1.26s-.08-1.51-.41-1.68c-.33-.17-1.65-1.93-1.65-1.93l-2.23.25-1.65.17-.33,1.18.99.5h0ZM698.9,178.22l-3.3-8.57-2.31-9.41-2.48-3.36-2.64-1.85-1.65,1.18-3.96,1.85-1.98,5.21-2.81,3.87-1.16.67-1.49-.67s-2.64-1.51-2.48-2.19.5-5.21.5-5.21l3.47-1.34.83-3.53.66-2.69,2.48-1.68-.33-10.42-1.65-2.35-1.32-.84-.83-2.19.83-.84,1.65.34.17-1.68-2.48-2.35-1.32-2.69h-2.64l-4.62-1.51-5.61-3.53h-2.81l-.66.67-.99-.5-3.14-2.35-2.97,1.85-2.97,2.35.33,3.7.99.34,2.15.5.5.84-2.64.84-2.64.34-1.49,1.85-.33,2.19.33,1.68.33,5.71-3.63,2.19-.66-.17v-4.37l1.32-2.52.66-2.52-.83-.84-1.98.84-.99,4.37-2.81,1.18-1.82,2.02-.17,1.01.66.84-.66,2.69-2.31.5v1.18l.83,2.52-1.16,6.39-1.65,4.2.66,4.87.5,1.18-.83,2.52-.33.84-.33,2.86,3.63,6.22,2.97,6.72,1.49,5.04-.83,4.87-.99,6.22-2.48,5.38-.33,2.86-3.15,3.23-.76.8,4.73-.17,22.45-2.35,6.27-.67.33,1.26,7.92-1.26,10.4-1.68,5.33-.48-1.37-1.2.17-1.51,2.15-3.87,2.04-1.81-.23-5.25,1.63-1.66,1.11-.36.23-3.7,1.57-3.15,1.07.63.17.67.83.17,1.98-1.01-.33-9.92h0ZM564.6,110.04l1.89-1.08,2.81-.84,3.63-2.35v-1.01l.66-.67,6.11-1.01,2.48-2.02,4.46-2.19.17-1.34,1.98-3.03,1.82-.84,1.32-1.85,2.31-2.35,4.46-2.52,4.79-.5,1.16,1.18-.33,1.01-3.8,1.01-1.49,3.19-2.31.84-.5,2.52-2.48,3.36-.33,2.69.83.5.99-1.18,3.63-3.03,1.32,1.34h2.31l3.3,1.01,1.49,1.18,1.49,3.19,2.81,2.86,3.96-.17,1.49-1.01,1.65,1.34,1.65.5,1.32-.84h1.16l1.65-1.01,4.13-3.7,3.47-1.18,6.77-.34,4.62-2.02,2.64-1.34,1.49.17v5.88l.5.34,2.97.84,1.98-.5,6.27-1.68,1.16-1.18,1.49.5v7.23l3.3,3.19,1.32.67,1.32,1.01-1.32.34-.83-.34-3.8-.5-2.15.67-2.31-.17-3.3,1.51h-1.82l-5.94-1.34-5.28.17-1.98,2.69-7.1.67-2.48.84-1.16,3.19-1.32,1.18-.5-.17-1.49-1.68-4.62,2.52h-.66l-1.16-1.68-.83.17-1.98,4.54-.99,4.2-3.83,8.46-1.67-1.19-1.4-1.43-1.63-10.7-3.74-1.19-1.4-2.38-12.84-2.85-2.57-1.19-8.41-2.38-8.41-1.19-4.38-5.59h0Z"/>
    <path id="IN" class="cls-4" d="M618.01,307.8l-.17-4.03.5-4.71,2.31-3.03,1.82-4.03,2.64-4.37-.5-6.05-1.82-2.86-.33-3.36.83-5.71-.5-7.23-1.32-16.64-1.32-15.97-.99-12.19,3.14.92,1.49,1.01,1.16-.34,2.15-2.02,2.89-1.68,5.2-.17,22.45-2.35,6.27-.67.17,1.18,1.49,15.3,1.82,14.29,2.64,24.37.5,5.88-.5,2.35,1.49,1.51.33,2.02-2.81,2.02-3.96,1.85-2.81.34-.5,4.71-4.79,4.03-2.97,3.7.33,2.35-.83,2.19h-4.79l-1.16-1.68-1.16.84-2.97,1.68.17,3.53-2.15.5-.83-1.18-1.98-1.68-2.97,1.51-1.82,3.36-1.82-.84-1.49-2.02-3.63.5-5.94,1.01-2.97,1.85h0Z"/>
    <path id="IL" class="cls-4" d="M617.84,307.63v-3.87l.5-4.71,2.31-3.03,1.82-4.03,2.64-4.37-.5-6.05-1.82-2.86-.33-3.36.83-5.71-.5-7.23-1.32-16.64-1.32-15.97-.83-12.1-1.32-.84-.83-2.69-1.32-3.87-1.65-1.85-1.49-2.69-.24-5.71-10.11,1.36-27.78,1.78-8.87-.45.23,2.47,2.33.71.93,1.19.47,1.9,3.97,3.57.7,2.38-.7,3.57-1.87,3.8-.7,2.61-2.33,1.9-1.87.71-5.37,1.43-.7,1.9-.7,2.14.7,1.43,1.87,1.66-.23,4.28-1.87,1.66-.7,1.66v2.85l-1.87.48-1.63,1.19-.23,1.43.23,2.14-1.75,1.37-1.05,2.91.47,3.8,2.33,7.61,7.47,7.84,5.6,3.8-.23,4.52.93,1.43,6.54.48,2.8,1.43-.7,3.8-2.33,6.18-.7,3.33,2.33,4.04,6.54,5.47,4.67.71,2.1,5.23,2.1,3.33-.93,3.09,1.63,4.28,1.87,2.14,3.03-.35.59-2.13,2.31-1.85,2.15-.67,2.81,1.34,3.63,1.34,1.16-.34.17-2.35-1.32-2.52.33-2.35,1.98-1.51,2.64-.67,1.65-.67-.83-1.85-.66-2.02,1.16-.84.99-3.53h0Z"/>
    <path id="NE" class="cls-4" d="M481.89,250.4l1.4,2.61-.23,2.38,2.57,4.04,3.27,4.28h-6.3l-45.06-.48-41.33-1.43-22.3-.83,1.75-23.18-34.09-2.85,4.44-45.76,15.88,1.07,20.55,1.19,18.21,1.19,24.28,1.19,10.97-.48,2.1,2.38,4.9,3.09,1.17.95,4.44-1.43,3.97-.48,2.8-.24,1.87,1.43,5.14,1.66,3.04,1.66.47,1.66.93,2.14h1.87l1.63-.12,1.17,5.59,2.8,7.84.93,4.99,2.33,3.8.7,5.47,1.63,4.28.23,6.89,1.98,5.72"/>
    <path id="MO" class="cls-4" d="M554.51,253.49l-3.27-3.33-1.17-2.38-7.94.71-10.04.48-25.92.95-13.78.24-8.06.12-2.33.12,1.28,2.61-.23,2.38,2.57,4.04,3.15,4.28,3.15,2.85,2.33.24,1.4.95v3.09l-1.87,1.66-.47,2.38,2.1,3.57,2.57,3.09,2.57,1.9,1.4,12.12-.7,36.72.23,4.87.47,7.13,23.82-.48,23.82-.71,21.25-.95,11.21-.48,1.87,3.09-.47,2.38-3.27,2.85-.7,3.09,6.3.48,5.14-.71,2.1-6.66-.15-5.85,2.95-1.52,1.4-1.66,2.1-1.19.23-3.33.93-1.9-1.4-2.53-3.04.39-1.87-2.14-1.63-4.28.93-3.09-2.1-3.33-2.1-5.23-4.67-.71-6.54-5.47-2.33-4.04.7-3.33,2.33-6.18.7-3.8-2.8-1.43-6.54-.48-.93-1.43.23-4.52-5.6-3.8-7.47-7.84-2.33-7.61-.47-3.8.93-2.61h0Z"/>
    <path id="TN" class="cls-4" d="M698.08,327.3l-53,5.21-16.09,1.85-4.72.53-3.95-.03v4.03l-8.59.5-7.1.67-11.33.05-.27,6.07-2.18,6.52-1.02,3.14-1.38,4.55-.33,2.69-4.13,2.35,1.49,3.7-.99,4.54-1.57,1.76,8.34-.08,24.6-2.02,5.45-.17,8.25-.5,28.4-2.69,10.39-.84,8.6-1.01,8.59-1.18,4.95-.84.33-5.04,1.82-1.51,2.81-.67.66-3.87,4.29-2.86,3.96-1.51,4.29-3.7,4.46-2.19.66-3.19,3.96-4.03.66-.17s0,1.18.83,1.18,1.98.34,1.98.34l2.31-3.7,2.15-.67,2.31.34,1.65-3.7,2.97-2.69.5-2.18.18-4.09-2.33.05-2.48,2.02-8.09.17-12.25,1.98-10.04.88h0Z"/>
    <path id="KY" class="cls-4" d="M724.38,303.7l-3.19,3.26-4.29,3.7-4.62,5.55-1.82,1.85v2.18l-3.96,2.19-5.78,3.53-2.67,1.46-52.97,5.09-16.09,1.85-4.72.53-3.95-.03v4.03l-8.59.5-7.1.67-10.65.21,1.03-1.29,2.23-1.83,2.1-1.19.23-3.33.93-1.9-1.64-2.64.82-1.98,2.31-1.85,2.15-.67,2.81,1.34,3.63,1.34,1.16-.34.17-2.35-1.32-2.52.33-2.35,1.98-1.51,2.64-.67,1.65-.67-.83-1.85-.66-2.02,1.16-.84,1.07-3.45,3.05-1.76,5.94-1.01,3.63-.5,1.49,2.02,1.82.84,1.82-3.36,2.97-1.51,1.98,1.68.83,1.18,2.15-.5-.17-3.53,2.97-1.68,1.16-.84,1.16,1.68h4.79l.83-2.19-.33-2.35,2.97-3.7,4.79-4.03.5-4.71,2.81-.34,3.96-1.85,2.81-2.02-.33-2.02-1.49-1.51.58-2.27,4.21-.25,2.48-.84,2.97,1.68,1.65,4.54,5.94.34,1.82,1.85,2.15.17,2.48-1.51,3.14.5,1.32,1.51,2.81-2.69,1.82-1.34h1.65l.66,2.86,1.82,1.01,3.63,2.19.17,5.71.83,1.68,2.64,1.51.66,2.35,2.97,3.87,2.64,2.86,3.35,2.29h0Z"/>
    <path id="OH" class="cls-4" d="M734.24,196.57l-7.27,4.33-3.96,2.35-3.47,3.87-4.13,4.03-3.3.84-2.97.5-5.61,2.69-2.15.17-3.47-3.19-5.28.67-2.64-1.51-2.43-1.4-5,.73-10.4,1.68-7.92,1.26,1.32,15.21,1.82,14.29,2.64,24.37.58,5.97,4.21-.25,2.48-.84,2.97,1.68,1.65,4.54,5.94.34,1.82,1.85,2.15.17,2.48-1.51,3.14.5,1.32,1.51,2.81-2.69,1.82-1.34h1.65l.66,2.86,1.82,1.01,3.55,2.44,2.23-.08,1.98-.84.17-2.86,1.65-1.51.17-5.21.99-4.03,1.32-.67,1.32,1.18.5,1.85,1.82-1.01.5-1.68-1.16-1.85v-2.52l.99-1.34,2.31-3.53,1.32-1.51,2.15.5,2.31-1.68,3.14-3.53,2.31-4.03.33-5.88.5-5.21v-4.87l-1.16-3.19.99-1.51,1.4-.76-1.9-11.18-2.97-20.13h0Z"/>
    <path id="ID" class="cls-4" d="M129.85,178.56l4.85-19.2,4.44-18.42,1.4-4.4,2.57-6.18-1.28-2.38-2.57.12-.82-1.07.47-1.19.35-3.21,4.55-5.7,1.87-.48,1.17-1.19.58-3.33.93-.71,3.97-6.06,3.97-4.52.23-3.92-3.5-2.73-1.34-4.58.41-10.04,3.74-17.11,4.55-21.63,3.85-14.02.78-3.95,14.42,2.8-4.57,22.19,3.5,7.84-1.4,4.75,1.87,4.75,3.27,1.43,3.74,10.7,3.74,3.8.47,1.19,3.5,1.19.47,2.14-7.24,18.3v2.61l2.57,3.33h.93l4.9-3.09.7-1.19,1.63.71-.23,5.47,2.8,13.07,3.04,2.61.93.71,1.87,2.38-.47,3.57.7,3.57,1.17.95,2.33-2.38h2.8l3.27,1.66,2.57-.95h4.2l3.74,1.66,2.8-.48.47-3.09,3.04-.71,1.4,1.43.47,3.33,2.69,2.14-3.85,25.43-5.25,31.5-4.9-.83-8.52-1.43-10.51-1.9-12.26-2.14-12.96-2.44-8.17-2.08-9.46-1.9-9.92-2.02-21.43-4.69h0Z"/>
    <path id="AZ" class="cls-4" d="M126.88,396.83l-2.68,2.24-.33,1.51.5,1.01,19.32,11.09,12.38,7.9,15.02,8.91,17.17,10.42,12.55,2.52,27.3,3.65,2.09-13.84,3.83-27.99,7.11-55.31,4.35-32.03-26.27-3.99-27.78-4.75-34.14-6.57-2.98,18.81-.47.48-1.75,2.73-2.57-.12-1.28-2.85-2.8-.36-.93-1.19h-.93l-.93.59-1.98,1.07-.12,7.25-.23,1.78-.58,13.07-1.52,2.26-.58,3.45,2.8,5.11,1.28,6.06.82,1.07,1.05.59-.12,2.38-1.63,1.43-3.5,1.78-1.98,2.02-1.52,3.8-.58,5.11-2.92,2.85-2.1.71-.12,6.06-.47,1.78.47.83,3.74.59-.58,2.85-1.52,2.26-3.85.95h0Z"/>
    <path id="UT" class="cls-4" d="M245.37,317.2l-26.15-4.28-27.78-4.75-34.22-6.43,2.11-10.69,3.27-15.81,3.39-17.23,2.22-14.14,1.98-9.27,3.85-21.27,3.62-18.18,1.14-5.79,12.99,2.35,12.26,2.14,10.51,1.9,8.52,1.43,4.9.83-1.68,11.05-1.71,12.36,6.66.97,17.25,2.38,9.37,1.22-3.16,23.01-3.27,23.29-3.83,29.1-1.54,11.55-.7,4.28Z"/>
    <g id="STATE_ABV_BRIDGE" data-name="STATE ABV BRIDGE">
      <g>
        <path class="cls-3" d="M47.64,273.65c0-2.94,1.77-5.23,4.75-5.23,2.34,0,3.75,1.34,4.02,3.19h-1.23c-.24-1.25-1.23-2.1-2.82-2.1-2.2,0-3.43,1.78-3.43,4.13s1.36,4.1,3.45,4.1c1.89,0,2.79-1.29,2.91-2.76h1.25c-.01.99-.49,2.12-1.2,2.82-.7.69-1.72,1.05-3,1.05-2.84,0-4.69-2.17-4.69-5.21Z"/>
        <path class="cls-3" d="M60.62,268.65h1.41l3.7,10.02h-1.37l-1.06-3.05h-3.99l-1.08,3.05h-1.29l3.68-10.02ZM59.67,274.59h3.28l-1.15-3.36c-.2-.56-.45-1.41-.45-1.41h-.03s-.27.84-.46,1.41l-1.19,3.36Z"/>
      </g>
      <g>
        <path class="cls-3" d="M70.64,124.65c0-3,1.88-5.23,4.9-5.23s4.9,2.23,4.9,5.23-1.88,5.22-4.9,5.22-4.9-2.23-4.9-5.22ZM79.16,124.65c0-2.35-1.26-4.13-3.61-4.13s-3.61,1.78-3.61,4.13,1.26,4.12,3.61,4.12,3.61-1.77,3.61-4.12Z"/>
        <path class="cls-3" d="M81.94,119.65h4.68c1.76,0,2.96,1.11,2.96,2.75,0,1.22-.53,2.09-1.74,2.48v.04c1.02.36,1.34,1.06,1.44,2.55.11,1.61.28,2.02.46,2.14v.06h-1.36c-.21-.18-.25-.56-.36-2.24-.1-1.47-.69-1.99-2.03-1.99h-2.79v4.23h-1.26v-10.02ZM83.2,124.41h2.97c1.4,0,2.1-.7,2.1-1.83,0-1.22-.56-1.83-2.03-1.83h-3.04v3.67Z"/>
      </g>
      <g>
        <path class="cls-3" d="M88.28,41.65h1.32l1.58,6.51c.17.67.38,1.69.38,1.69h.03s.24-1.06.42-1.72l1.81-6.49h1.36l1.75,6.49c.18.67.41,1.72.41,1.72h.03s.24-1.08.39-1.69l1.67-6.51h1.27l-2.79,10.02h-1.2l-1.83-7.06c-.15-.59-.36-1.53-.36-1.53h-.03s-.21.94-.38,1.53l-1.96,7.06h-1.26l-2.59-10.02Z"/>
        <path class="cls-3" d="M103.93,41.65h1.41l3.7,10.02h-1.37l-1.06-3.05h-3.99l-1.08,3.05h-1.29l3.68-10.02ZM102.98,47.59h3.28l-1.15-3.36c-.2-.56-.45-1.41-.45-1.41h-.03s-.27.84-.46,1.41l-1.19,3.36Z"/>
      </g>
      <g>
        <path class="cls-3" d="M173.05,144.65h1.26v10.02h-1.26v-10.02Z"/>
        <path class="cls-3" d="M176.21,144.65h3.64c3.01,0,4.44,2.05,4.44,5.04s-1.53,4.97-4.54,4.97h-3.54v-10.02ZM179.71,153.56c2.35,0,3.29-1.51,3.29-3.87s-.84-3.95-3.19-3.95h-2.34v7.82h2.24Z"/>
      </g>
      <g>
        <path class="cls-3" d="M196.85,260.43v-6.78h1.26v6.65c0,1.71.97,2.44,2.62,2.44s2.54-.73,2.54-2.44v-6.65h1.26v6.78c0,2.42-1.7,3.39-3.84,3.39s-3.84-.97-3.84-3.39Z"/>
        <path class="cls-3" d="M205.6,253.65h7.93v1.11h-3.33v8.91h-1.26v-8.91h-3.33v-1.11Z"/>
      </g>
      <g>
        <path class="cls-3" d="M266.02,87.65h1.61l3.25,8.32h.03l3.22-8.32h1.64v10.02h-1.21v-8.24h-.03s-.27.78-.45,1.26l-2.75,6.98h-.97l-2.75-6.98c-.2-.5-.45-1.26-.45-1.26h-.03v8.24h-1.13v-10.02Z"/>
        <path class="cls-3" d="M277.01,87.65h7.93v1.11h-3.33v8.91h-1.26v-8.91h-3.33v-1.11Z"/>
      </g>
      <g>
        <path class="cls-3" d="M396.02,91.65h1.33l4.57,6.96c.34.52.73,1.29.73,1.29h.03v-8.25h1.18v10.02h-1.29l-4.59-6.98c-.32-.49-.74-1.25-.74-1.25h-.03v8.22h-1.18v-10.02Z"/>
        <path class="cls-3" d="M405.72,91.65h3.64c3.01,0,4.44,2.05,4.44,5.04s-1.53,4.97-4.54,4.97h-3.54v-10.02ZM409.22,100.56c2.35,0,3.29-1.51,3.29-3.87s-.84-3.95-3.19-3.95h-2.34v7.82h2.24Z"/>
      </g>
      <g>
        <path class="cls-3" d="M394.39,165.27h1.23c.17,1.69,1.2,2.58,3.1,2.58,1.39,0,2.38-.63,2.38-1.88,0-1.37-1.2-1.69-3-2.09-1.76-.39-3.28-.9-3.28-2.79,0-1.65,1.37-2.65,3.4-2.65,2.51,0,3.54,1.27,3.8,3.12h-1.19c-.18-1.43-1.11-2.14-2.58-2.14-1.36,0-2.26.57-2.26,1.61,0,1.13,1.12,1.47,2.62,1.77,1.95.39,3.73.87,3.73,3.12,0,1.88-1.53,2.93-3.68,2.93-2.82,0-4.16-1.57-4.27-3.59Z"/>
        <path class="cls-3" d="M403.78,158.65h3.64c3.01,0,4.44,2.05,4.44,5.04s-1.53,4.97-4.54,4.97h-3.54v-10.02ZM407.29,167.56c2.35,0,3.29-1.51,3.29-3.87s-.84-3.95-3.19-3.95h-2.34v7.82h2.24Z"/>
      </g>
      <g>
        <path class="cls-3" d="M406.02,220.65h1.33l4.57,6.96c.34.52.73,1.29.73,1.29h.03v-8.25h1.18v10.02h-1.29l-4.59-6.98c-.32-.49-.74-1.25-.74-1.25h-.03v8.22h-1.18v-10.02Z"/>
        <path class="cls-3" d="M415.72,220.65h7.07v1.11h-5.81v3.17h5.28v1.06h-5.28v3.52h5.98v1.16h-7.24v-10.02Z"/>
      </g>
      <g>
        <path class="cls-3" d="M516.05,210.65h1.26v10.02h-1.26v-10.02Z"/>
        <path class="cls-3" d="M522.1,210.65h1.42l3.7,10.02h-1.37l-1.06-3.05h-3.99l-1.08,3.05h-1.29l3.68-10.02ZM521.15,216.59h3.28l-1.15-3.36c-.2-.56-.45-1.41-.45-1.41h-.03s-.27.84-.46,1.41l-1.19,3.36Z"/>
      </g>
      <g>
        <path class="cls-3" d="M491.02,125.65h1.61l3.25,8.32h.03l3.22-8.32h1.64v10.02h-1.21v-8.24h-.03s-.27.78-.45,1.26l-2.75,6.98h-.97l-2.75-6.98c-.2-.5-.45-1.26-.45-1.26h-.03v8.24h-1.13v-10.02Z"/>
        <path class="cls-3" d="M502.64,125.65h1.33l4.57,6.96c.34.52.73,1.29.73,1.29h.03v-8.25h1.18v10.02h-1.29l-4.59-6.98c-.32-.49-.74-1.25-.74-1.25h-.03v8.22h-1.18v-10.02Z"/>
      </g>
      <g>
        <path class="cls-3" d="M567.28,153.65h1.32l1.58,6.51c.17.67.38,1.69.38,1.69h.03s.24-1.06.42-1.72l1.81-6.49h1.36l1.75,6.49c.18.67.41,1.72.41,1.72h.03s.24-1.08.39-1.69l1.67-6.51h1.28l-2.79,10.02h-1.21l-1.83-7.06c-.15-.59-.36-1.53-.36-1.53h-.03s-.21.94-.38,1.53l-1.96,7.06h-1.26l-2.59-10.02Z"/>
        <path class="cls-3" d="M580.84,153.65h1.26v10.02h-1.26v-10.02Z"/>
      </g>
      <g>
        <path class="cls-3" d="M640.05,237.98h1.26v10.02h-1.26v-10.02Z"/>
        <path class="cls-3" d="M643.21,237.98h1.33l4.57,6.96c.34.52.73,1.29.73,1.29h.03v-8.25h1.18v10.02h-1.29l-4.59-6.98c-.32-.49-.74-1.25-.74-1.25h-.03v8.22h-1.18v-10.02Z"/>
      </g>
      <g>
        <path class="cls-3" d="M687.64,242.99c0-3,1.88-5.23,4.9-5.23s4.9,2.23,4.9,5.23-1.88,5.22-4.9,5.22-4.9-2.23-4.9-5.22ZM696.16,242.99c0-2.35-1.26-4.13-3.61-4.13s-3.61,1.78-3.61,4.13,1.26,4.12,3.61,4.12,3.61-1.77,3.61-4.12Z"/>
        <path class="cls-3" d="M698.94,237.99h1.26v4.26h5.35v-4.26h1.26v10.02h-1.26v-4.73h-5.35v4.73h-1.26v-10.02Z"/>
      </g>
      <g>
        <path class="cls-3" d="M669.02,303.65h1.26v4.97l4.93-4.97h1.58l-4.05,4.01,4.38,6.01h-1.47l-3.77-5.15-1.61,1.61v3.54h-1.26v-10.02Z"/>
        <path class="cls-3" d="M680.87,309.42l-3.63-5.77h1.4l2.87,4.76h.03l2.91-4.76h1.34l-3.67,5.8v4.22h-1.26v-4.24Z"/>
      </g>
      <g>
        <path class="cls-3" d="M643.39,341.65h7.93v1.11h-3.33v8.91h-1.26v-8.91h-3.33v-1.11Z"/>
        <path class="cls-3" d="M652.56,341.65h1.33l4.57,6.96c.34.52.73,1.29.73,1.29h.03v-8.25h1.18v10.02h-1.29l-4.59-6.98c-.32-.49-.74-1.25-.74-1.25h-.03v8.22h-1.18v-10.02Z"/>
      </g>
      <g>
        <path class="cls-3" d="M656.02,173.65h1.61l3.25,8.32h.03l3.22-8.32h1.64v10.02h-1.21v-8.24h-.03s-.27.78-.45,1.26l-2.75,6.98h-.97l-2.75-6.98c-.2-.5-.45-1.26-.45-1.26h-.03v8.24h-1.13v-10.02Z"/>
        <path class="cls-3" d="M667.67,173.65h1.26v10.02h-1.26v-10.02Z"/>
      </g>
      <g>
        <path class="cls-3" d="M591.05,237.98h1.26v10.02h-1.26v-10.02Z"/>
        <path class="cls-3" d="M594.21,237.98h1.26v8.85h5.25v1.16h-6.51v-10.02Z"/>
      </g>
      <g>
        <path class="cls-3" d="M181.91,366.65h1.41l3.7,10.02h-1.37l-1.06-3.05h-3.99l-1.08,3.05h-1.29l3.68-10.02ZM180.95,372.59h3.28l-1.15-3.36c-.2-.56-.45-1.41-.45-1.41h-.03s-.27.84-.46,1.41l-1.19,3.36Z"/>
        <path class="cls-3" d="M187.57,375.46l6-7.7v-.04h-5.65v-1.06h7.2v.98l-6.08,7.86v.04h6.32v1.13h-7.79v-1.2Z"/>
      </g>
      <g>
        <path class="cls-3" d="M108.02,235.65h1.33l4.57,6.96c.34.52.73,1.29.73,1.29h.03v-8.25h1.18v10.02h-1.29l-4.59-6.98c-.32-.49-.74-1.25-.74-1.25h-.03v8.22h-1.18v-10.02Z"/>
        <path class="cls-3" d="M116.92,235.65h1.36l2.47,7.45c.15.46.39,1.34.39,1.34h.03s.24-.9.39-1.34l2.44-7.45h1.32l-3.52,10.02h-1.39l-3.49-10.02Z"/>
      </g>
      <g>
        <path class="cls-3" d="M300.02,559.65h1.26v4.26h5.35v-4.26h1.26v10.02h-1.26v-4.73h-5.35v4.73h-1.26v-10.02Z"/>
        <path class="cls-3" d="M309.79,559.65h1.26v10.02h-1.26v-10.02Z"/>
      </g>
      <g>
        <path class="cls-3" d="M101.91,479.65h1.41l3.7,10.02h-1.37l-1.06-3.05h-3.99l-1.08,3.05h-1.29l3.68-10.02ZM100.95,485.59h3.28l-1.15-3.36c-.2-.56-.45-1.41-.45-1.41h-.03s-.27.84-.46,1.41l-1.19,3.36Z"/>
        <path class="cls-3" d="M108.09,479.65h1.26v4.97l4.93-4.97h1.58l-4.05,4.01,4.38,6.01h-1.47l-3.77-5.15-1.61,1.61v3.54h-1.26v-10.02Z"/>
      </g>
      <g>
        <path class="cls-3" d="M525.48,299.85v-10.02h2l2.37,7.1c.22.66.38,1.16.48,1.48.11-.36.29-.9.53-1.61l2.4-6.97h1.78v10.02h-1.28v-8.39l-2.91,8.39h-1.2l-2.9-8.53v8.53h-1.28Z"/>
        <path class="cls-3" d="M536.78,294.97c0-1.66.45-2.97,1.34-3.91s2.05-1.41,3.46-1.41c.92,0,1.76.22,2.5.66s1.31,1.06,1.7,1.85c.39.79.58,1.69.58,2.69s-.21,1.93-.62,2.73-.99,1.41-1.74,1.82-1.56.62-2.43.62c-.94,0-1.79-.23-2.53-.68s-1.31-1.08-1.69-1.87-.57-1.62-.57-2.5ZM538.15,294.99c0,1.21.33,2.16.97,2.85.65.69,1.46,1.04,2.44,1.04s1.82-.35,2.46-1.05c.65-.7.97-1.7.97-2.99,0-.82-.14-1.53-.41-2.14-.28-.61-.68-1.08-1.21-1.42-.53-.33-1.13-.5-1.79-.5-.94,0-1.75.32-2.42.97-.68.65-1.01,1.72-1.01,3.23Z"/>
      </g>
    </g>
  </g>
</svg>