<?xml version="1.0" encoding="UTF-8"?>
<svg id="Layer_1" data-name="Layer 1" xmlns="http://www.w3.org/2000/svg" viewBox="0 0 96.04 43.28">
  <defs>
    <style>
      .cls-1 {
        fill: #fff;
      }
    </style>
  </defs>
  <path class="cls-1" d="M21.61,43.28c-1.41-1.07-2.87-2.08-4.22-3.21-5.09-4.24-8.71-9.65-12.06-15.26C2.9,20.73.99,16.44.12,11.76c-.47-2.53.33-5.51,3.45-7.54,2.89-1.88,6.13-2.78,9.47-3.35C16.86.22,20.71-.22,24.58.12c4.63.4,9.28.89,13.56,2.9,2.66,1.24,5.16,2.82,5.56,6.02.22,1.72.08,3.62-.43,5.27-.89,2.9-2.2,5.67-3.43,8.73-3.67-3.73-8.26-5.21-12.53-7.24-.47-.22-1.01-.39-1.34-.75-.48-.52-1.16-1.24-1.08-1.78.09-.62.81-1.37,1.44-1.66,1.52-.69,3.15-.54,4.63.18,1.52.75,2.93,1.71,4.57,2.68,1.96-1.75,4.08-3.64,6.26-5.58-2.5-2.99-5.6-4.83-9.27-5.61-4.63-.98-9.12-.7-13.16,2.1-5.65,3.92-5.88,11.02-.56,15.38,2.81,2.3,6.11,3.65,9.35,5.15,1.11.52,2.21,1.11,3.19,1.83,2.05,1.51,1.73,3.56-.64,4.56-1.77.74-3.53.5-5.24-.15-1.03-.39-2.03-.9-2.97-1.48-.9-.56-1.71-1.28-2.72-2.05-.99.94-2.05,1.93-3.09,2.96-1.04,1.03-2.05,2.1-3.18,3.26,3.21,3.71,7.4,5.51,12.39,6.13-1.12.83-2.11,1.58-3.1,2.32h-1.2Z"/>
  <path class="cls-1" d="M68.41,23.15c.02-4.65,3.74-8.26,8.49-8.23,4.44.02,8.27,3.92,8.19,8.34-.08,4.57-3.87,8.28-8.43,8.27-4.55,0-8.27-3.78-8.25-8.37ZM76.79,18.46c-2.66-.03-4.57,1.93-4.58,4.71-.01,2.75,1.79,4.74,4.36,4.81,2.69.07,4.65-1.95,4.64-4.79,0-2.78-1.8-4.7-4.42-4.73Z"/>
  <path class="cls-1" d="M59.42,17.39c-.79.77-1.52,1.5-2.21,2.18-.85-.41-1.66-.9-2.53-1.19-.71-.23-1.5-.1-1.81.71-.33.85.38,1.2.98,1.53,1.24.69,2.54,1.31,3.75,2.05,1.75,1.07,2.39,2.71,2.1,4.69-.29,1.96-1.52,3.17-3.36,3.78-2.84.95-5.78.07-7.65-2.32.73-.8,1.48-1.61,2.09-2.28,1.12.54,2.1,1.12,3.16,1.47.89.29,1.84.02,2.2-.94.34-.92-.4-1.46-1.1-1.88-1.22-.72-2.52-1.33-3.7-2.12-1.77-1.19-2.49-3.11-1.97-4.82.61-1.99,2.4-3.3,4.57-3.35,2.35-.05,3.74.57,5.49,2.48Z"/>
  <path class="cls-1" d="M62.09,9.47h3.85v5.8h2.32v3.24h-2.28v12.45h-3.76v-12.39c-.75-.03-1.37-.06-2.08-.1v-3.12h1.95v-5.89Z"/>
  <path class="cls-1" d="M86.72,9.17h3.6v21.81h-3.6V9.17Z"/>
  <path class="cls-1" d="M92.42,9.17h3.62v21.82h-3.62V9.17Z"/>
</svg>