<?xml version="1.0" encoding="UTF-8"?>
<svg id="Layer_1" data-name="Layer 1" xmlns="http://www.w3.org/2000/svg" viewBox="0 0 134.44 43.2">
  <defs>
    <style>
      .cls-1 {
        fill: #fff;
      }
    </style>
  </defs>
  <path class="cls-1" d="M69.68,1.58c-1.65,6.47-4.35,19.38-4.02,19.85,1.06,1.15,3.94-2.04,3.94-2.04l-.08,1.39c-1.79,1.87-7.93,7.54-6.79.23-1.25,1.39-2.34,2.26-3.52,3.05-2.31,1.57-4.44-.3-3.23-7.21.65-3.71,4.6-6.55,8.05-6.96.51-.07.44-.04.76-.05,1.32-6.56,1.4-6.32-1.32-5l.08-.92c2.17-1.11,5.1-2.24,5.71-2.53.46-.22.4.18.4.18ZM59.99,12.94c-1.8,3.81-1.54,9.76,0,9.14,1.11-.44,2.25-1.55,2.79-2.91.41-1.42,1.48-7.1,1.48-7.1,0,0-3.5-.53-4.27.87Z"/>
  <path class="cls-1" d="M74.03,15.42c-.67.51-1.84,1.45-2.74,2.16-.63-.59-1.17-1.04-2.08-1.88l2.74-2.16,2.08,1.88Z"/>
  <path class="cls-1" d="M52.01,33.16c-1.73,4.35,2.32,6.54,3.47,6.99,4.63,1.22,9.95-1.04,13.01-4.64h1.72c-2.76,4.41-7.51,7.77-12.88,7.69-4.25-.2-7.09-3.03-7.08-6.67,0-2.2,1.18-3.35,1.76-3.37Z"/>
  <rect class="cls-1" x="14.1" y="35.26" width="120.2" height=".46"/>
  <path class="cls-1" d="M15.08,33.4c-.16-.01-.31-.03-.47-.03s-.31.02-.47.03v-4.17h2.38c-.01.08-.03.18-.03.26s.02.18.03.26c-.38-.04-.79-.09-1.45-.09v1.31h.66c.24,0,.49-.02.76-.05-.01.08-.03.18-.03.26s.02.18.03.26c-.26-.02-.51-.05-.76-.05h-.66v2.01Z"/>
  <path class="cls-1" d="M19.54,29.23c.16.01.31.03.47.03s.31-.02.47-.03v4.17c-.16-.01-.31-.03-.47-.03s-.31.02-.47.03v-4.17Z"/>
  <path class="cls-1" d="M23.58,29.23h.62c.89.94,1.82,1.87,2.7,2.84v-2.84c.08.01.17.02.25.02s.17,0,.25-.02v4.17h-.53c-.73-.79-1.4-1.54-2.11-2.26l-.68-.69v2.94c-.08,0-.17-.02-.25-.02s-.17.01-.25.02v-4.16Z"/>
  <path class="cls-1" d="M32.87,29.23c-.01.08-.03.18-.03.26s.02.18.03.26c-.38-.05-.81-.1-1.45-.09v1.31h.65c.28,0,.54-.02.77-.05-.01.08-.03.18-.03.26s.02.18.03.26c-.23-.03-.49-.05-.77-.05h-.65v1.54c.64,0,1.06-.04,1.45-.08-.01.08-.03.18-.03.26s.02.18.03.26h-2.38v-4.14h2.38Z"/>
  <path class="cls-1" d="M42.65,32.69l-.14.52c-.38.19-.82.26-1.24.26-1.34,0-2.35-.8-2.35-2.05,0-1.59,1.13-2.31,2.49-2.31.41,0,.91.1,1.28.3-.06.21-.09.41-.14.63h-.09c-.23-.33-.63-.56-1.04-.56-1.04,0-1.46.97-1.46,1.86,0,1.04.53,1.77,1.49,1.77.39,0,.84-.19,1.12-.46l.08.04Z"/>
  <path class="cls-1" d="M45.72,29.23c.16.01.31.03.47.03s.31-.02.47-.03v1.73c0,.33-.01.83.04,1.15.06.3.11.49.33.7.2.18.44.26.71.26.58,0,.89-.21,1.11-.74.11-.27.11-.96.11-1.26v-1.84c.08.01.17.02.25.02s.17,0,.25-.02v2.16c-.02.69-.01,1.33-.66,1.76-.34.24-.77.32-1.18.32-.76,0-1.58-.23-1.81-1.02-.07-.24-.1-.5-.1-.75v-2.48Z"/>
  <path class="cls-1" d="M54.53,30.01c-.13-.32-.36-.53-.72-.53-.49,0-.69.25-.69.6,0,.82,1.9.67,1.9,2.06,0,.78-.69,1.34-1.66,1.34-.34,0-.71-.08-1.01-.26.08-.26.14-.51.18-.77h.12c.09.42.43.67.86.67.39,0,.73-.21.73-.63,0-.97-1.86-.62-1.86-2.08,0-.7.49-1.28,1.45-1.28.45,0,.85.16.99.29-.08.19-.14.4-.2.6h-.09Z"/>
  <path class="cls-1" d="M59.71,33.4c-.16-.01-.31-.03-.47-.03s-.31.02-.47.03v-3.74c-.44,0-.84.04-1.16.08.01-.08.03-.17.03-.26,0-.08-.02-.17-.03-.25h3.22c-.01.08-.03.17-.03.25,0,.09.02.18.03.26-.37-.04-.74-.08-1.12-.08v3.74Z"/>
  <path class="cls-1" d="M65.54,33.48c-1.38,0-2.32-.79-2.32-2.17,0-1.21.91-2.19,2.47-2.19,1.78,0,2.31,1.22,2.32,2.16,0,1.19-.93,2.19-2.47,2.19ZM64.26,31.49c0,.79.37,1.63,1.31,1.63s1.4-.94,1.4-1.94c0-.78-.38-1.68-1.31-1.68-.87,0-1.39.64-1.39,2Z"/>
  <path class="cls-1" d="M74.93,29.23c.09.01.18.03.26.03s.18-.02.27-.03c.19,1.63.34,2.96.55,4.17-.18-.01-.34-.03-.52-.03s-.33.02-.51.03c-.05-.97-.18-1.9-.27-2.83-.48.93-.94,1.86-1.39,2.8-.08-.01-.16-.02-.24,0-.4-.84-.89-1.78-1.37-2.73-.14,1.07-.24,1.91-.26,2.77-.1-.01-.19-.03-.29-.03s-.19.02-.29.03c.23-1.22.43-2.63.64-4.17.09.01.17.03.26.03s.18-.02.26-.03c.45.95.94,1.9,1.44,2.86.45-.86.98-1.82,1.46-2.86Z"/>
  <path class="cls-1" d="M86.26,32.69l-.14.52c-.37.19-.82.26-1.24.26-1.34,0-2.35-.8-2.35-2.05,0-1.59,1.13-2.31,2.49-2.31.41,0,.91.1,1.28.3-.06.21-.09.41-.14.63h-.09c-.23-.33-.63-.56-1.04-.56-1.04,0-1.46.97-1.46,1.86,0,1.04.53,1.77,1.49,1.77.39,0,.84-.19,1.12-.46l.08.04Z"/>
  <path class="cls-1" d="M89.69,32.13c-.16.46-.32.84-.44,1.26-.1,0-.19-.02-.29-.02s-.2.01-.3.02l1.79-4.21c.08.01.16.02.24.02s.16,0,.24-.02l1.75,4.22c-.18-.01-.36-.03-.54-.03s-.36.02-.54.03c-.14-.45-.28-.86-.44-1.27h-1.46ZM91,31.76l-.56-1.42-.59,1.42h1.14Z"/>
  <path class="cls-1" d="M95.6,29.23h1.61c.63,0,1.24.21,1.24.92,0,.57-.49.9-1.03.97v.05c.46.04,1.13.25,1.13,1,0,.84-.78,1.19-1.51,1.19h-1.45v-4.14ZM96.53,31.02c.27,0,.51.02.72-.15.19-.16.27-.39.27-.63,0-.44-.26-.67-.67-.67-.1,0-.19,0-.32.02v1.43ZM96.53,33.02h.31c.34,0,.74-.29.74-.8,0-.67-.38-.9-1.05-.85v1.65Z"/>
  <path class="cls-1" d="M101.79,29.23c.16.01.31.03.47.03s.31-.02.47-.03v4.17c-.16-.01-.31-.03-.47-.03s-.31.02-.47.03v-4.17Z"/>
  <path class="cls-1" d="M106.55,29.23h.62c.89.94,1.82,1.87,2.7,2.84v-2.84c.08.01.17.02.25.02s.17,0,.25-.02v4.17h-.53c-.73-.79-1.4-1.54-2.11-2.26l-.68-.69v2.94c-.08,0-.17-.02-.25-.02s-.17.01-.25.02v-4.16Z"/>
  <path class="cls-1" d="M116.33,29.23c-.01.08-.03.18-.03.26s.02.18.03.26c-.38-.05-.81-.1-1.45-.09v1.31h.65c.28,0,.54-.02.77-.05-.01.08-.03.18-.03.26s.02.18.03.26c-.23-.03-.49-.05-.77-.05h-.65v1.54c.64,0,1.06-.04,1.45-.08-.01.08-.03.18-.03.26s.02.18.03.26h-2.38v-4.14h2.38Z"/>
  <path class="cls-1" d="M121.42,33.4c-.16-.01-.31-.03-.47-.03s-.31.02-.47.03v-3.74c-.44,0-.84.04-1.16.08.01-.08.03-.17.03-.26,0-.08-.02-.17-.03-.25h3.22c-.01.08-.03.17-.03.25,0,.09.02.18.03.26-.37-.04-.74-.08-1.12-.08v3.74Z"/>
  <path class="cls-1" d="M125.65,29.23h1.33c.29,0,.75-.01,1.01.12.36.18.54.46.54.87,0,.6-.39.97-.98,1.09.34.58.73,1.14,1.11,1.71l.24.38c-.19-.01-.38-.03-.57-.03s-.38.02-.56.03l-.74-1.28c-.09-.16-.27-.44-.41-.67h-.04v1.95c-.16-.01-.31-.03-.47-.03s-.31.02-.47.03v-4.17ZM126.59,31.19c.66.06.98-.24.98-.87,0-.09,0-.18-.03-.3-.1-.5-.57-.46-.95-.46v1.63Z"/>
  <path class="cls-1" d="M132.19,31.64c-.47-.78-.88-1.6-1.35-2.41.19.01.38.03.56.03s.38-.02.56-.03c.17.33.36.72.53,1.08.17.34.32.64.39.73.24-.29.7-1.29.94-1.81.1.01.2.02.31.02.1,0,.2,0,.3-.02-.45.78-.92,1.51-1.31,2.29v1.88c-.16-.01-.31-.03-.47-.03s-.31.02-.47.03v-1.76Z"/>
  <rect class="cls-1" x="14.1" y="26.83" width="120.2" height=".46"/>
  <path class="cls-1" d="M14.21,4.16c1.85,5.12,2.29,8.47,3.1,14.54,1.57-2.26,2.86-4.51,4.31-6.78-.55-3.1-1.25-6.9,1.33-9.49,4.18-4.17,6.53-1.29,5.15,1.25-1.66,2.97-2.01,3.64-3.67,6.35.51,3.18,1.27,6.47,1.91,9.53,2-2.74,3.69-5.96,5.22-8.98-1.79-6.05,2.07-12.27,3.76-9.28,1.12,2-1.39,6.7-2.25,9.64.32.9.74,1.5,1.28,2.16,1.33-2.71,9.61-6.16,8.97,1.64-.24,2.98-1.14,6.79-3.1,7.92-1.34,1.06-4.26,2.27-5.37,1.88-1.88-.76-3.13-5.05-1.5-9.16.28-.71.42-1.12.36-1.19-.56-.61-1.01-1.22-1.36-1.88-2.55,4.35-4.92,8.68-8.11,12.78l-.27-.08c-.69-3.89-1.26-6.75-1.96-11.02-2.36,3.59-4.51,7.08-7.06,10.9h-.31c-1.3-14.34-3.02-20.7-5.03-22.17-2.45-1.78-6.42-.11-7.28,3.86-1.46,6.7,3.53,10.26,3.53,10.26C1.83,17.35-.98,10.65.32,5.73,2.51-.56,12.11-2.24,14.21,4.16ZM25.4,1.85c-1.97-.17-1.56,4.42-1.28,6.18,1.5-2.22,3.21-6.02,1.28-6.18ZM35.83,16.71c-.55,3.09-.02,5.77,1.19,5.98,1.21.21,2.63-2.12,3.18-5.21.55-3.09.02-5.77-1.19-5.98-1.21-.21-2.63,2.12-3.18,5.21Z"/>
  <path class="cls-1" d="M54.4,11.61c1.06,3.25.09,7.32-1.19,9.65-.94,1.71-3.29,2.72-5.33,3.37-1.25.27-2.27-.47-2.82-1.41-1.65-3.57-.86-8.27,1.88-11.09,1.72-1.73,6.34-3.45,7.46-.51ZM47.39,16.71c-.55,3.09-.02,5.77,1.19,5.98,1.21.21,2.63-2.12,3.18-5.21.55-3.09.02-5.77-1.19-5.98-1.21-.21-2.63,2.12-3.18,5.21Z"/>
  <path class="cls-1" d="M128.84,12.3c-1.1.73-1.63,2.13-1.86,4.8,2.39-1.66,4.5-3.46,4.23-4.51-.33-.87-1.42-.83-2.37-.29ZM123.69,21.53c-2.43,1.72-7.55,6.09-6.02-.39-1.59,1.67-2.54,2.35-3.72,3.14-2.13,1.43-4.2-.77-3.05-7.42.64-3.71,4.6-6.55,8.05-6.96.51-.07.54-.04.86-.05,1.32-6.56,1.6-6.54-1.49-4.78l.16-1.14c2.17-1.11,5.1-2.24,5.71-2.53.46-.22.4.18.4.18-1.65,6.47-4.06,18.22-4.12,19.95-.05,1.57,3.13-1.06,3.13-1.06-.01-6.8,3.21-9.28,7.04-10.43,3.2-.77,4.11,1.62,2.83,2.96-2.07,2.25-4.07,3.89-6.6,5.98-.12,1.29.14,3.29,1.33,3.57,1.65.22,3.75-1.66,5.2-2.95.1.61-.1,1.29-.13,1.54-6.26,5.85-9.12,3.34-9.59.39ZM115.13,12.81c-2.81,4.5-1.56,10.16-.1,9.19,1.74-1.15,2.39-1.9,2.69-2.94.41-1.42,1.48-7.07,1.48-7.07,0,0-3.11-.51-4.08.82Z"/>
  <path class="cls-1" d="M96.62.83l3.33-.83c-3.87,10.34-4.31,20.92-4.31,20.92,0,0-.39,1.03.64.39,1.03-.64,2.79-1.03,2.79-1.03-.05-1.91.44-3.87.44-3.87.74-3.87,3.97-5.49,3.97-5.49,0,0,3.63-2.01,5.14-.44,2.29,2.36.83,7.06.49,8.33-.34,1.27-1.05,2.63-1.86,3.53-.98,1.08-3.67,2.06-4.12,2.2-.44.15-1.22.1-1.22.1-2.11-.29-2.55-3.09-2.55-3.09-2.94.74-5.19,2.16-6.17,2.74-.98.59-.69-.69-.69-.69-.44-7.2,2.25-17.15,2.25-17.15-4.75,6.03-9.56,16.46-9.8,17-.24.54-.44.69-1.03,1.03-.59.34-.49-.78-.49-.78-1.32-12.4-3.18-17.64-3.18-17.64-1.08,10.78-5.05,20.92-5.05,20.92l-1.96-.2c4.36-8.28,5.34-23.13,5.29-24.45-.05-1.32-7.45.73-7.45.73l.49-1.32s2.25-1.03,6.57-1.62c4.31-.59,4.7,1.91,4.7,1.91,1.98,4.71,3.04,15.24,3.04,15.24,3.72-6.86,10.73-16.46,10.73-16.46ZM106.37,19.26s1.47-3.92.05-7.2c0,0-.69-1.52-2.11-.05-1.42,1.47-2.55,5.34-1.96,8.97,0,0,.49,1.76,1.42,1.76s1.96-1.57,2.6-3.48Z"/>
</svg>