<?xml version="1.0" encoding="UTF-8"?>
<svg id="Layer_1" data-name="Layer 1" xmlns="http://www.w3.org/2000/svg" width="229.59" height="42" viewBox="0 0 229.59 42">
  <defs>
    <style>
      .cls-1 {
        fill: #fff;
      }
    </style>
  </defs>
  <g>
    <path class="cls-1" d="M66.94,10.62c2.43,1.24,3.39,3.76,3.39,6.13,0,5.7-3.91,7.05-8.29,7.05-1.97,0-5.64,0-9.74-.67V.88c3.91-.46,7.36-.55,8.69-.55,4.37,0,8.04.77,8.04,5.61,0,1.85-.8,3.58-2.1,4.68M63.59,9.84c.55-.83,1.11-2.06,1.11-3.39,0-1.85-.83-2.52-3.39-2.52h-4.77v5.92h7.05ZM56.53,13.41v6.77h6.01c2.71,0,3.45-1.24,3.45-3.42,0-2.92-1.48-3.36-3.7-3.36,0,0-5.76,0-5.76,0Z"/>
    <path class="cls-1" d="M84.25,9.69h-6.25v13.73h-3.98V7.14c3.02-.49,7.46-.74,10.23-.74v3.3Z"/>
    <path class="cls-1" d="M86.52.73h4.04v3.88h-4.04V.73ZM86.55,6.8h3.97v16.63h-3.97V6.8Z"/>
    <path class="cls-1" d="M109.13,23.21c-3.7.49-6.65.58-8.2.58-4.13,0-7.24-.49-7.24-8.29,0-7.4,2.62-9.11,6.68-9.11,1.2,0,2.98.15,4.8.4V.73h3.94v22.48s.02,0,.02,0ZM101.83,9.69c-2.83,0-3.97.61-3.97,3.55v3.51c0,2.59.49,3.76,3.51,3.76h3.82v-10.81h-3.36Z"/>
    <path class="cls-1" d="M127.85,24.47c0,4.9-2.89,5.86-6.93,5.86-2.03,0-4.99-.21-6.62-.55v-2.74h6.84c1.94,0,2.77-.58,2.77-2.56v-1.14c-1.82.28-3.08.46-4.74.46-3.82,0-6.68-.8-6.68-8.2,0-7.8,3.11-9.21,7.24-9.21,1.88,0,4.44.15,8.13.58v17.48h0v.02ZM123.94,20.49v-10.81h-3.79c-3.01,0-3.51,1.17-3.51,3.76v3.51c0,2.92,1.14,3.55,3.97,3.55h3.33Z"/>
    <path class="cls-1" d="M135.27,18.15c0,1.76.92,2.37,2.77,2.37h7.24v2.68c-1.64.34-4.93.55-6.96.55-5.64,0-7.11-2.59-7.11-8.41s1.7-8.96,7.8-8.96c4.77,0,7.17,2.13,7.17,6.41v3.67h-10.91v1.7h0ZM142.29,11.96c0-.98-.4-2.4-2.46-2.4h-1.91c-1.97,0-2.65,1.73-2.65,2.71v1.21h7.02v-1.51h0Z"/>
    <path class="cls-1" d="M184.43,6.4c4.44,0,7.24,1.73,7.24,8.69s-3.14,8.72-7.24,8.72h-1.24c-4.28,0-7.27-1.42-7.27-8.44s2.92-8.96,7.27-8.96h1.24ZM183.62,9.54c-2.37,0-3.55.67-3.55,3.58v4.01c0,2.89,1.01,3.57,3.24,3.57h1.01c2.1,0,3.21-.95,3.21-3.57v-4.01c0-2.89-1.04-3.58-3.55-3.58h-.37.01Z"/>
    <path class="cls-1" d="M203.55,6.4c4.44,0,7.24,1.73,7.24,8.69s-3.14,8.72-7.24,8.72h-1.24c-4.28,0-7.27-1.42-7.27-8.44s2.92-8.96,7.27-8.96h1.24ZM202.75,9.54c-2.37,0-3.55.67-3.55,3.58v4.01c0,2.89,1.01,3.57,3.24,3.57h1.01c2.1,0,3.21-.95,3.21-3.57v-4.01c0-2.89-1.04-3.58-3.55-3.58h-.37.01Z"/>
    <path class="cls-1" d="M229.59,23.21c-3.7.49-6.65.58-8.2.58-4.13,0-7.24-.49-7.24-8.29,0-7.4,2.62-9.11,6.68-9.11,1.2,0,2.98.15,4.8.4V.73h3.95v22.48h.01ZM222.3,9.69c-2.83,0-3.97.61-3.97,3.55v3.51c0,2.59.49,3.76,3.51,3.76h3.82v-10.81h-3.36Z"/>
    <polygon class="cls-1" points="171.07 6.83 166.79 19.18 166.65 19.18 163.15 6.83 159.49 6.83 155.97 19.18 155.85 19.18 151.58 6.83 147.6 6.83 153.6 23.43 158.13 23.43 161.26 12.45 161.38 12.45 164.5 23.43 169.03 23.43 175.02 6.83 171.07 6.83"/>
    <path class="cls-1" d="M140.63,41.32s-1.67.35-2.79.35c-2.98,0-3.67-1.71-3.67-5.08,0-3.6.87-5.11,3.67-5.11,1.25,0,2.81.38,2.81.38l-.06,1.47s-1.67-.21-2.52-.21c-1.73,0-2.17.83-2.17,3.47s.34,3.45,2.23,3.45c.77,0,2.47-.23,2.47-.23l.04,1.52h-.01Z"/>
    <path class="cls-1" d="M147,31.65h3.3l2.33,9.89h-1.69l-.54-1.94h-3.59l-.48,1.94h-1.69l2.36-9.89h0ZM147.16,37.97h2.9l-1.1-4.78h-.67l-1.13,4.78h-.01Z"/>
    <path class="cls-1" d="M160.89,31.65c1.8,0,3,.71,3,2.48,0,1.32-.36,1.88-1.15,2.33.88.35,1.36.94,1.36,2.28,0,1.98-1.2,2.78-3.11,2.78h-3.82v-9.88h3.72ZM158.84,33.18v2.61h2.01c.92,0,1.32-.47,1.32-1.39s-.44-1.23-1.36-1.23h-1.97,0ZM158.84,37.3v2.67h2.07c.94,0,1.47-.35,1.47-1.37s-.71-1.3-1.5-1.3h-2.04Z"/>
    <rect class="cls-1" x="168.99" y="31.65" width="1.69" height="9.88"/>
    <polygon class="cls-1" points="175.97 31.65 178.68 31.65 181.83 39.43 182.07 39.43 182.07 31.65 183.75 31.65 183.75 41.52 181.11 41.52 177.89 33.73 177.64 33.73 177.64 41.52 175.97 41.52 175.97 31.65"/>
    <polygon class="cls-1" points="189.07 31.65 195.24 31.65 195.24 33.23 190.73 33.23 190.73 35.83 194.39 35.83 194.39 37.39 190.73 37.39 190.73 39.91 195.24 39.91 195.24 41.52 189.07 41.52 189.07 31.65"/>
    <polygon class="cls-1" points="198.94 31.65 206.08 31.65 206.08 33.25 203.37 33.25 203.37 41.52 201.68 41.52 201.68 33.25 198.94 33.25 198.94 31.65"/>
    <path class="cls-1" d="M214.06,38.15h-2.2v3.37h-1.67v-9.88h3.73c2.25,0,3.34.92,3.34,3.19,0,1.49-.54,2.34-1.56,2.84l1.56,3.86h-1.84l-1.36-3.37h0ZM213.92,33.23h-2.06v3.32h2.09c1.16,0,1.59-.68,1.59-1.7,0-1.09-.53-1.62-1.62-1.62"/>
    <polygon class="cls-1" points="225.93 41.52 224.24 41.52 224.24 37.29 221.21 31.65 223.08 31.65 225.07 35.42 227.04 31.65 228.91 31.65 225.93 37.3 225.93 41.52"/>
  </g>
  <path class="cls-1" d="M40.33,21.98s-6.06,1.88-8.97.96c-1.84-.57.09-2.78,2.97-4.21s6.55-2.62,6.55-2.62c0,0-.76-3.07-1.44-6.2-.48-2.21-.91-5.49-1.07-9.8,0-.13-.07-.13-.17-.08-1.77.91-5.6,2.9-9.19,4.11-2.26.75-5.44,1.83-5.44,1.83,0,0,.97,6.96-1.12,10.05-1.05,1.25-1.71.74-2.42-.34-1.47-2.51-.98-7.4-.98-7.4,0,0-2.02-.48-4.39-1.36-2.47-.91-6.07-2.34-6.07-2.34,0,0-.08,1.51-.64,4.07-.47,2.14-1.17,5.99-1.17,5.99,0,0,3.09,1.07,5.58,3.02,2.48,1.96,1.95,4.2.82,3.96-4.75-1.01-10.05.19-10.05.19l3.11,6.85s1.54-.35,3.39-.36c1.27,0,3.03.09,3.03.09,0,0,3.89-2.1,9.61-6.95,4.27-3.63,8.52-8.99,12.67-14.62.13-.17.14.08-.1.56-2.48,3.83-5.07,8.4-9.06,12.42-2.61,2.63-4.19,4.67-13.8,11.44-5.26,3.76-12,7.71-12,7.71v3.04c6.81-4.15,10.73-6.64,16.37-11.25.4-.33.43.98.56,2.23.15,1.55.06,4.35.06,4.35l8.54,1.13s.36-.25-.09-3.15c-.51-3.34-1.25-3.79-1.3-5-.04-.91,1.62-1.47,3.48-.75,2.79,1.05,7.08,5.09,7.08,5.09,0,0,2.4-1.02,4.83-1.77,2.74-.84,4.54-1.22,4.54-1.22,0,0-1.31-2.99-1.86-4.4-1.13-2.88-1.87-5.29-1.87-5.29h-.02Z"/>
</svg>