<?xml version="1.0" encoding="UTF-8"?>
<svg id="Layer_1" data-name="Layer 1" xmlns="http://www.w3.org/2000/svg" viewBox="0 0 239.87 43">
  <defs>
    <style>
      .cls-1 {
        fill: #fff;
      }
    </style>
  </defs>
  <g>
    <path class="cls-1" d="M77.92,10.24c2.42,1.23,3.37,3.74,3.37,6.1,0,5.67-3.89,7.02-8.25,7.02-1.96,0-5.61,0-9.69-.67V.55c3.89-.46,7.33-.55,8.65-.55,4.35,0,8,.77,8,5.58,0,1.84-.8,3.56-2.09,4.66M74.57,9.47c.55-.83,1.1-2.05,1.1-3.37,0-1.84-.83-2.51-3.37-2.51h-4.75v5.89h7.02ZM67.55,13.03v6.74h5.98c2.7,0,3.43-1.23,3.43-3.4,0-2.91-1.47-3.34-3.68-3.34h-5.73Z"/>
    <path class="cls-1" d="M95.15,9.32h-6.22v13.67h-3.96V6.78c3.01-.49,7.42-.74,10.18-.74v3.28Z"/>
    <path class="cls-1" d="M97.41.4h4.02v3.86h-4.02V.4ZM97.44,6.44h3.95v16.56h-3.95V6.44Z"/>
    <path class="cls-1" d="M119.92,22.78c-3.68.49-6.62.58-8.16.58-4.11,0-7.21-.49-7.21-8.25,0-7.36,2.61-9.07,6.65-9.07,1.19,0,2.97.15,4.78.4V.4h3.92v22.38ZM112.65,9.32c-2.82,0-3.95.61-3.95,3.53v3.49c0,2.58.49,3.74,3.49,3.74h3.8v-10.76h-3.34Z"/>
    <path class="cls-1" d="M138.56,24.04c0,4.88-2.88,5.83-6.9,5.83-2.02,0-4.97-.21-6.59-.55v-2.73h6.81c1.93,0,2.76-.58,2.76-2.55v-1.13c-1.81.28-3.07.46-4.72.46-3.8,0-6.65-.8-6.65-8.16,0-7.76,3.1-9.17,7.21-9.17,1.87,0,4.42.15,8.09.58v17.41ZM134.67,20.08v-10.76h-3.77c-3,0-3.49,1.16-3.49,3.74v3.49c0,2.91,1.13,3.53,3.95,3.53h3.31Z"/>
    <path class="cls-1" d="M145.95,17.75c0,1.75.92,2.36,2.76,2.36h7.21v2.67c-1.63.34-4.91.55-6.93.55-5.61,0-7.08-2.58-7.08-8.37s1.69-8.92,7.76-8.92c4.75,0,7.14,2.12,7.14,6.38v3.65h-10.86v1.69ZM152.94,11.59c0-.98-.4-2.39-2.45-2.39h-1.9c-1.96,0-2.64,1.72-2.64,2.7v1.2h6.99v-1.5Z"/>
    <path class="cls-1" d="M194.9,6.04c4.42,0,7.21,1.72,7.21,8.65s-3.13,8.68-7.21,8.68h-1.23c-4.26,0-7.24-1.41-7.24-8.4s2.91-8.92,7.24-8.92h1.23ZM194.1,9.17c-2.36,0-3.53.67-3.53,3.56v3.99c0,2.88,1.01,3.55,3.22,3.55h1.01c2.09,0,3.19-.95,3.19-3.55v-3.99c0-2.88-1.04-3.56-3.53-3.56h-.37Z"/>
    <path class="cls-1" d="M213.94,6.04c4.42,0,7.21,1.72,7.21,8.65s-3.13,8.68-7.21,8.68h-1.23c-4.26,0-7.24-1.41-7.24-8.4s2.91-8.92,7.24-8.92h1.23ZM213.14,9.17c-2.36,0-3.53.67-3.53,3.56v3.99c0,2.88,1.01,3.55,3.22,3.55h1.01c2.09,0,3.19-.95,3.19-3.55v-3.99c0-2.88-1.04-3.56-3.53-3.56h-.37Z"/>
    <path class="cls-1" d="M239.87,22.78c-3.68.49-6.62.58-8.16.58-4.11,0-7.21-.49-7.21-8.25,0-7.36,2.61-9.07,6.65-9.07,1.19,0,2.97.15,4.78.4V.4h3.93v22.38ZM232.61,9.32c-2.82,0-3.95.61-3.95,3.53v3.49c0,2.58.49,3.74,3.49,3.74h3.8v-10.76h-3.34Z"/>
    <polygon class="cls-1" points="181.59 6.47 177.33 18.77 177.2 18.77 173.71 6.47 170.07 6.47 166.57 18.77 166.45 18.77 162.19 6.47 158.23 6.47 164.21 23 168.72 23 171.83 12.08 171.95 12.08 175.06 23 179.56 23 185.54 6.47 181.59 6.47"/>
    <path class="cls-1" d="M151.29,40.82s-1.66.35-2.78.35c-2.97,0-3.65-1.7-3.65-5.06,0-3.58.87-5.09,3.65-5.09,1.24,0,2.8.38,2.8.38l-.06,1.46s-1.66-.21-2.51-.21c-1.72,0-2.16.83-2.16,3.45s.34,3.43,2.22,3.43c.77,0,2.46-.23,2.46-.23l.04,1.51Z"/>
    <path class="cls-1" d="M157.63,31.18h3.28l2.32,9.84h-1.68l-.54-1.93h-3.57l-.48,1.93h-1.68l2.35-9.84ZM157.79,37.48h2.89l-1.09-4.76h-.67l-1.12,4.76Z"/>
    <path class="cls-1" d="M171.46,31.18c1.79,0,2.99.71,2.99,2.47,0,1.31-.36,1.87-1.14,2.32.88.35,1.35.94,1.35,2.27,0,1.97-1.19,2.77-3.1,2.77h-3.8v-9.83h3.7ZM169.42,32.72v2.6h2c.92,0,1.31-.47,1.31-1.38s-.44-1.22-1.35-1.22h-1.96ZM169.42,36.82v2.66h2.06c.94,0,1.46-.35,1.46-1.36s-.71-1.29-1.49-1.29h-2.03Z"/>
    <rect class="cls-1" x="179.52" y="31.18" width="1.68" height="9.83"/>
    <polygon class="cls-1" points="186.48 31.18 189.18 31.18 192.31 38.94 192.55 38.94 192.55 31.18 194.22 31.18 194.22 41.02 191.6 41.02 188.39 33.26 188.14 33.26 188.14 41.02 186.48 41.02 186.48 31.18"/>
    <polygon class="cls-1" points="199.52 31.18 205.66 31.18 205.66 32.77 201.17 32.77 201.17 35.35 204.81 35.35 204.81 36.91 201.17 36.91 201.17 39.42 205.66 39.42 205.66 41.02 199.52 41.02 199.52 31.18"/>
    <polygon class="cls-1" points="209.35 31.18 216.46 31.18 216.46 32.79 213.76 32.79 213.76 41.02 212.08 41.02 212.08 32.79 209.35 32.79 209.35 31.18"/>
    <path class="cls-1" d="M224.4,37.66h-2.19v3.35h-1.66v-9.83h3.71c2.24,0,3.32.92,3.32,3.17,0,1.48-.54,2.33-1.55,2.83l1.55,3.84h-1.83l-1.35-3.35ZM224.26,32.77h-2.05v3.3h2.08c1.15,0,1.58-.68,1.58-1.69,0-1.08-.53-1.61-1.61-1.61"/>
    <polygon class="cls-1" points="236.22 41.02 234.54 41.02 234.54 36.81 231.53 31.18 233.39 31.18 235.37 34.95 237.33 31.18 239.19 31.18 236.22 36.82 236.22 41.02"/>
  </g>
  <path class="cls-1" d="M40.18,23.05s-6.03,1.87-8.93.96c-1.83-.57.09-2.77,2.96-4.19,2.87-1.42,6.52-2.61,6.52-2.61,0,0-.76-3.06-1.43-6.17-.48-2.2-.91-5.46-1.06-9.75,0-.13-.07-.13-.17-.08-1.76.91-5.57,2.89-9.15,4.09-2.25.75-5.41,1.82-5.41,1.82,0,0,.97,6.93-1.11,10-1.05,1.24-1.7.74-2.41-.34-1.46-2.5-.98-7.36-.98-7.36,0,0-2.01-.48-4.37-1.35-2.46-.91-6.04-2.33-6.04-2.33,0,0-.08,1.5-.64,4.05-.47,2.13-1.16,5.96-1.16,5.96,0,0,3.08,1.06,5.55,3.01,2.47,1.95,1.94,4.18.82,3.94-4.73-1.01-10,.19-10,.19l3.1,6.82s1.53-.35,3.37-.36c1.26,0,3.02.09,3.02.09,0,0,3.87-2.09,9.56-6.92,4.25-3.61,8.48-8.95,12.62-14.56.13-.17.14.08-.1.56-2.47,3.81-5.05,8.36-9.02,12.37-2.6,2.62-4.17,4.65-13.74,11.4-5.26,3.74-11.96,7.67-11.96,7.67v3.03c6.78-4.13,10.68-6.61,16.3-11.21.4-.33.43.98.56,2.22.15,1.54.06,4.33.06,4.33l8.5,1.12s.36-.25-.09-3.14c-.51-3.32-1.24-3.77-1.29-4.98-.04-.91,1.61-1.46,3.46-.75,2.78,1.05,7.05,5.07,7.05,5.07,0,0,2.39-1.02,4.81-1.76,2.73-.84,4.52-1.21,4.52-1.21,0,0-1.3-2.98-1.85-4.38-1.12-2.87-1.86-5.26-1.86-5.26Z"/>
</svg>