<?xml version="1.0" encoding="UTF-8"?>
<svg id="Layer_1" xmlns="http://www.w3.org/2000/svg" version="1.1" viewBox="0 0 197.2 42">
  <!-- Generator: Adobe Illustrator 29.6.1, SVG Export Plug-In . SVG Version: 2.1.1 Build 9)  -->
  <defs>
    <style>
      .st0 {
        fill: none;
      }

      .st1 {
        fill: #fff;
      }
    </style>
  </defs>
  <path class="st1" d="M67.4,11.9c1.9,1,2.7,3,2.7,4.9,0,4.5-3.1,5.6-6.6,5.6s-4.5,0-7.8-.5V4.1c3.1-.4,5.9-.4,6.9-.4,3.5,0,6.4.6,6.4,4.5s-.6,2.9-1.7,3.7M64.7,11.3c.4-.7.9-1.6.9-2.7s-.7-2-2.7-2h-3.8v4.7h5.6ZM59.1,14.1v5.4h4.8c2.2,0,2.8-1,2.8-2.7s-1.2-2.7-2.9-2.7h-4.6,0Z"/>
  <path class="st1" d="M81.2,11.2h-5v11h-3.2v-13c2.4-.4,5.9-.6,8.2-.6,0,0,0,2.6,0,2.6Z"/>
  <path class="st1" d="M83,4h3.2v3.1h-3.2v-3.1ZM83.1,8.8h3.2v13.3h-3.2v-13.3Z"/>
  <path class="st1" d="M101.1,21.9c-2.9.4-5.3.5-6.5.5-3.3,0-5.8-.4-5.8-6.6s2.1-7.3,5.3-7.3,2.4.1,3.8.3v-4.8h3.1v17.9ZM95.2,11.2c-2.3,0-3.2.5-3.2,2.8v2.8c0,2.1.4,3,2.8,3h3v-8.6s-2.7,0-2.7,0Z"/>
  <path class="st1" d="M116,23c0,3.9-2.3,4.7-5.5,4.7s-4-.2-5.3-.4v-2.2h5.5c1.5,0,2.2-.5,2.2-2v-.9c-1.4.2-2.5.4-3.8.4-3,0-5.3-.6-5.3-6.5s2.5-7.3,5.8-7.3,3.5.1,6.5.5v14h0ZM112.9,19.8v-8.6h-3c-2.4,0-2.8.9-2.8,3v2.8c0,2.3.9,2.8,3.2,2.8h2.7Z"/>
  <path class="st1" d="M121.9,17.9c0,1.4.7,1.9,2.2,1.9h5.8v2.1c-1.3.3-3.9.4-5.6.4-4.5,0-5.7-2.1-5.7-6.7s1.4-7.2,6.2-7.2,5.7,1.7,5.7,5.1v2.9h-8.7v1.4h0ZM127.5,13c0-.8-.3-1.9-2-1.9h-1.5c-1.6,0-2.1,1.4-2.1,2.2v1h5.6v-1.2h0Z"/>
  <path class="st1" d="M161.1,8.5c3.5,0,5.8,1.4,5.8,6.9s-2.5,7-5.8,7h-1c-3.4,0-5.8-1.1-5.8-6.7s2.3-7.1,5.8-7.1c0,0,1,0,1,0ZM160.5,11c-1.9,0-2.8.5-2.8,2.9v3.2c0,2.3.8,2.8,2.6,2.8h.8c1.7,0,2.6-.8,2.6-2.8v-3.2c0-2.3-.8-2.9-2.8-2.9h-.3Z"/>
  <path class="st1" d="M176.4,8.5c3.5,0,5.8,1.4,5.8,6.9s-2.5,7-5.8,7h-1c-3.4,0-5.8-1.1-5.8-6.7s2.3-7.1,5.8-7.1c0,0,1,0,1,0ZM175.8,11c-1.9,0-2.8.5-2.8,2.9v3.2c0,2.3.8,2.8,2.6,2.8h.8c1.7,0,2.6-.8,2.6-2.8v-3.2c0-2.3-.8-2.9-2.8-2.9h-.3Z"/>
  <path class="st1" d="M197.2,21.9c-2.9.4-5.3.5-6.5.5-3.3,0-5.8-.4-5.8-6.6s2.1-7.3,5.3-7.3,2.4.1,3.8.3v-4.8h3.1v17.9h0ZM191.4,11.2c-2.3,0-3.2.5-3.2,2.8v2.8c0,2.1.4,3,2.8,3h3v-8.6s-2.7,0-2.7,0Z"/>
  <polygon class="st1" points="150.5 8.9 147.1 18.7 147 18.7 144.2 8.9 141.3 8.9 138.4 18.7 138.4 18.7 134.9 8.9 131.8 8.9 136.6 22.1 140.2 22.1 142.7 13.4 142.8 13.4 145.2 22.1 148.9 22.1 153.7 8.9 150.5 8.9"/>
  <path class="st1" d="M126.2,36.4s-1.3.3-2.2.3c-2.4,0-2.9-1.4-2.9-4.1s.7-4.1,2.9-4.1,2.2.3,2.2.3v1.2s-1.4-.2-2.1-.2c-1.4,0-1.7.7-1.7,2.8s.3,2.7,1.8,2.7,2-.2,2-.2v1.2s0,0,0,0Z"/>
  <path class="st1" d="M131.3,28.7h2.6l1.9,7.9h-1.3l-.4-1.5h-2.9l-.4,1.5h-1.3l1.9-7.9h0ZM131.4,33.7h2.3l-.9-3.8h-.5l-.9,3.8Z"/>
  <path class="st1" d="M142.4,28.7c1.4,0,2.4.6,2.4,2s-.3,1.5-.9,1.9c.7.3,1.1.8,1.1,1.8,0,1.6-1,2.2-2.5,2.2h-3v-7.9h3ZM140.7,29.9v2.1h1.6c.7,0,1-.4,1-1.1s-.4-1-1.1-1h-1.6ZM140.7,33.2v2.1h1.7c.8,0,1.2-.3,1.2-1.1s-.6-1-1.2-1h-1.6Z"/>
  <rect class="st1" x="148.8" y="28.7" width="1.3" height="7.9"/>
  <polygon class="st1" points="154.4 28.7 156.6 28.7 159.1 34.9 159.3 34.9 159.3 28.7 160.6 28.7 160.6 36.6 158.5 36.6 155.9 30.3 155.7 30.3 155.7 36.6 154.4 36.6 154.4 28.7"/>
  <polygon class="st1" points="164.9 28.7 169.8 28.7 169.8 30 166.2 30 166.2 32 169.1 32 169.1 33.3 166.2 33.3 166.2 35.3 169.8 35.3 169.8 36.6 164.9 36.6 164.9 28.7"/>
  <polygon class="st1" points="172.7 28.7 178.4 28.7 178.4 30 176.3 30 176.3 36.6 174.9 36.6 174.9 30 172.7 30 172.7 28.7"/>
  <path class="st1" d="M184.8,33.9h-1.8v2.7h-1.3v-7.9h3c1.8,0,2.7.7,2.7,2.5s-.4,1.9-1.2,2.3l1.2,3.1h-1.5l-1.1-2.7h0ZM184.7,30h-1.6v2.6h1.7c.9,0,1.3-.5,1.3-1.4s-.4-1.3-1.3-1.3"/>
  <polygon class="st1" points="194.3 36.6 192.9 36.6 192.9 33.2 190.5 28.7 192 28.7 193.6 31.7 195.2 28.7 196.6 28.7 194.3 33.2 194.3 36.6"/>
  <rect class="st0" width="197.2" height="42"/>
  <path class="st1" d="M38.6,26.4c-.9-2.3-1.5-4.2-1.5-4.2,0,0-4.8,1.5-7.2.8-1.5-.5,0-2.2,2.4-3.4,2.3-1.1,5.2-2.1,5.2-2.1,0,0-.6-2.5-1.1-4.9-.4-1.8-.7-4.4-.9-7.8,0-.1,0-.1-.1,0-1.4.7-4.5,2.3-7.3,3.3-1.8.6-4.3,1.5-4.3,1.5,0,0,.8,5.6-.9,8-.8,1-1.4.6-1.9-.3-1.2-2-.8-5.9-.8-5.9,0,0-1.6-.4-3.5-1.1-2-.7-4.8-1.9-4.8-1.9,0,0,0,1.2-.5,3.2-.4,1.7-.9,4.8-.9,4.8,0,0,2.5.9,4.4,2.4,2,1.6,1.6,3.3.7,3.2-3.8-.8-8,.2-8,.2l2.5,5.5s1.2-.3,2.7-.3c1,0,2.4,0,2.4,0,0,0,3.1-1.7,7.7-5.5,3.4-2.9,6.8-7.2,10.1-11.7.1-.1.1,0,0,.4-2,3.1-4,6.7-7.2,9.9-2.1,2.1-3.3,3.7-11,9.1-4.2,3-9.6,6.1-9.6,6.1v2.4c5.4-3.3,8.6-5.3,13.1-9,.3-.3.3.8.4,1.8.1,1.2,0,3.5,0,3.5l6.8.9s.3-.2,0-2.5c-.4-2.7-1-3-1-4,0-.7,1.3-1.2,2.8-.6,2.2.8,5.7,4.1,5.7,4.1,0,0,1.9-.8,3.9-1.4,2.2-.7,3.6-1,3.6-1,0,0-1-2.4-1.5-3.5"/>
</svg>