<?xml version="1.0" encoding="UTF-8"?>
<svg id="Layer_1" data-name="Layer 1" xmlns="http://www.w3.org/2000/svg" viewBox="0 0 1728 368.05">
  <defs>
    <style>
      .cls-1 {
        fill: none;
      }

      .cls-2 {
        fill: #2a2829;
      }

      .cls-3 {
        fill: #fff;
      }
    </style>
  </defs>
  <path class="cls-3" d="M590.66,104.26c17.01,8.61,23.68,26.27,23.68,42.85,0,39.84-27.34,49.32-57.92,49.32-13.77,0-39.39,0-68.03-4.74V36.22c27.34-3.23,51.47-3.88,60.73-3.88,30.58,0,56.19,5.39,56.19,39.18,0,12.92-5.6,24.98-14.65,32.73M567.19,98.86c3.88-5.8,7.75-14.42,7.75-23.68,0-12.92-5.8-17.66-23.68-17.66h-33.37v41.34h49.3ZM517.89,123.85v47.36h41.99c18.94,0,24.11-8.61,24.11-23.89,0-20.47-10.34-23.48-25.84-23.48h-40.26Z"/>
  <path class="cls-3" d="M711.66,97.79h-43.7v96.03h-27.79v-113.89c21.12-3.46,52.1-5.17,71.49-5.17v23.03Z"/>
  <path class="cls-3" d="M727.59,35.13h28.2v27.14h-28.2v-27.14ZM727.79,77.55h27.77v116.27h-27.77v-116.27Z"/>
  <path class="cls-3" d="M885.63,192.32c-25.84,3.44-46.51,4.09-57.27,4.09-28.85,0-50.6-3.44-50.6-57.92,0-51.68,18.31-63.72,46.73-63.72,8.38,0,20.87,1.08,33.59,2.79v-42.42h27.55v157.18ZM834.6,97.79c-19.82,0-27.77,4.31-27.77,24.76v24.54c0,18.11,3.44,26.28,24.54,26.28h26.71v-75.58h-23.48Z"/>
  <path class="cls-3" d="M1016.54,201.14c0,34.24-20.24,40.91-48.44,40.91-14.22,0-34.89-1.51-46.3-3.88v-19.15h47.81c13.57,0,19.37-4.09,19.37-17.88v-7.96c-12.7,1.93-21.53,3.22-33.14,3.22-26.71,0-46.73-5.6-46.73-57.27,0-54.46,21.75-64.37,50.6-64.37,13.14,0,31.01,1.08,56.84,4.09v122.29ZM989.19,173.37v-75.58h-26.49c-21.1,0-24.54,8.18-24.54,26.28v24.54c0,20.45,7.96,24.76,27.77,24.76h23.25Z"/>
  <path class="cls-3" d="M1068.42,157c0,12.27,6.47,16.58,19.37,16.58h50.62v18.74c-11.41,2.36-34.46,3.87-48.66,3.87-39.41,0-49.74-18.09-49.74-58.78s11.84-62.66,54.48-62.66c33.37,0,50.17,14.87,50.17,44.8l-.06,25.61h-76.18v11.84ZM1117.51,113.73c0-6.9-2.81-16.79-17.23-16.79h-13.35c-13.77,0-18.51,12.05-18.51,18.94v8.4h49.09v-10.56Z"/>
  <path class="cls-3" d="M1412.15,74.76c31.01,0,50.6,12.05,50.6,60.71s-21.95,60.93-50.6,60.93h-8.61c-29.93,0-50.82-9.91-50.82-59s20.47-62.64,50.82-62.64h8.61ZM1406.56,96.72c-16.58,0-24.76,4.74-24.76,24.98v27.99c0,20.22,7.1,24.96,22.6,24.96h7.1c14.65,0,22.4-6.67,22.4-24.96v-27.99c0-20.24-7.32-24.98-24.76-24.98h-2.58Z"/>
  <path class="cls-3" d="M1545.85,74.76c31.01,0,50.6,12.05,50.6,60.71s-21.95,60.93-50.6,60.93h-8.61c-29.93,0-50.82-9.91-50.82-59s20.47-62.64,50.82-62.64h8.61ZM1540.26,96.72c-16.58,0-24.76,4.74-24.76,24.98v27.99c0,20.22,7.1,24.96,22.6,24.96h7.1c14.65,0,22.4-6.67,22.4-24.96v-27.99c0-20.24-7.32-24.98-24.76-24.98h-2.58Z"/>
  <path class="cls-3" d="M1728,192.32c-25.84,3.44-46.51,4.09-57.27,4.09-28.85,0-50.6-3.44-50.6-57.92,0-51.68,18.31-63.72,46.73-63.72,8.38,0,20.87,1.08,33.57,2.79v-42.42h27.57v157.18ZM1676.97,97.79c-19.82,0-27.77,4.31-27.77,24.76v24.54c0,18.11,3.44,26.28,24.54,26.28h26.69v-75.58h-23.46Z"/>
  <polygon class="cls-3" points="1318.69 77.77 1288.76 164.11 1287.9 164.11 1263.35 77.77 1237.79 77.77 1213.25 164.11 1212.4 164.11 1182.47 77.77 1154.68 77.77 1196.67 193.82 1228.33 193.82 1250.15 117.2 1251.01 117.2 1272.83 193.82 1304.47 193.82 1346.46 77.77 1318.69 77.77"/>
  <path class="cls-3" d="M1105.92,318.97s-11.67,2.49-19.56,2.49c-20.86,0-25.65-11.97-25.65-35.52,0-25.15,6.08-35.73,25.65-35.73,8.68,0,19.65,2.7,19.65,2.7l-.39,10.28s-11.67-1.51-17.66-1.51c-12.08,0-15.19,5.8-15.19,24.26s2.4,24.05,15.58,24.05c5.39,0,17.27-1.6,17.27-1.6l.3,10.58Z"/>
  <path class="cls-3" d="M1150.42,251.3h23.05l16.26,69.07h-11.79l-3.79-13.57h-25.04l-3.4,13.57h-11.77l16.47-69.07ZM1151.61,295.52h20.26l-7.68-33.44h-4.7l-7.88,33.44Z"/>
  <path class="cls-3" d="M1247.59,251.31c12.58,0,20.97,4.98,20.97,17.36,0,9.18-2.51,13.16-7.99,16.26,6.19,2.49,9.48,6.58,9.48,15.97,0,13.87-8.38,19.46-21.75,19.46h-26.66v-69.06h25.95ZM1233.22,262.1v18.25h14.07c6.49,0,9.18-3.29,9.18-9.68s-3.09-8.57-9.48-8.57h-13.77ZM1233.22,290.93v18.66h14.48c6.58,0,10.28-2.49,10.28-9.57s-5-9.09-10.48-9.09h-14.28Z"/>
  <rect class="cls-3" x="1304.17" y="251.3" width="11.77" height="69.06"/>
  <polygon class="cls-3" points="1353.04 251.31 1372 251.31 1393.96 305.79 1395.67 305.79 1395.67 251.31 1407.43 251.31 1407.43 320.36 1388.97 320.36 1366.43 265.88 1364.72 265.88 1364.72 320.36 1353.04 320.36 1353.04 251.31"/>
  <polygon class="cls-3" points="1444.63 251.31 1487.74 251.31 1487.74 262.48 1456.21 262.48 1456.21 280.55 1481.76 280.55 1481.76 291.53 1456.21 291.53 1456.21 309.19 1487.74 309.19 1487.74 320.36 1444.63 320.36 1444.63 251.31"/>
  <polygon class="cls-3" points="1513.68 251.31 1563.57 251.31 1563.57 262.59 1544.61 262.59 1544.61 320.36 1532.84 320.36 1532.84 262.59 1513.68 262.59 1513.68 251.31"/>
  <path class="cls-3" d="M1619.35,296.82h-15.37v23.55h-11.69v-69.06h26.06c15.76,0,23.35,6.49,23.35,22.25,0,10.37-3.79,16.36-10.87,19.85l10.87,26.95h-12.86l-9.48-23.55ZM1618.35,262.48h-14.37v23.16h14.57c8.07,0,11.08-4.8,11.08-11.88,0-7.58-3.7-11.28-11.28-11.28"/>
  <polygon class="cls-3" points="1702.36 320.37 1690.57 320.37 1690.57 290.83 1669.42 251.31 1682.5 251.31 1696.37 277.74 1710.15 251.31 1723.21 251.31 1702.36 290.92 1702.36 320.37"/>
  <rect class="cls-2" width="397.51" height="368.05"/>
  <path class="cls-3" d="M338.69,231.12c-7.86-20.15-13.03-36.94-13.03-36.94,0,0-42.33,13.12-62.68,6.77-12.83-4,.65-19.46,20.76-29.43,20.13-9.94,45.78-18.31,45.78-18.31,0,0-5.37-21.51-10.07-43.33-3.35-15.48-6.39-38.31-7.45-68.44-.04-.93-.48-.93-1.19-.58-12.36,6.38-39.11,20.3-64.28,28.7-15.78,5.24-37.96,12.75-37.96,12.75,0,0,6.84,48.65-7.77,70.21-7.38,8.74-11.93,5.19-16.95-2.42-10.26-17.58-6.86-51.66-6.86-51.66,0,0-14.11-3.36-30.69-9.5-17.31-6.41-42.38-16.36-42.38-16.36,0,0-.54,10.56-4.46,28.46-3.27,14.93-8.18,41.88-8.18,41.88,0,0,21.64,7.45,38.96,21.17,17.34,13.72,13.64,29.33,5.76,27.64-33.22-7.08-70.23,1.36-70.23,1.36l21.75,47.92s10.73-2.45,23.66-2.51c8.83-.04,21.19.61,21.19.61,0,0,27.16-14.7,67.12-48.61,29.87-25.35,59.58-62.85,88.59-102.26.91-1.23,1,.54-.71,3.92-17.32,26.75-35.43,58.72-63.37,86.9-18.25,18.4-29.28,32.66-96.49,80.02-36.94,26.27-84.02,53.89-84.02,53.89l.06,21.3c47.57-29.04,74.93-46.45,114.41-78.7,2.79-2.29,3.03,6.9,3.92,15.61,1.08,10.78.39,30.39.39,30.39l59.71,7.88s2.51-1.77-.61-22.06c-3.57-23.29-8.68-26.51-9.07-34.98-.3-6.36,11.28-10.22,24.31-5.3,19.54,7.38,49.54,35.6,49.54,35.6,0,0,16.8-7.14,33.76-12.34,19.16-5.91,31.75-8.53,31.75-8.53,0,0-9.15-20.93-12.97-30.75"/>
  <rect class="cls-1" width="1728" height="368.05"/>
</svg>