<?xml version="1.0" encoding="UTF-8"?>
<svg id="Layer_1" data-name="Layer 1" xmlns="http://www.w3.org/2000/svg" width="1.44in" height=".58in" xmlns:xlink="http://www.w3.org/1999/xlink" viewBox="0 0 103.8 42">
  <defs>
    <style>
      .cls-1 {
        fill: none;
      }

      .cls-2 {
        clip-path: url(#clippath-1);
      }

      .cls-3 {
        clip-path: url(#clippath-3);
      }

      .cls-4 {
        clip-path: url(#clippath-4);
      }

      .cls-5 {
        clip-path: url(#clippath-2);
      }

      .cls-6 {
        clip-path: url(#clippath-5);
      }

      .cls-7 {
        fill: #fff;
      }

      .cls-8 {
        clip-path: url(#clippath);
      }
    </style>
    <clipPath id="clippath">
      <rect class="cls-1" width="103.7" height="24.4"/>
    </clipPath>
    <clipPath id="clippath-1">
      <rect class="cls-1" width="103.7" height="24.4"/>
    </clipPath>
    <clipPath id="clippath-2">
      <rect class="cls-1" y="30.9" width="55.4" height="11.1"/>
    </clipPath>
    <clipPath id="clippath-3">
      <rect class="cls-1" y="30.9" width="55.4" height="11.1"/>
    </clipPath>
    <clipPath id="clippath-4">
      <rect class="cls-1" x="62.8" y="30.8" width="35.4" height="11.1"/>
    </clipPath>
    <clipPath id="clippath-5">
      <rect class="cls-1" x="62.8" y="30.8" width="35.4" height="11.1"/>
    </clipPath>
  </defs>
  <g id="Danver_2025_ffffff" data-name="Danver 2025 ffffff">
    <g class="cls-8">
      <g>
        <polygon class="cls-7" points="100.6 6.5 100.6 8.3 100.2 8.3 100.2 6.5 99.5 6.5 99.5 6.2 101.3 6.2 101.3 6.5 100.6 6.5"/>
        <polygon class="cls-7" points="103.4 6.2 102.7 7.9 102.7 7.9 102 6.2 101.6 6.2 101.6 8.3 101.9 8.3 101.9 7.1 101.9 6.7 101.9 6.7 101.9 6.8 102.5 8.3 102.8 8.3 103.4 6.8 103.5 6.7 103.5 6.7 103.4 7.1 103.4 8.3 103.8 8.3 103.8 6.2 103.4 6.2"/>
        <g class="cls-2">
          <path class="cls-7" d="M96.4,5.9c-1.1,0-2.1.2-3,.7s-1.7,1.4-2.2,2.4v-2.7h-5.6v6.3c-.3-1.5-.9-3-2.2-4.3-2.1-2.3-5-2.6-6.9-2.6s-4.6.4-6.7,2.5c-.4.4-.8.9-1.1,1.4l1.7-3.3h-6.2l-4.4,9.3-4.4-9.3h-6.2l.9,1.9c-.2-.2-.3-.4-.5-.6-1.5-1.5-3.5-1.8-5-1.8s-3.7.4-5.4,2.5v-2.1h-5.6v1.9c-1.6-2.2-4-2.5-5.5-2.5-2.4,0-4.5.9-6,2.4-.8.8-1.4,1.8-1.9,2.9-.2-3.3-1.4-5.9-3.4-7.8C14,.5,10.7,0,7.5,0H0v23.8h7.7c2,0,6.1-.2,9.4-3.6,1.1-1.1,1.9-2.4,2.5-3.9.2,1.9.9,3.8,2.5,5.4,1.9,2,4,2.7,6.5,2.7s3.6-.4,5.2-2.7l1.1,2.1h4.6v-9c0-1.1.2-2.3,1.1-3.3.4-.5,1.2-.9,2.3-.9s1.7.4,2.1.8c.9.9.9,2.3.9,3.5v8.9h5.6v-11c0-.8,0-1.7-.3-2.7l7,13.7h3.5l6.3-12.4c-.5,1.2-.7,2.5-.7,3.8,0,2.9,1.1,5.2,2.6,6.7,2,2,4.3,2.5,6.9,2.5s3.8-.3,5.5-1.3c1-.6,2.6-1.9,3.4-4.4h-5.6c-.4.6-.8.9-.9.9-.6.4-1.4.5-2.3.5s-2-.2-2.9-1.1c-.7-.8-1.1-2-1.1-3h12.7v7.7h5.6v-7.1c0-1.5.1-3.4,1.4-4.7.7-.7,1.6-1.2,2.8-1.2s1.8.2,2.5.6l.3-5.3c-.6-.2-1.1-.3-1.8-.3M12.2,17.1c-1.6,1.4-4,1.5-5,1.5h-1.3V5.2h1.3c1.5,0,3.7.2,5.3,1.9.9.9,1.8,2.4,1.8,4.7s-1,4.3-2.1,5.3M32.7,18.3c-.7.7-1.8,1.2-2.9,1.2s-2.5-.5-3.3-1.4c-.5-.5-1.2-1.6-1.2-3.1s.7-2.6,1.3-3.2c.7-.7,1.9-1.2,3.1-1.2s2.3.4,3.1,1.2c.4.4.7.9.9,1.4v3.6c-.3.6-.6,1.1-1,1.5M73.1,12.7c.2-.8.5-1.4,1-1.9s1.4-1.1,2.9-1.1,2,.4,2.7,1c.8.8,1.1,1.9,1.1,2h-7.7Z"/>
        </g>
      </g>
    </g>
  </g>
  <g id="Brown_Jordan_2025_ffffff" data-name="Brown Jordan 2025 ffffff">
    <g class="cls-5">
      <g class="cls-3">
        <g>
          <path class="cls-7" d="M0,31.1h.6c.9,0,1.7.2,1.7,1.3s-.2.7-.5.9h0c.5.1.9.6.9,1.2,0,.9-.8,1.3-1.6,1.3H0v-4.6h0v-.1ZM.6,33.1h.1c.5,0,1-.1,1-.8s-.4-.8-1-.8h-.2v1.5l.1.1ZM.6,35.2h.4c.5,0,1.1-.2,1.1-.8s-.7-.8-1.2-.8h-.4v1.6h.1Z"/>
          <path class="cls-7" d="M6.8,35.7h-.7l-1.3-1.9h-.2v1.9h-.6v-4.6h.7c.4,0,.8,0,1.2.2s.6.7.6,1.1c0,.7-.4,1.2-1.1,1.3,0,0,1.4,2,1.4,2ZM4.5,33.3h.2c.6,0,1.2-.1,1.2-.8s-.7-.8-1.2-.8h-.2v1.7-.1Z"/>
          <path class="cls-7" d="M12.3,33.4c0,1.4-1.1,2.4-2.4,2.4s-2.4-1-2.4-2.4,1.1-2.4,2.4-2.4,2.4,1.1,2.4,2.4M11.7,33.4c0-1-.8-1.9-1.8-1.9s-1.8.8-1.8,1.9.8,1.9,1.8,1.9,1.8-.8,1.8-1.9"/>
          <polygon class="cls-7" points="14.7 34.4 16 31 17.3 34.4 18.6 31.1 19.2 31.1 17.3 35.9 16 32.5 14.7 35.9 12.8 31.1 13.4 31.1 14.7 34.4"/>
          <polygon class="cls-7" points="20.3 30.9 23.8 34.5 23.8 31.1 24.3 31.1 24.3 35.9 20.9 32.3 20.9 35.7 20.3 35.7 20.3 30.9"/>
          <path class="cls-7" d="M29.6,31.1v2.9c0,.9-.2,1.8-1.2,1.8s-.5,0-.7-.2l.3-.5c.1,0,.3.2.5.2.7,0,.6-.8.6-1.2v-2.9h.6l-.1-.1Z"/>
          <path class="cls-7" d="M35.5,33.4c0,1.4-1.1,2.4-2.4,2.4s-2.4-1-2.4-2.4,1.1-2.4,2.4-2.4,2.4,1.1,2.4,2.4M34.9,33.4c0-1-.8-1.9-1.8-1.9s-1.8.8-1.8,1.9.8,1.9,1.8,1.9,1.8-.8,1.8-1.9"/>
          <path class="cls-7" d="M39.5,35.7h-.7l-1.3-1.9h-.2v1.9h-.6v-4.6h.7c.4,0,.8,0,1.2.2s.6.7.6,1.1c0,.7-.4,1.2-1.1,1.3l1.4,2h0ZM37.2,33.3h.2c.6,0,1.2-.1,1.2-.8s-.7-.8-1.2-.8h-.2v1.7-.1Z"/>
          <path class="cls-7" d="M40.7,31.1h.9c1.4,0,2.6.7,2.6,2.3s-1.1,2.3-2.6,2.3h-.9v-4.6ZM41.2,35.1h.2c1.2,0,2.2-.4,2.2-1.8s-1-1.8-2.2-1.8h-.2v3.6Z"/>
          <path class="cls-7" d="M45.8,34.5l-.5,1.1h-.6l2.2-4.8,2.2,4.8h-.6l-.5-1.1h-2.2ZM46.8,32.1l-.8,1.9h1.6l-.8-1.9h0Z"/>
          <polygon class="cls-7" points="50 30.9 53.5 34.5 53.5 31.1 54 31.1 54 35.9 50.6 32.3 50.6 35.7 50 35.7 50 30.9"/>
          <path class="cls-7" d="M55,31.1s.2,0,.2.1v.4s-.1.1-.2.1-.2,0-.2-.1v-.4s.1-.1.2-.1M55.4,31.5c0-.1,0-.2-.1-.3,0,0-.2-.1-.3-.1s-.2,0-.3.1c0,0-.1.2-.1.3s0,.2.1.3.2.1.3.1.2,0,.3-.1c0,0,.1-.2.1-.3M55.1,31.4h0v-.2h0M54.8,31.2v.4h0v-.2h0v.1h0v-.1h0v-.1h-.3l.3-.1Z"/>
          <rect class="cls-7" y="36.8" width="54" height=".3"/>
          <path class="cls-7" d="M3.5,40.1c0,1-.8,1.8-1.8,1.8s-1.8-.8-1.8-1.8.8-1.8,1.8-1.8,1.8.8,1.8,1.8M3,40.1c0-.8-.5-1.3-1.2-1.3s-1.2.5-1.2,1.3.5,1.3,1.2,1.3,1.2-.5,1.2-1.3"/>
          <path class="cls-7" d="M5.2,38.4v2.1c0,.2,0,.4.1.6.1.2.3.4.6.4s.5-.2.6-.4.1-.4.1-.6v-2.1h.5v2.2c0,.3,0,.6-.3.9-.2.2-.5.4-.9.4s-.8-.2-.9-.4c-.3-.3-.3-.6-.3-.9v-2.2h.5Z"/>
          <polygon class="cls-7" points="9.5 38.9 9.5 41.8 9 41.8 9 38.9 8.2 38.9 8.2 38.4 10.3 38.4 10.3 38.9 9.5 38.9"/>
          <path class="cls-7" d="M12,38.4c.5,0,.9,0,1.3.3.4.3.7.8.7,1.4s-.2,1.1-.7,1.4c-.4.3-.8.3-1.2.3h-.7v-3.4h.7-.1ZM11.8,41.3h.2c.3,0,.6,0,.9-.2.2-.2.5-.5.5-1s-.2-.8-.5-1-.7-.2-.9-.2h-.2v2.4Z"/>
          <path class="cls-7" d="M18.4,40.1c0,1-.8,1.8-1.8,1.8s-1.8-.8-1.8-1.8.8-1.8,1.8-1.8,1.8.8,1.8,1.8M17.9,40.1c0-.8-.5-1.3-1.2-1.3s-1.2.5-1.2,1.3.5,1.3,1.2,1.3,1.2-.5,1.2-1.3"/>
          <path class="cls-7" d="M23,40.1c0,1-.8,1.8-1.8,1.8s-1.8-.8-1.8-1.8.8-1.8,1.8-1.8,1.8.8,1.8,1.8M22.4,40.1c0-.8-.5-1.3-1.2-1.3s-1.2.5-1.2,1.3.5,1.3,1.2,1.3,1.2-.5,1.2-1.3"/>
          <path class="cls-7" d="M24.7,38.4c.4,0,.7,0,.9.2.4.3.4.7.4.8,0,.5-.3.8-.8,1l1.1,1.5h-.6l-1-1.4h0v1.4h-.5v-3.4h.6l-.1-.1ZM24.7,39.9h.2c.1,0,.7,0,.7-.6s-.5-.5-.7-.5h-.2v1.1h0Z"/>
          <polygon class="cls-7" points="29.6 39.7 30.9 38.4 31.6 38.4 30 39.9 31.6 41.8 30.9 41.8 29.7 40.3 29.6 40.4 29.6 41.8 29.1 41.8 29.1 38.4 29.6 38.4 29.6 39.7"/>
          <rect class="cls-7" x="32.6" y="38.4" width=".5" height="3.4"/>
          <polygon class="cls-7" points="35.4 38.9 35.4 41.8 34.8 41.8 34.8 38.9 34.1 38.9 34.1 38.4 36.1 38.4 36.1 38.9 35.4 38.9"/>
          <path class="cls-7" d="M39.5,39.2c-.4-.3-.7-.4-.9-.4-.7,0-1.2.5-1.2,1.3s.5,1.3,1.2,1.3.7-.2.9-.4v.6c-.3.2-.7.3-.9.3-.6,0-1-.3-1.2-.5-.4-.4-.5-.8-.5-1.3s.3-1.1.5-1.3c.4-.3.8-.4,1.2-.4s.6,0,.9.2v.6Z"/>
          <polygon class="cls-7" points="41.2 39.7 42.7 39.7 42.7 38.4 43.2 38.4 43.2 41.8 42.7 41.8 42.7 40.2 41.2 40.2 41.2 41.8 40.7 41.8 40.7 38.4 41.2 38.4 41.2 39.7"/>
          <polygon class="cls-7" points="46.4 38.9 45 38.9 45 39.7 46.3 39.7 46.3 40.2 45 40.2 45 41.3 46.4 41.3 46.4 41.8 44.5 41.8 44.5 38.4 46.4 38.4 46.4 38.9"/>
          <polygon class="cls-7" points="47.6 41.8 47.6 38.2 50 40.7 50 38.4 50.6 38.4 50.6 42 48.1 39.4 48.1 41.8 47.6 41.8"/>
          <path class="cls-7" d="M53.4,39.1s0-.1-.2-.2c-.1,0-.2-.1-.4-.1-.3,0-.5.2-.5.4s0,.3.4.4h.3c.6.4.8.8.8,1.1,0,.6-.5,1.1-1.1,1.1s-.6-.1-.8-.3-.3-.4-.3-.7h.5s0,.2.1.3c0,.1.2.2.4.2.3,0,.6-.2.6-.6s-.3-.5-.5-.6h-.3c-.3-.3-.7-.5-.7-1s.4-.9,1-.9.6.1.7.2l.3.3-.4.2h0l.1.2Z"/>
        </g>
      </g>
    </g>
  </g>
  <g id="Trex_2025_ffffff" data-name="Trex 2025 ffffff">
    <g class="cls-4">
      <g class="cls-6">
        <g>
          <path class="cls-7" d="M65.8,40.3h0c0-.8-.6-1.4-1.4-1.4s-1.3.6-1.3,1.4h0c0,.8.6,1.4,1.4,1.4s1.3-.6,1.3-1.4M62.8,40.3h0c0-.9.6-1.6,1.6-1.6s1.6.8,1.6,1.6,0,.6,0,0c0,.9-.6,1.6-1.6,1.6s-1.6-.8-1.6-1.6"/>
          <path class="cls-7" d="M66.4,41v-1.4h.2v1.4c0,.5.3.8.7.8s.8-.3.8-.8v-1.3h.2v2.3h-.2v-.4c-.2.3-.4.5-.8.5s-.9-.4-.9-1"/>
          <path class="cls-7" d="M69.1,41.3v-1.5h-.3v-.2h.3v-.7h.2v.7h.8v.2h-.8v1.5c0,.3.2.4.5.4h.3v.2h-.4c-.4,0-.6-.2-.6-.6"/>
          <path class="cls-7" d="M72.5,40.7h0c0-.6-.5-1-.9-1s-.9.4-.9,1h0c0,.6.4,1,.9,1s.9-.4.9-1M70.4,40.8h0c0-.8.6-1.2,1.1-1.2s.8.3,1,.6v-1.5h.2v3.3h-.2v-.5c-.2.3-.5.6-1,.6s-1.1-.4-1.1-1.2"/>
          <path class="cls-7" d="M75.3,40.8h0c0-.6-.4-1-1-1s-.9.4-.9,1h0c0,.6.4,1,1,1s.9-.4.9-1M73.1,40.8h0c0-.7.5-1.2,1.2-1.2s1.2.6,1.2,1.2h0c0,.7-.5,1.2-1.2,1.2s-1.2-.6-1.2-1.2"/>
          <path class="cls-7" d="M77.9,40.8h0c0-.6-.4-1-1-1s-.9.4-.9,1h0c0,.6.4,1,1,1s.9-.4.9-1M75.8,40.8h0c0-.7.5-1.2,1.2-1.2s1.2.6,1.2,1.2h0c0,.7-.5,1.2-1.2,1.2s-1.2-.6-1.2-1.2"/>
          <path class="cls-7" d="M78.6,39.6h.2v.7c.2-.4.6-.7,1-.7v.2h0c-.5,0-1,.4-1,1.2v.9h-.2v-2.3h0Z"/>
          <polygon class="cls-7" points="81.4 38.7 81.6 38.7 81.6 40.8 83.7 38.7 84 38.7 82.6 40.1 84 41.9 83.7 41.9 82.4 40.3 81.6 41.1 81.6 41.9 81.4 41.9 81.4 38.7"/>
          <path class="cls-7" d="M84.4,39.6h.2v2.3h-.2v-2.3ZM84.4,38.7h.3v.3h-.3v-.3Z"/>
          <path class="cls-7" d="M85.4,41.3v-1.5h-.3v-.2h.3v-.7h.2v.7h.8v.2h-.8v1.5c0,.3.2.4.5.4h.3v.2h-.4c-.4,0-.6-.2-.6-.6"/>
          <path class="cls-7" d="M86.6,40.8h0c0-.7.5-1.2,1.2-1.2s.7.2.9.4l-.2.2c-.2-.2-.4-.4-.8-.4-.5,0-.9.4-.9,1h0c0,.6.4,1,1,1s.6-.2.8-.4h.2c-.2.4-.5.6-.9.6-.7,0-1.2-.6-1.2-1.2"/>
          <path class="cls-7" d="M89.1,38.6h.2v1.4c.2-.3.4-.5.8-.5s.9.4.9,1v1.4h-.2v-1.4c0-.5-.3-.8-.7-.8s-.8.3-.8.8v1.3h-.2v-3.3h0v.1Z"/>
          <path class="cls-7" d="M93.4,40.6c0-.5-.3-.9-.8-.9s-.8.4-.9.9h1.7ZM91.5,40.7h0c0-.7.5-1.2,1.1-1.2s1.1.5,1.1,1.2,0,0,0,0h-1.9c0,.6.5.9.9.9s.6-.2.8-.4h.2c-.2.4-.5.6-1,.6s-1.1-.5-1.1-1.2"/>
          <path class="cls-7" d="M94.1,39.6h.2v.4c.2-.3.4-.5.8-.5s.9.4.9,1v1.4h-.2v-1.4c0-.5-.3-.8-.7-.8s-.8.3-.8.8v1.3h-.2v-2.3h0v.1Z"/>
          <path class="cls-7" d="M96.5,41.6v-.2c.4.2.7.3,1,.3s.6-.2.6-.4h0c0-.3-.3-.4-.6-.5-.4-.1-.8-.2-.8-.6h0c0-.4.3-.6.8-.6s.6.1.8.3v.2c-.3-.1-.6-.2-.8-.2s-.5.2-.5.4h0c0,.3.3.4.6.5.4.1.8.2.8.6h0c0,.4-.4.7-.8.7s-.7-.1-.9-.3"/>
          <polygon class="cls-7" points="85.2 32.8 84.9 32.5 83 32.5 83.3 32.8 85.2 32.8"/>
          <polygon class="cls-7" points="85.8 33.4 85.4 33.1 83.5 33.1 83.8 33.4 85.8 33.4"/>
          <polygon class="cls-7" points="86.3 34 86 33.6 84.1 33.6 84.4 34 86.3 34"/>
          <polygon class="cls-7" points="86.9 34.5 86.5 34.2 84.6 34.2 84.9 34.5 86.9 34.5"/>
          <polygon class="cls-7" points="88 35.6 87.6 35.3 85.7 35.3 86.1 35.6 88 35.6"/>
          <polygon class="cls-7" points="87.4 35.1 87.1 34.8 85.2 34.8 85.5 35.1 87.4 35.1"/>
          <polygon class="cls-7" points="88.5 36.2 88.2 35.9 86.3 35.9 86.6 36.2 88.5 36.2"/>
          <polygon class="cls-7" points="89.1 36.8 88.7 36.4 86.8 36.4 87.2 36.8 89.1 36.8"/>
          <polygon class="cls-7" points="89.6 37.3 89.3 37 87.4 37 87.7 37.3 89.6 37.3"/>
          <polygon class="cls-7" points="83 37.3 87.6 32.6 89.6 32.6 84.9 37.3 83 37.3"/>
          <polygon class="cls-7" points="72.2 37.3 72.2 32.1 70.6 32.1 70.6 30.8 75.7 30.8 75.7 32.1 73.9 32.1 73.9 37.3 72.2 37.3"/>
          <path class="cls-7" d="M76.2,37.3h-1.6v-4.8h1.6v.7c.2-.2.3-.4.3-.4.1-.1.3-.2.6-.3.2,0,.4-.1.9,0v1.3h-.9c-.2,0-.4,0-.5.2-.1,0-.3.2-.3.4v2.9h-.1Z"/>
          <path class="cls-7" d="M80.7,32.5c-2.6,0-2.8,2-2.8,2.5s.2,2.5,2.8,2.5,2.7-1.7,2.7-1.7h-1.6s-.2.6-1.2.6-1.2-.8-1.2-1.1h4.1s.3-2.7-2.8-2.7M79.6,34.2s0-.8,1.1-.8,1.2.8,1.2.8h-2.4.1Z"/>
          <path class="cls-7" d="M90.5,33.3s.2-.1.2-.2h0v-.2h-.5v.7h.2v-.2h.1l.2.2h.2l-.2-.3h-.2ZM90.5,33.1s0,.1-.1.1h-.2v-.2h.2s.1,0,.1.1h0Z"/>
          <path class="cls-7" d="M90.4,33.9c-.4,0-.7-.3-.7-.7s.3-.7.7-.7.7.3.7.7-.3.7-.7.7M90.4,32.6c-.3,0-.6.3-.6.6s.3.6.6.6.6-.3.6-.6-.3-.6-.6-.6"/>
        </g>
      </g>
    </g>
  </g>
</svg>