<?xml version="1.0" encoding="UTF-8"?>
<svg id="Layer_1" data-name="Layer 1" xmlns="http://www.w3.org/2000/svg" xmlns:xlink="http://www.w3.org/1999/xlink" viewBox="0 0 289.07 117">
  <defs>
    <style>
      .cls-1 {
        fill: none;
      }

      .cls-2 {
        clip-path: url(#clippath-1);
      }

      .cls-3 {
        clip-path: url(#clippath-3);
      }

      .cls-4 {
        clip-path: url(#clippath-4);
      }

      .cls-5 {
        clip-path: url(#clippath-2);
      }

      .cls-6 {
        clip-path: url(#clippath-5);
      }

      .cls-7 {
        fill: #fff;
      }

      .cls-8 {
        clip-path: url(#clippath);
      }
    </style>
    <clipPath id="clippath">
      <rect class="cls-1" x=".07" y="0" width="289" height="67.84"/>
    </clipPath>
    <clipPath id="clippath-1">
      <rect class="cls-1" x=".07" y="0" width="289" height="67.84"/>
    </clipPath>
    <clipPath id="clippath-2">
      <rect class="cls-1" y="86" width="154.31" height="31"/>
    </clipPath>
    <clipPath id="clippath-3">
      <rect class="cls-1" y="86" width="154.31" height="31"/>
    </clipPath>
    <clipPath id="clippath-4">
      <rect class="cls-1" x="175.07" y="85.86" width="98.49" height="31"/>
    </clipPath>
    <clipPath id="clippath-5">
      <rect class="cls-1" x="175.07" y="85.86" width="98.49" height="31"/>
    </clipPath>
  </defs>
  <g id="Danver_2025_ffffff" data-name="Danver 2025 ffffff">
    <g class="cls-8">
      <polygon class="cls-7" points="280.22 18.07 280.22 23.17 279.22 23.17 279.22 18.07 277.3 18.07 277.3 17.29 282.13 17.29 282.13 18.07 280.22 18.07"/>
      <polygon class="cls-7" points="287.91 17.29 286.05 21.94 286 21.94 284.15 17.29 282.97 17.29 282.97 23.17 283.9 23.17 283.9 19.84 283.81 18.54 283.82 18.54 283.98 19 285.66 23.17 286.39 23.17 288.07 19 288.21 18.54 288.23 18.54 288.14 19.84 288.14 23.17 289.06 23.17 289.06 17.29 287.91 17.29"/>
      <g class="cls-2">
        <path class="cls-7" d="M268.6,16.53c-3.04,0-5.76.44-8.37,2.07-2.5,1.52-4.67,4.02-6.09,6.74v-7.61h-15.66v17.56c-.87-4.06-2.63-8.26-6.09-11.91-5.98-6.31-13.81-7.28-19.24-7.28s-12.72,1.09-18.59,6.96c-1.13,1.15-2.12,2.44-2.99,3.79l4.62-9.12h-17.18l-12.28,25.98-12.29-25.98h-17.18l2.63,5.19c-.42-.55-.87-1.08-1.39-1.6-4.13-4.13-9.68-4.89-13.92-4.89-4.57,0-10.22.98-15,7.06v-5.76h-15.66v5.43c-4.46-6.09-11.09-7.06-15.22-7.06-6.74,0-12.61,2.39-16.85,6.63-2.17,2.17-3.99,4.94-5.3,8.14-.45-9.32-3.97-16.45-9.44-21.73C38.98,1.29,29.75,0,21.01,0H.07v66.21h21.44c5.56,0,16.97-.69,26.11-9.93,2.97-2.96,5.34-6.57,6.93-10.9.56,5.33,2.6,10.5,6.89,15.06,5.33,5.65,11.2,7.39,18.16,7.39,4.02,0,10.11-.98,14.35-7.5l2.97,5.87h12.68v-25.04c.01-3.11.47-6.53,3.04-9.1,1.2-1.3,3.26-2.61,6.52-2.61,2.83,0,4.78.98,5.98,2.18,2.5,2.5,2.61,6.52,2.61,9.67v24.9h15.66v-30.66c0-2.14-.1-4.84-.94-7.59l19.38,38.25h9.78l17.49-34.51c-1.28,3.34-1.94,6.94-1.94,10.48,0,8.05,3.04,14.46,7.28,18.7,5.65,5.65,12.07,6.96,19.35,6.96,5.43,0,10.65-.76,15.33-3.59,2.83-1.74,7.18-5.33,9.35-12.18h-15.67c-1.13,1.64-2.31,2.41-2.48,2.5-1.63.98-4.02,1.41-6.31,1.41s-5.65-.44-8.04-3.04c-1.96-2.17-2.94-5.65-2.94-8.26h35.44v21.53h15.66v-19.68c0-4.13.32-9.35,3.8-13.05,1.96-2.07,4.46-3.26,7.83-3.26,2.72,0,5,.65,7.07,1.74l.87-14.68c-1.74-.54-3.15-.76-5.11-.76M34.03,47.66c-4.59,3.86-11.02,4.13-13.96,4.13h-3.76V14.42h3.76c4.31,0,10.28.64,14.87,5.23,2.39,2.39,5.05,6.61,5.05,13.22s-2.66,12.03-5.97,14.78M91.11,50.99c-2.07,2.07-5,3.37-8.15,3.37-3.7,0-7.07-1.52-9.24-3.81-1.41-1.52-3.26-4.35-3.26-8.7s1.96-7.18,3.59-8.81c2.07-2.07,5.22-3.48,8.59-3.48,2.83,0,6.31,1.09,8.7,3.37,1.12,1.06,2,2.39,2.61,3.87v10.09c-.7,1.68-1.72,3.04-2.83,4.09M203.59,35.34c.44-2.17,1.52-3.91,2.72-5.22,1.52-1.52,3.91-3.15,7.94-3.15,3.15,0,5.65,1.09,7.39,2.72,2.28,2.17,3.04,5.22,3.15,5.65h-21.2Z"/>
      </g>
    </g>
  </g>
  <g id="Brown_Jordan_2025_ffffff" data-name="Brown Jordan 2025 ffffff">
    <g class="cls-5">
      <g class="cls-3">
        <path class="cls-7" d="M0,86.61h1.56c2.4,0,4.67.63,4.67,3.5,0,.93-.51,2.01-1.37,2.42v.03c1.51.27,2.56,1.74,2.56,3.23,0,2.56-2.18,3.57-4.43,3.57H0v-12.76ZM1.59,92.26h.41c1.51,0,2.74-.31,2.74-2.13s-1.22-2.1-2.71-2.1h-.44v4.23ZM1.59,97.95h1.22c1.47,0,3.01-.44,3.01-2.25s-1.83-2.17-3.25-2.17h-.98v4.42Z"/>
        <path class="cls-7" d="M19.01,99.37h-1.93l-3.76-5.4h-.66v5.4h-1.59v-12.76h1.93c1.14,0,2.35.02,3.37.59,1.07.63,1.67,1.83,1.67,3.05,0,1.83-1.22,3.35-3.06,3.57l4.03,5.55ZM12.67,92.65h.51c1.63,0,3.38-.31,3.38-2.34s-1.89-2.28-3.47-2.28h-.42v4.62Z"/>
        <path class="cls-7" d="M34.16,92.99c0,3.79-3,6.65-6.69,6.65s-6.68-2.86-6.68-6.65,3.03-6.65,6.68-6.65,6.69,3,6.69,6.65M32.57,92.99c0-2.81-2.1-5.16-5.09-5.16s-5.09,2.35-5.09,5.16,2.34,5.16,5.09,5.16,5.09-2.25,5.09-5.16"/>
        <polygon class="cls-7" points="40.94 95.75 44.55 86.34 48.15 95.75 51.72 86.61 53.45 86.61 48.15 99.88 44.55 90.52 40.94 99.88 35.64 86.61 37.37 86.61 40.94 95.75"/>
        <polygon class="cls-7" points="56.64 86 66.22 96.04 66.22 86.61 67.81 86.61 67.81 99.89 58.23 89.86 58.23 99.37 56.64 99.37 56.64 86"/>
        <path class="cls-7" d="M82.5,86.61v8.11c0,2.45-.47,4.93-3.45,4.93-.75,0-1.37-.19-2-.56l.8-1.35c.36.27.81.42,1.27.42,1.83,0,1.8-2.13,1.8-3.44v-8.11h1.59Z"/>
        <path class="cls-7" d="M98.88,92.99c0,3.79-2.99,6.65-6.68,6.65s-6.69-2.86-6.69-6.65,3.03-6.65,6.69-6.65,6.68,3,6.68,6.65M97.29,92.99c0-2.81-2.1-5.16-5.09-5.16s-5.09,2.35-5.09,5.16,2.34,5.16,5.09,5.16,5.09-2.25,5.09-5.16"/>
        <path class="cls-7" d="M110.06,99.37h-1.93l-3.76-5.4h-.66v5.4h-1.59v-12.76h1.93c1.14,0,2.35.02,3.37.59,1.07.63,1.68,1.83,1.68,3.05,0,1.83-1.22,3.35-3.06,3.57l4.03,5.55ZM103.71,92.65h.51c1.62,0,3.38-.31,3.38-2.34s-1.89-2.28-3.47-2.28h-.42v4.62Z"/>
        <path class="cls-7" d="M113.27,86.61h2.64c3.91,0,7.16,2.06,7.16,6.31s-3.18,6.45-7.21,6.45h-2.59v-12.76ZM114.86,97.91h.56c3.25,0,6.06-1.22,6.06-4.93s-2.81-4.92-6.06-4.92h-.56v9.85Z"/>
        <path class="cls-7" d="M127.57,96.17l-1.46,3.2h-1.71l6.09-13.3,6.09,13.3h-1.71l-1.46-3.2h-5.85ZM130.49,89.55l-2.27,5.16h4.54l-2.27-5.16Z"/>
        <polygon class="cls-7" points="139.37 86 148.95 96.04 148.95 86.61 150.54 86.61 150.54 99.89 140.96 89.86 140.96 99.37 139.37 99.37 139.37 86"/>
        <path class="cls-7" d="M153.21,86.68c.26,0,.48.09.67.28.18.18.27.41.27.67s-.09.49-.27.67c-.18.18-.41.28-.67.28s-.49-.09-.67-.28c-.18-.19-.27-.41-.27-.67s.09-.48.27-.67c.18-.19.41-.28.67-.28M154.31,87.63c0-.3-.11-.56-.32-.78-.21-.21-.47-.32-.78-.32s-.56.11-.77.32c-.21.22-.32.47-.32.78s.11.56.32.78c.21.22.47.32.78.32s.56-.11.78-.32c.21-.21.32-.47.32-.78M153.5,87.39c0,.09-.04.16-.13.19-.04.02-.11.03-.2.03h-.19v-.44h.18c.12,0,.2.01.26.04.05.03.08.09.08.18M152.77,87.02v1.21h.21v-.47h.17c.11,0,.19.01.24.04.08.04.11.14.11.28v.13s0,.01,0,.01c0,0,0,0,0,.01h.2v-.02s-.02-.03-.02-.06c0-.03,0-.06,0-.09v-.09c0-.06-.02-.12-.06-.19-.04-.06-.11-.1-.21-.12.07-.01.13-.03.17-.06.08-.05.12-.13.12-.24,0-.15-.06-.25-.19-.31-.07-.03-.18-.04-.33-.04h-.42Z"/>
        <rect class="cls-7" y="102.39" width="150.56" height=".96"/>
        <path class="cls-7" d="M9.87,111.68c0,2.79-2.09,4.92-4.94,4.92S0,114.47,0,111.68s2.09-4.92,4.94-4.92,4.94,2.13,4.94,4.92M8.42,111.68c0-2.11-1.45-3.58-3.48-3.58s-3.48,1.48-3.48,3.58,1.45,3.58,3.48,3.58,3.48-1.48,3.48-3.58"/>
        <path class="cls-7" d="M14.56,106.93v5.72c0,.51.01,1.14.3,1.64.29.48.92.98,1.76.98s1.48-.5,1.76-.98c.28-.5.3-1.12.3-1.64v-5.72h1.45v6.1c0,.75-.16,1.66-.88,2.46-.5.54-1.34,1.11-2.63,1.11s-2.13-.57-2.63-1.11c-.72-.8-.88-1.71-.88-2.46v-6.1h1.45Z"/>
        <polygon class="cls-7" points="26.46 108.29 26.46 116.42 25.01 116.42 25.01 108.29 22.83 108.29 22.83 106.93 28.64 106.93 28.64 108.29 26.46 108.29"/>
        <path class="cls-7" d="M33.33,106.93c1.32,0,2.47.14,3.53.93,1.15.87,1.82,2.25,1.82,3.83s-.65,2.94-1.91,3.83c-1.11.78-2.15.91-3.47.91h-1.96v-9.49h1.99ZM32.79,115.05h.63c.71,0,1.69-.06,2.52-.67.65-.5,1.29-1.41,1.29-2.7s-.6-2.23-1.28-2.73c-.83-.6-1.84-.66-2.53-.66h-.63v6.76Z"/>
        <path class="cls-7" d="M51.33,111.68c0,2.79-2.09,4.92-4.94,4.92s-4.94-2.13-4.94-4.92,2.09-4.92,4.94-4.92,4.94,2.13,4.94,4.92M49.88,111.68c0-2.11-1.45-3.58-3.48-3.58s-3.48,1.48-3.48,3.58,1.45,3.58,3.48,3.58,3.48-1.48,3.48-3.58"/>
        <path class="cls-7" d="M63.98,111.68c0,2.79-2.09,4.92-4.94,4.92s-4.93-2.13-4.93-4.92,2.09-4.92,4.93-4.92,4.94,2.13,4.94,4.92M62.53,111.68c0-2.11-1.45-3.58-3.48-3.58s-3.48,1.48-3.48,3.58,1.45,3.58,3.48,3.58,3.48-1.48,3.48-3.58"/>
        <path class="cls-7" d="M68.91,106.93c1.15,0,1.89.14,2.5.56,1.04.7,1.12,1.82,1.12,2.23,0,1.37-.84,2.36-2.11,2.65l2.96,4.05h-1.75l-2.72-3.88h-.26v3.88h-1.45v-9.49h1.69ZM68.67,111.28h.45c.4,0,2.02-.04,2.02-1.55,0-1.34-1.27-1.47-1.98-1.47h-.5v3.01Z"/>
        <polygon class="cls-7" points="82.42 110.71 86.09 106.93 87.99 106.93 83.71 111.22 88.02 116.42 86.09 116.42 82.7 112.21 82.42 112.49 82.42 116.42 80.97 116.42 80.97 106.93 82.42 106.93 82.42 110.71"/>
        <rect class="cls-7" x="90.72" y="106.93" width="1.45" height="9.49"/>
        <polygon class="cls-7" points="98.5 108.29 98.5 116.42 97.05 116.42 97.05 108.29 94.87 108.29 94.87 106.93 100.67 106.93 100.67 108.29 98.5 108.29"/>
        <path class="cls-7" d="M110.12,109.15c-1.05-.95-2.03-1.05-2.57-1.05-2.06,0-3.46,1.52-3.46,3.61s1.45,3.56,3.47,3.56c1.14,0,2.02-.58,2.56-1.1v1.72c-.95.57-1.95.71-2.6.71-1.72,0-2.8-.78-3.36-1.31-1.11-1.04-1.52-2.25-1.52-3.58,0-1.75.72-2.96,1.52-3.71.98-.92,2.12-1.24,3.43-1.24.87,0,1.71.16,2.53.68v1.71Z"/>
        <polygon class="cls-7" points="114.78 110.68 118.84 110.68 118.84 106.93 120.29 106.93 120.29 116.42 118.84 116.42 118.84 112.05 114.78 112.05 114.78 116.42 113.32 116.42 113.32 106.93 114.78 106.93 114.78 110.68"/>
        <polygon class="cls-7" points="129.22 108.29 125.44 108.29 125.44 110.7 129.11 110.7 129.11 112.06 125.44 112.06 125.44 115.05 129.22 115.05 129.22 116.42 123.99 116.42 123.99 106.93 129.22 106.93 129.22 108.29"/>
        <polygon class="cls-7" points="132.52 116.42 132.52 106.29 139.4 113.5 139.4 106.93 140.85 106.93 140.85 117 133.97 109.79 133.97 116.42 132.52 116.42"/>
        <path class="cls-7" d="M148.64,109.03c-.09-.21-.21-.41-.43-.6-.3-.24-.61-.34-1.02-.34-.88,0-1.34.53-1.34,1.14,0,.28.1.78,1.02,1.15l.95.38c1.75.71,2.23,1.71,2.23,2.79,0,1.81-1.28,3.04-3.06,3.04-1.1,0-1.75-.41-2.23-.95-.51-.57-.74-1.19-.8-1.85l1.44-.31c0,.47.17.91.4,1.21.27.34.67.57,1.24.57.88,0,1.56-.64,1.56-1.59s-.74-1.37-1.37-1.62l-.91-.38c-.78-.33-1.93-.98-1.93-2.4,0-1.28,1-2.5,2.77-2.5,1.02,0,1.61.38,1.91.64.26.23.53.55.72.95l-1.17.68Z"/>
      </g>
    </g>
  </g>
  <g id="Trex_2025_ffffff" data-name="Trex 2025 ffffff">
    <g class="cls-4">
      <g class="cls-6">
        <path class="cls-7" d="M183.27,112.32v-.02c0-2.18-1.59-3.97-3.77-3.97s-3.75,1.77-3.75,3.95v.03c0,2.18,1.59,3.97,3.77,3.97s3.75-1.77,3.75-3.95M175.07,112.32v-.02c0-2.41,1.78-4.57,4.45-4.57s4.43,2.13,4.43,4.54t0,.03c0,2.41-1.78,4.57-4.45,4.57s-4.43-2.13-4.43-4.54"/>
        <path class="cls-7" d="M185.03,114.22v-3.94h.62v3.82c0,1.32.74,2.2,2.04,2.2s2.23-.96,2.23-2.3v-3.72h.62v6.43h-.62v-1.2c-.43.76-1.15,1.35-2.32,1.35-1.63,0-2.57-1.11-2.57-2.65"/>
        <path class="cls-7" d="M192.6,115.06v-4.21h-.93v-.57h.93v-2.06h.62v2.06h2.26v.57h-2.26v4.15c0,.92.54,1.25,1.29,1.25.32,0,.58-.06.95-.23v.58c-.33.15-.64.23-1.05.23-1,0-1.8-.54-1.8-1.77"/>
        <path class="cls-7" d="M201.88,113.51v-.02c0-1.65-1.29-2.76-2.62-2.76s-2.52,1.02-2.52,2.75v.03c0,1.69,1.17,2.77,2.52,2.77s2.62-1.12,2.62-2.76M196.07,113.52v-.02c0-2.09,1.58-3.37,3.13-3.37,1.29,0,2.12.73,2.65,1.54v-4.16h.62v9.21h-.62v-1.44c-.56.84-1.37,1.59-2.65,1.59-1.55,0-3.13-1.25-3.13-3.34"/>
        <path class="cls-7" d="M209.68,113.52v-.02c0-1.55-1.16-2.79-2.65-2.79s-2.62,1.25-2.62,2.76v.03c0,1.55,1.16,2.79,2.65,2.79s2.62-1.25,2.62-2.76M203.73,113.52v-.02c0-1.8,1.4-3.37,3.32-3.37s3.29,1.54,3.29,3.34v.03c0,1.8-1.4,3.37-3.32,3.37s-3.29-1.54-3.29-3.34"/>
        <path class="cls-7" d="M217.12,113.52v-.02c0-1.55-1.16-2.79-2.65-2.79s-2.62,1.25-2.62,2.76v.03c0,1.55,1.16,2.79,2.65,2.79s2.62-1.25,2.62-2.76M211.18,113.52v-.02c0-1.8,1.4-3.37,3.32-3.37s3.29,1.54,3.29,3.34v.03c0,1.8-1.4,3.37-3.32,3.37s-3.29-1.54-3.29-3.34"/>
        <path class="cls-7" d="M219.06,110.28h.62v1.83c.5-1.15,1.58-1.98,2.85-1.93v.68h-.06c-1.49,0-2.79,1.12-2.79,3.22v2.64h-.62v-6.43Z"/>
        <polygon class="cls-7" points="226.77 107.88 227.42 107.88 227.42 113.69 233.05 107.88 233.94 107.88 230.08 111.78 234.11 116.71 233.25 116.71 229.62 112.25 227.42 114.47 227.42 116.71 226.77 116.71 226.77 107.88"/>
        <path class="cls-7" d="M235.1,110.28h.62v6.43h-.62v-6.43ZM235.03,107.76h.77v.84h-.77v-.84Z"/>
        <path class="cls-7" d="M237.87,115.06v-4.21h-.93v-.57h.93v-2.06h.62v2.06h2.26v.57h-2.26v4.15c0,.92.54,1.25,1.29,1.25.31,0,.58-.06.95-.23v.58c-.33.15-.64.23-1.05.23-1,0-1.8-.54-1.8-1.77"/>
        <path class="cls-7" d="M241.31,113.52v-.02c0-1.8,1.44-3.37,3.28-3.37,1.21,0,1.97.56,2.57,1.19l-.44.45c-.56-.57-1.19-1.06-2.14-1.06-1.46,0-2.6,1.22-2.6,2.76v.03c0,1.55,1.17,2.79,2.65,2.79.91,0,1.61-.47,2.16-1.07l.43.38c-.66.74-1.44,1.27-2.62,1.27-1.85,0-3.28-1.54-3.28-3.34"/>
        <path class="cls-7" d="M248.33,107.5h.62v3.97c.43-.76,1.15-1.35,2.32-1.35,1.63,0,2.57,1.11,2.57,2.65v3.94h-.62v-3.82c0-1.32-.74-2.19-2.04-2.19s-2.23.96-2.23,2.3v3.72h-.62v-9.21Z"/>
        <path class="cls-7" d="M260.32,113.19c-.09-1.3-.83-2.5-2.31-2.5-1.27,0-2.26,1.07-2.37,2.5h4.68ZM254.98,113.51v-.03c0-1.87,1.31-3.35,3.05-3.35s2.95,1.46,2.95,3.37c0,.11,0,.15-.01.25h-5.34c.11,1.6,1.26,2.54,2.52,2.54,1,0,1.68-.44,2.21-1.01l.43.38c-.66.71-1.43,1.21-2.66,1.21-1.69,0-3.15-1.35-3.15-3.35"/>
        <path class="cls-7" d="M262.16,110.28h.62v1.2c.43-.76,1.15-1.35,2.32-1.35,1.63,0,2.57,1.11,2.57,2.65v3.94h-.62v-3.82c0-1.32-.74-2.2-2.04-2.2s-2.23.96-2.23,2.3v3.72h-.62v-6.43Z"/>
        <path class="cls-7" d="M268.71,115.91l.37-.49c.71.54,1.49.84,2.31.84.87,0,1.55-.48,1.55-1.22v-.02c0-.76-.81-1.03-1.7-1.29-1.05-.3-2.21-.62-2.21-1.77v-.03c0-1.03.87-1.78,2.12-1.78.77,0,1.64.28,2.28.71l-.33.52c-.59-.39-1.3-.64-1.98-.64-.88,0-1.46.48-1.46,1.12v.02c0,.72.87.98,1.79,1.25,1.03.29,2.12.67,2.12,1.8v.02c0,1.15-.98,1.88-2.22,1.88-.93,0-1.95-.38-2.64-.93"/>
        <polygon class="cls-7" points="237.37 91.51 236.41 90.59 231.1 90.59 232 91.51 237.37 91.51"/>
        <polygon class="cls-7" points="238.9 93.11 237.94 92.18 232.64 92.18 233.53 93.11 238.9 93.11"/>
        <polygon class="cls-7" points="240.43 94.65 239.48 93.72 234.17 93.72 235.06 94.65 240.43 94.65"/>
        <polygon class="cls-7" points="242 96.2 241.04 95.27 235.73 95.27 236.63 96.2 242 96.2"/>
        <polygon class="cls-7" points="245.09 99.29 244.14 98.36 238.83 98.36 239.73 99.29 245.09 99.29"/>
        <polygon class="cls-7" points="243.53 97.74 242.57 96.81 237.27 96.81 238.16 97.74 243.53 97.74"/>
        <polygon class="cls-7" points="246.63 100.83 245.67 99.9 240.36 99.9 241.26 100.83 246.63 100.83"/>
        <polygon class="cls-7" points="248.16 102.38 247.21 101.45 241.9 101.45 242.79 102.38 248.16 102.38"/>
        <polygon class="cls-7" points="249.66 103.9 248.71 102.97 243.4 102.97 244.3 103.9 249.66 103.9"/>
        <polygon class="cls-7" points="231.08 103.92 243.98 90.68 249.61 90.68 236.64 103.92 231.08 103.92"/>
        <polygon class="cls-7" points="201.25 103.93 201.25 89.36 196.78 89.36 196.78 85.86 210.92 85.86 210.92 89.36 205.98 89.36 205.98 103.93 201.25 103.93"/>
        <path class="cls-7" d="M212.36,103.91h-4.5v-13.25h4.5l.04,1.91c.38-.52.69-1,.87-1.14.39-.31.87-.62,1.66-.83.58-.15,1.14-.35,2.5-.24v3.64c-.73-.1-1.95.1-2.43.1s-1.17.23-1.49.49c-.33.26-.75.53-.94,1.21-.19.68-.21,1.37-.21,3.53v4.59Z"/>
        <path class="cls-7" d="M224.9,90.46c-7.33-.02-7.75,5.58-7.75,6.9,0,1.23.52,6.86,7.85,6.83,6.97-.03,7.64-4.78,7.64-4.78h-4.52s-.42,1.66-3.22,1.66-3.43-2.24-3.43-3.01h11.33s.88-7.57-7.9-7.59M221.63,95.34s.05-2.18,3.17-2.18c3.38,0,3.43,2.18,3.43,2.18h-6.6Z"/>
        <path class="cls-7" d="M252.21,92.73c.25-.09.43-.3.43-.61h0c0-.19-.06-.34-.16-.45-.14-.14-.35-.22-.62-.22h-.88v1.99h.44v-.64h.35l.42.64h.51l-.49-.71ZM252.2,92.14c0,.17-.12.28-.34.28h-.44v-.58h.43c.22,0,.35.1.35.29h0Z"/>
        <path class="cls-7" d="M251.74,94.43c-1.06,0-1.92-.86-1.92-1.91s.87-1.93,1.93-1.93,1.92.86,1.92,1.91-.87,1.93-1.93,1.93M251.76,90.89c-.9,0-1.61.71-1.61,1.61s.7,1.61,1.59,1.61,1.61-.71,1.61-1.61-.7-1.61-1.59-1.61"/>
      </g>
    </g>
  </g>
</svg>