<?xml version="1.0" encoding="UTF-8"?>
<svg id="Layer_1" xmlns="http://www.w3.org/2000/svg" version="1.1" viewBox="0 0 93.2 42">
  <!-- Generator: Adobe Illustrator 29.6.1, SVG Export Plug-In . SVG Version: 2.1.1 Build 9)  -->
  <defs>
    <style>
      .st0 {
        fill: #fff;
      }
    </style>
  </defs>
  <path class="st0" d="M21,42c-1.4-1-2.8-2-4.1-3.1-4.9-4.1-8.5-9.4-11.7-14.8C2.8,20.1,1,15.9.1,11.4c-.5-2.5.3-5.3,3.3-7.3,2.8-1.8,5.9-2.7,9.2-3.3C16.4.2,20.1-.2,23.9.1c4.5.4,9,.9,13.2,2.8,2.6,1.2,5,2.7,5.4,5.8.2,1.7,0,3.5-.4,5.1-.9,2.8-2.1,5.5-3.3,8.5-3.6-3.6-8-5.1-12.2-7-.5-.2-1-.4-1.3-.7-.5-.5-1.1-1.2-1-1.7,0-.6.8-1.3,1.4-1.6,1.5-.7,3.1-.5,4.5.2,1.5.7,2.8,1.7,4.4,2.6,1.9-1.7,4-3.5,6.1-5.4-2.4-2.9-5.4-4.7-9-5.4-4.5-1-8.8-.7-12.8,2-5.5,3.8-5.7,10.7-.5,14.9,2.7,2.2,5.9,3.5,9.1,5,1.1.5,2.1,1.1,3.1,1.8,2,1.5,1.7,3.5-.6,4.4-1.7.7-3.4.5-5.1-.1-1-.4-2-.9-2.9-1.4-.9-.5-1.7-1.2-2.6-2-1,.9-2,1.9-3,2.9-1,1-2,2-3.1,3.2,3.1,3.6,7.2,5.3,12,5.9-1.1.8-2,1.5-3,2.3h-1.2,0Z"/>
  <path class="st0" d="M66.4,22.5c0-4.5,3.6-8,8.2-8,4.3,0,8,3.8,7.9,8.1,0,4.4-3.8,8-8.2,8-4.4,0-8-3.7-8-8.1h0ZM74.5,17.9c-2.6,0-4.4,1.9-4.4,4.6,0,2.7,1.7,4.6,4.2,4.7,2.6,0,4.5-1.9,4.5-4.6,0-2.7-1.7-4.6-4.3-4.6Z"/>
  <path class="st0" d="M57.7,16.9c-.8.7-1.5,1.5-2.1,2.1-.8-.4-1.6-.9-2.5-1.2-.7-.2-1.5,0-1.8.7-.3.8.4,1.2,1,1.5,1.2.7,2.5,1.3,3.6,2,1.7,1,2.3,2.6,2,4.6-.3,1.9-1.5,3.1-3.3,3.7-2.8.9-5.6,0-7.4-2.3.7-.8,1.4-1.6,2-2.2,1.1.5,2,1.1,3.1,1.4.9.3,1.8,0,2.1-.9.3-.9-.4-1.4-1.1-1.8-1.2-.7-2.4-1.3-3.6-2.1-1.7-1.2-2.4-3-1.9-4.7.6-1.9,2.3-3.2,4.4-3.3,2.3,0,3.6.6,5.3,2.4h0Z"/>
  <path class="st0" d="M60.2,9.2h3.7v5.6h2.3v3.1h-2.2v12.1h-3.6v-12c-.7,0-1.3,0-2,0v-3h1.9v-5.7h0Z"/>
  <path class="st0" d="M84.1,8.9h3.5v21.2h-3.5V8.9Z"/>
  <path class="st0" d="M89.7,8.9h3.5v21.2h-3.5V8.9Z"/>
</svg>