<?xml version="1.0" encoding="UTF-8"?>
<svg id="Layer_1" xmlns="http://www.w3.org/2000/svg" version="1.1" viewBox="0 0 130.7 42">
  <!-- Generator: Adobe Illustrator 29.6.1, SVG Export Plug-In . SVG Version: 2.1.1 Build 9)  -->
  <defs>
    <style>
      .st0 {
        fill: #fff;
      }
    </style>
  </defs>
  <path class="st0" d="M67.7,1.5c-1.6,6.3-4.2,18.8-3.9,19.3,1,1.1,3.8-2,3.8-2v1.4c-1.8,1.8-7.8,7.3-6.7.2-1.2,1.4-2.3,2.2-3.4,3-2.2,1.5-4.3-.3-3.1-7,.6-3.6,4.5-6.4,7.8-6.8.5,0,.4,0,.7,0,1.3-6.4,1.4-6.1-1.3-4.9v-.9c2.2-1.1,5-2.2,5.6-2.5.4-.2.4.2.4.2h0ZM58.3,12.6c-1.7,3.7-1.5,9.5,0,8.9,1.1-.4,2.2-1.5,2.7-2.8.4-1.4,1.4-6.9,1.4-6.9,0,0-3.4-.5-4.2.8Z"/>
  <path class="st0" d="M72,15c-.7.5-1.8,1.4-2.7,2.1-.6-.6-1.1-1-2-1.8l2.7-2.1,2,1.8Z"/>
  <path class="st0" d="M50.6,32.2c-1.7,4.2,2.3,6.4,3.4,6.8,4.5,1.2,9.7-1,12.6-4.5h1.7c-2.7,4.3-7.3,7.6-12.5,7.5-4.1-.2-6.9-2.9-6.9-6.5,0-2.1,1.1-3.3,1.7-3.3Z"/>
  <rect class="st0" x="13.7" y="34.3" width="116.9" height=".4"/>
  <path class="st0" d="M14.7,32.5c-.2,0-.3,0-.5,0s-.3,0-.5,0v-4.1h2.3c0,0,0,.2,0,.3s0,.2,0,.3c-.4,0-.8,0-1.4,0v1.3h.6c.2,0,.5,0,.7,0,0,0,0,.2,0,.3s0,.2,0,.3c-.3,0-.5,0-.7,0h-.6v2h0Z"/>
  <path class="st0" d="M19,28.4c.2,0,.3,0,.5,0s.3,0,.5,0v4.1c-.2,0-.3,0-.5,0s-.3,0-.5,0v-4.1Z"/>
  <path class="st0" d="M22.9,28.4h.6c.9.9,1.8,1.8,2.6,2.8v-2.8c0,0,.2,0,.2,0s.2,0,.2,0v4.1h-.5c-.7-.8-1.4-1.5-2.1-2.2l-.7-.7v2.9c0,0-.2,0-.2,0s-.2,0-.2,0v-4Z"/>
  <path class="st0" d="M32,28.4c0,0,0,.2,0,.3s0,.2,0,.3c-.4,0-.8,0-1.4,0v1.3h.6c.3,0,.5,0,.7,0,0,0,0,.2,0,.3s0,.2,0,.3c-.2,0-.5,0-.7,0h-.6v1.5c.6,0,1,0,1.4,0,0,0,0,.2,0,.3s0,.2,0,.3h-2.3v-4s2.3,0,2.3,0Z"/>
  <path class="st0" d="M41.5,31.8v.5c-.5.2-.9.3-1.3.3-1.3,0-2.3-.8-2.3-2s1.1-2.2,2.4-2.2.9,0,1.2.3c0,.2,0,.4-.1.6h0c-.2-.3-.6-.5-1-.5-1,0-1.4.9-1.4,1.8s.5,1.7,1.4,1.7.8-.2,1.1-.4c0,0,0,0,0,0Z"/>
  <path class="st0" d="M44.4,28.4c.2,0,.3,0,.5,0s.3,0,.5,0v1.7c0,.3,0,.8,0,1.1,0,.3.1.5.3.7.2.2.4.3.7.3.6,0,.9-.2,1.1-.7.1-.3.1-.9.1-1.2v-1.8c0,0,.2,0,.2,0s.2,0,.2,0v2.1c0,.7,0,1.3-.6,1.7-.3.2-.7.3-1.1.3-.7,0-1.5-.2-1.8-1,0-.2,0-.5,0-.7v-2.4h0Z"/>
  <path class="st0" d="M53,29.2c-.1-.3-.3-.5-.7-.5s-.7.2-.7.6c0,.8,1.8.7,1.8,2s-.7,1.3-1.6,1.3-.7,0-1-.3c0-.3.1-.5.2-.7h.1c0,.4.4.7.8.7s.7-.2.7-.6c0-.9-1.8-.6-1.8-2s.5-1.2,1.4-1.2.8.2,1,.3c0,.2-.1.4-.2.6h0Z"/>
  <path class="st0" d="M58.1,32.5c-.2,0-.3,0-.5,0s-.3,0-.5,0v-3.6c-.4,0-.8,0-1.1,0,0,0,0-.2,0-.3s0-.2,0-.2h3.1c0,0,0,.2,0,.2s0,.2,0,.3c-.4,0-.7,0-1.1,0v3.6Z"/>
  <path class="st0" d="M63.7,32.5c-1.3,0-2.3-.8-2.3-2.1s.9-2.1,2.4-2.1,2.2,1.2,2.3,2.1c0,1.2-.9,2.1-2.4,2.1h0ZM62.5,30.6c0,.8.4,1.6,1.3,1.6s1.4-.9,1.4-1.9-.4-1.6-1.3-1.6-1.4.6-1.4,1.9h0Z"/>
  <path class="st0" d="M72.8,28.4c0,0,.2,0,.3,0s.2,0,.3,0c.2,1.6.3,2.9.5,4.1-.2,0-.3,0-.5,0s-.3,0-.5,0c0-.9-.2-1.8-.3-2.8-.5.9-.9,1.8-1.4,2.7,0,0-.2,0-.2,0-.4-.8-.9-1.7-1.3-2.7-.1,1-.2,1.9-.3,2.7,0,0-.2,0-.3,0s-.2,0-.3,0c.2-1.2.4-2.6.6-4.1,0,0,.2,0,.3,0s.2,0,.3,0c.4.9.9,1.8,1.4,2.8.4-.8,1-1.8,1.4-2.8h0Z"/>
  <path class="st0" d="M83.9,31.8v.5c-.5.2-.9.3-1.3.3-1.3,0-2.3-.8-2.3-2s1.1-2.2,2.4-2.2.9,0,1.2.3c0,.2,0,.4-.1.6h0c-.2-.3-.6-.5-1-.5-1,0-1.4.9-1.4,1.8s.5,1.7,1.4,1.7.8-.2,1.1-.4c0,0,0,0,0,0Z"/>
  <path class="st0" d="M87.2,31.2c-.2.4-.3.8-.4,1.2,0,0-.2,0-.3,0s-.2,0-.3,0l1.7-4.1c0,0,.2,0,.2,0s.2,0,.2,0l1.7,4.1c-.2,0-.3,0-.5,0s-.3,0-.5,0c-.1-.4-.3-.8-.4-1.2h-1.4ZM88.5,30.9l-.5-1.4-.6,1.4h1.1Z"/>
  <path class="st0" d="M92.9,28.4h1.6c.6,0,1.2.2,1.2.9s-.5.9-1,.9h0c.4,0,1.1.3,1.1,1s-.8,1.2-1.5,1.2h-1.4v-4h0ZM93.8,30.2c.3,0,.5,0,.7-.1.2-.2.3-.4.3-.6,0-.4-.3-.7-.7-.7s-.2,0-.3,0c0,0,0,1.4,0,1.4ZM93.8,32.1h.3c.3,0,.7-.3.7-.8s-.4-.9-1-.8c0,0,0,1.6,0,1.6Z"/>
  <path class="st0" d="M99,28.4c.2,0,.3,0,.5,0s.3,0,.5,0v4.1c-.2,0-.3,0-.5,0s-.3,0-.5,0v-4.1Z"/>
  <path class="st0" d="M103.6,28.4h.6c.9.9,1.8,1.8,2.6,2.8v-2.8c0,0,.2,0,.2,0s.2,0,.2,0v4.1h-.5c-.7-.8-1.4-1.5-2.1-2.2l-.7-.7v2.9c0,0-.2,0-.2,0s-.2,0-.2,0v-4Z"/>
  <path class="st0" d="M113.1,28.4c0,0,0,.2,0,.3s0,.2,0,.3c-.4,0-.8,0-1.4,0v1.3h.6c.3,0,.5,0,.7,0,0,0,0,.2,0,.3s0,.2,0,.3c-.2,0-.5,0-.7,0h-.6v1.5c.6,0,1,0,1.4,0,0,0,0,.2,0,.3s0,.2,0,.3h-2.3v-4s2.3,0,2.3,0Z"/>
  <path class="st0" d="M118,32.5c-.2,0-.3,0-.5,0s-.3,0-.5,0v-3.6c-.4,0-.8,0-1.1,0,0,0,0-.2,0-.3s0-.2,0-.2h3.1c0,0,0,.2,0,.2s0,.2,0,.3c-.4,0-.7,0-1.1,0,0,0,0,3.6,0,3.6Z"/>
  <path class="st0" d="M122.2,28.4h1.3c.3,0,.7,0,1,.1s.5.4.5.8c0,.6-.4.9-1,1.1.3.6.7,1.1,1.1,1.7l.2.4c-.2,0-.4,0-.6,0s-.4,0-.5,0l-.7-1.2c0-.2-.3-.4-.4-.7h0v1.9c-.2,0-.3,0-.5,0s-.3,0-.5,0v-4.1h0ZM123.1,30.3c.6,0,1-.2,1-.8s0-.2,0-.3c0-.5-.6-.4-.9-.4,0,0,0,1.6,0,1.6Z"/>
  <path class="st0" d="M128.5,30.8c-.5-.8-.9-1.6-1.3-2.3.2,0,.4,0,.5,0s.4,0,.5,0c.2.3.3.7.5,1,.2.3.3.6.4.7.2-.3.7-1.3.9-1.8,0,0,.2,0,.3,0s.2,0,.3,0c-.4.8-.9,1.5-1.3,2.2v1.8c-.2,0-.3,0-.5,0s-.3,0-.5,0v-1.7h0Z"/>
  <rect class="st0" x="13.7" y="26.1" width="116.9" height=".4"/>
  <path class="st0" d="M13.8,4c1.8,5,2.2,8.2,3,14.1,1.5-2.2,2.8-4.4,4.2-6.6-.5-3-1.2-6.7,1.3-9.2,4.1-4.1,6.3-1.3,5,1.2-1.6,2.9-2,3.5-3.6,6.2.5,3.1,1.2,6.3,1.9,9.3,1.9-2.7,3.6-5.8,5.1-8.7-1.7-5.9,2-11.9,3.7-9,1.1,1.9-1.4,6.5-2.2,9.4.3.9.7,1.5,1.2,2.1,1.3-2.6,9.3-6,8.7,1.6-.2,2.9-1.1,6.6-3,7.7-1.3,1-4.1,2.2-5.2,1.8-1.8-.7-3-4.9-1.5-8.9.3-.7.4-1.1.3-1.2-.5-.6-1-1.2-1.3-1.8-2.5,4.2-4.8,8.4-7.9,12.4h-.3c-.7-3.9-1.2-6.6-1.9-10.8-2.3,3.5-4.4,6.9-6.9,10.6h-.3c-1.3-13.9-2.9-20.1-4.9-21.6-2.4-1.7-6.2-.1-7.1,3.8-1.4,6.5,3.4,10,3.4,10C1.8,16.9-1,10.4.3,5.6,2.4-.5,11.8-2.2,13.8,4ZM24.7,1.8c-1.9-.2-1.5,4.3-1.2,6,1.5-2.2,3.1-5.9,1.2-6ZM34.8,16.2c-.5,3,0,5.6,1.2,5.8s2.6-2.1,3.1-5.1,0-5.6-1.2-5.8c-1.2-.2-2.6,2.1-3.1,5.1Z"/>
  <path class="st0" d="M52.9,11.3c1,3.2,0,7.1-1.2,9.4-.9,1.7-3.2,2.6-5.2,3.3-1.2.3-2.2-.5-2.7-1.4-1.6-3.5-.8-8,1.8-10.8,1.7-1.7,6.2-3.4,7.3-.5h0ZM46.1,16.2c-.5,3,0,5.6,1.2,5.8s2.6-2.1,3.1-5.1,0-5.6-1.2-5.8c-1.2-.2-2.6,2.1-3.1,5.1Z"/>
  <path class="st0" d="M125.3,12c-1.1.7-1.6,2.1-1.8,4.7,2.3-1.6,4.4-3.4,4.1-4.4-.3-.8-1.4-.8-2.3-.3ZM120.3,20.9c-2.4,1.7-7.3,5.9-5.9-.4-1.5,1.6-2.5,2.3-3.6,3.1-2.1,1.4-4.1-.7-3-7.2.6-3.6,4.5-6.4,7.8-6.8.5,0,.5,0,.8,0,1.3-6.4,1.6-6.4-1.4-4.6l.2-1.1c2.1-1.1,5-2.2,5.6-2.5.4-.2.4.2.4.2-1.6,6.3-3.9,17.7-4,19.4,0,1.5,3-1,3-1,0-6.6,3.1-9,6.8-10.1,3.1-.7,4,1.6,2.8,2.9-2,2.2-4,3.8-6.4,5.8-.1,1.3.1,3.2,1.3,3.5,1.6.2,3.6-1.6,5.1-2.9,0,.6,0,1.3-.1,1.5-6.1,5.7-8.9,3.2-9.3.4h0ZM111.9,12.5c-2.7,4.4-1.5,9.9,0,8.9,1.7-1.1,2.3-1.8,2.6-2.9.4-1.4,1.4-6.9,1.4-6.9,0,0-3-.5-4,.8h0Z"/>
  <path class="st0" d="M93.9.8l3.2-.8c-3.8,10.1-4.2,20.3-4.2,20.3,0,0-.4,1,.6.4,1-.6,2.7-1,2.7-1,0-1.9.4-3.8.4-3.8.7-3.8,3.9-5.3,3.9-5.3,0,0,3.5-2,5-.4,2.2,2.3.8,6.9.5,8.1-.3,1.2-1,2.6-1.8,3.4-1,1-3.6,2-4,2.1-.4.1-1.2,0-1.2,0-2.1-.3-2.5-3-2.5-3-2.9.7-5,2.1-6,2.7-1,.6-.7-.7-.7-.7-.4-7,2.2-16.7,2.2-16.7-4.6,5.9-9.3,16-9.5,16.5-.2.5-.4.7-1,1s-.5-.8-.5-.8c-1.3-12.1-3.1-17.1-3.1-17.1-1,10.5-4.9,20.3-4.9,20.3l-1.9-.2c4.2-8,5.2-22.5,5.1-23.8,0-1.3-7.2.7-7.2.7l.5-1.3s2.2-1,6.4-1.6c4.2-.6,4.6,1.9,4.6,1.9,1.9,4.6,3,14.8,3,14.8,3.6-6.7,10.4-16,10.4-16h0ZM103.4,18.7s1.4-3.8,0-7c0,0-.7-1.5-2.1,0-1.4,1.4-2.5,5.2-1.9,8.7,0,0,.5,1.7,1.4,1.7s1.9-1.5,2.5-3.4Z"/>
</svg>