<?xml version="1.0" encoding="UTF-8"?>
<svg id="Layer_1" data-name="Layer 1" xmlns="http://www.w3.org/2000/svg" width="130.71" height="42" viewBox="0 0 130.71 42">
  <defs>
    <style>
      .cls-1 {
        fill: #fff;
      }
    </style>
  </defs>
  <path class="cls-1" d="M67.74,1.53c-1.6,6.29-4.23,18.85-3.91,19.3,1.03,1.11,3.83-1.98,3.83-1.98l-.08,1.35c-1.74,1.82-7.71,7.33-6.61.22-1.22,1.35-2.28,2.19-3.42,2.97-2.25,1.52-4.31-.29-3.14-7.01.63-3.6,4.47-6.37,7.83-6.76.5-.07.43-.04.74-.05,1.28-6.37,1.36-6.14-1.28-4.86l.08-.89c2.11-1.08,4.96-2.18,5.55-2.46.45-.21.39.17.39.17ZM58.33,12.58c-1.75,3.71-1.5,9.49,0,8.89,1.08-.43,2.18-1.51,2.71-2.83.4-1.38,1.44-6.9,1.44-6.9,0,0-3.4-.52-4.15.84Z"/>
  <path class="cls-1" d="M71.97,14.99c-.65.5-1.79,1.41-2.67,2.1-.61-.57-1.13-1.01-2.02-1.83l2.67-2.1,2.02,1.83Z"/>
  <path class="cls-1" d="M50.57,32.24c-1.68,4.23,2.26,6.35,3.38,6.8,4.5,1.18,9.67-1.01,12.65-4.51h1.67c-2.69,4.29-7.3,7.55-12.52,7.47-4.14-.19-6.9-2.94-6.88-6.48,0-2.14,1.15-3.26,1.71-3.28Z"/>
  <rect class="cls-1" x="13.71" y="34.28" width="116.87" height=".45"/>
  <path class="cls-1" d="M14.66,32.47c-.15-.01-.3-.03-.46-.03s-.3.02-.46.03v-4.05h2.32c-.01.08-.03.17-.03.25s.02.17.03.25c-.37-.04-.77-.08-1.41-.08v1.27h.64c.24,0,.48-.02.74-.05-.01.08-.03.17-.03.25s.02.17.03.25c-.26-.02-.5-.05-.74-.05h-.64v1.96Z"/>
  <path class="cls-1" d="M18.99,28.42c.15.01.3.03.46.03s.3-.02.46-.03v4.05c-.15-.01-.3-.03-.46-.03s-.3.02-.46.03v-4.05Z"/>
  <path class="cls-1" d="M22.93,28.42h.6c.86.92,1.77,1.81,2.63,2.76v-2.76c.08.01.16.02.24.02s.16,0,.24-.02v4.05h-.52c-.71-.77-1.36-1.49-2.05-2.2l-.66-.67v2.86c-.08,0-.16-.02-.24-.02s-.16.01-.24.02v-4.04Z"/>
  <path class="cls-1" d="M31.96,28.42c-.01.08-.03.17-.03.25s.02.17.03.25c-.37-.05-.78-.09-1.41-.08v1.27h.63c.27,0,.52-.02.75-.05-.01.08-.03.17-.03.25s.02.17.03.25c-.23-.03-.47-.05-.75-.05h-.63v1.5c.62,0,1.03-.04,1.41-.08-.01.08-.03.17-.03.25s.02.17.03.25h-2.32v-4.02h2.32Z"/>
  <path class="cls-1" d="M41.46,31.79l-.13.51c-.36.18-.8.25-1.2.25-1.3,0-2.29-.78-2.29-1.99,0-1.54,1.09-2.24,2.42-2.24.4,0,.89.1,1.24.29-.05.2-.09.4-.14.61h-.09c-.23-.32-.61-.54-1.01-.54-1.01,0-1.42.94-1.42,1.81,0,1.01.51,1.72,1.45,1.72.38,0,.81-.19,1.09-.44l.08.04Z"/>
  <path class="cls-1" d="M44.45,28.42c.15.01.3.03.46.03s.3-.02.46-.03v1.68c0,.32-.01.81.04,1.12.05.29.1.47.32.68.19.18.43.25.69.25.57,0,.87-.2,1.08-.72.11-.26.11-.93.11-1.22v-1.79c.08.01.16.02.24.02s.16,0,.24-.02v2.1c-.02.67-.01,1.29-.64,1.71-.33.23-.75.31-1.15.31-.74,0-1.53-.22-1.76-.99-.07-.23-.1-.49-.1-.73v-2.41Z"/>
  <path class="cls-1" d="M53.02,29.18c-.12-.31-.35-.51-.7-.51-.48,0-.67.24-.67.58,0,.8,1.85.65,1.85,2,0,.76-.67,1.3-1.61,1.3-.33,0-.69-.08-.98-.25.07-.25.14-.5.18-.75h.12c.09.41.42.65.84.65.38,0,.71-.21.71-.61,0-.95-1.81-.6-1.81-2.03,0-.68.48-1.24,1.41-1.24.44,0,.83.16.96.28-.07.19-.13.38-.19.59h-.09Z"/>
  <path class="cls-1" d="M58.06,32.47c-.15-.01-.3-.03-.46-.03s-.3.02-.46.03v-3.63c-.43,0-.82.04-1.13.08.01-.08.03-.17.03-.25,0-.08-.02-.17-.03-.25h3.13c-.01.08-.03.17-.03.25,0,.09.02.17.03.25-.36-.04-.72-.08-1.09-.08v3.63Z"/>
  <path class="cls-1" d="M63.72,32.55c-1.34,0-2.25-.77-2.25-2.11,0-1.18.88-2.13,2.4-2.13,1.73,0,2.24,1.19,2.25,2.1,0,1.15-.91,2.13-2.4,2.13ZM62.48,30.61c0,.77.36,1.58,1.27,1.58s1.36-.91,1.36-1.89c0-.76-.36-1.64-1.28-1.64-.85,0-1.35.62-1.35,1.94Z"/>
  <path class="cls-1" d="M72.85,28.42c.09.01.17.03.26.03s.18-.02.26-.03c.19,1.59.33,2.88.54,4.05-.17-.01-.33-.03-.5-.03s-.32.02-.49.03c-.05-.94-.17-1.84-.26-2.75-.46.9-.92,1.81-1.35,2.72-.08-.01-.15-.02-.23,0-.39-.82-.87-1.73-1.33-2.66-.14,1.04-.24,1.86-.26,2.69-.1-.01-.19-.03-.29-.03s-.18.02-.28.03c.22-1.19.41-2.56.62-4.05.09.01.16.03.25.03s.17-.02.26-.03c.44.93.92,1.85,1.4,2.78.44-.84.96-1.77,1.42-2.78Z"/>
  <path class="cls-1" d="M83.87,31.79l-.13.51c-.36.18-.8.25-1.2.25-1.3,0-2.29-.78-2.29-1.99,0-1.54,1.09-2.24,2.42-2.24.4,0,.89.1,1.24.29-.05.2-.09.4-.14.61h-.08c-.23-.32-.61-.54-1.01-.54-1.01,0-1.42.94-1.42,1.81,0,1.01.51,1.72,1.45,1.72.38,0,.82-.19,1.09-.44l.08.04Z"/>
  <path class="cls-1" d="M87.2,31.24c-.16.45-.31.82-.43,1.22-.1,0-.19-.02-.29-.02s-.19.01-.29.02l1.74-4.09c.08.01.15.02.23.02s.15,0,.23-.02l1.7,4.11c-.18-.01-.35-.03-.52-.03s-.35.02-.52.03c-.14-.44-.27-.84-.43-1.23h-1.42ZM88.47,30.88l-.54-1.38-.57,1.38h1.11Z"/>
  <path class="cls-1" d="M92.94,28.42h1.57c.61,0,1.21.2,1.21.89,0,.56-.48.87-1,.95v.05c.45.04,1.09.24,1.09.97,0,.82-.75,1.16-1.47,1.16h-1.41v-4.02ZM93.85,30.16c.26,0,.49.02.7-.15.19-.15.26-.38.26-.61,0-.43-.25-.66-.65-.66-.1,0-.19,0-.31.02v1.39ZM93.85,32.1h.3c.33,0,.72-.28.72-.77,0-.65-.37-.87-1.02-.83v1.6Z"/>
  <path class="cls-1" d="M98.96,28.42c.15.01.3.03.46.03s.3-.02.46-.03v4.05c-.15-.01-.3-.03-.46-.03s-.3.02-.46.03v-4.05Z"/>
  <path class="cls-1" d="M103.59,28.42h.6c.86.92,1.77,1.81,2.63,2.76v-2.76c.08.01.16.02.24.02s.16,0,.24-.02v4.05h-.52c-.71-.77-1.36-1.49-2.05-2.2l-.66-.67v2.86c-.08,0-.16-.02-.24-.02s-.16.01-.24.02v-4.04Z"/>
  <path class="cls-1" d="M113.1,28.42c-.01.08-.03.17-.03.25s.02.17.03.25c-.37-.05-.78-.09-1.41-.08v1.27h.63c.27,0,.52-.02.75-.05-.01.08-.03.17-.03.25s.02.17.03.25c-.22-.03-.47-.05-.75-.05h-.63v1.5c.62,0,1.03-.04,1.41-.08-.01.08-.03.17-.03.25s.02.17.03.25h-2.32v-4.02h2.32Z"/>
  <path class="cls-1" d="M118.05,32.47c-.15-.01-.3-.03-.46-.03s-.3.02-.46.03v-3.63c-.43,0-.82.04-1.13.08.01-.08.03-.17.03-.25,0-.08-.02-.17-.03-.25h3.13c-.01.08-.03.17-.03.25,0,.09.02.17.03.25-.36-.04-.72-.08-1.09-.08v3.63Z"/>
  <path class="cls-1" d="M122.16,28.42h1.3c.29,0,.73-.01.99.12.35.18.53.44.53.84,0,.58-.38.95-.95,1.06.33.57.71,1.11,1.08,1.66l.24.37c-.18-.01-.37-.03-.55-.03s-.36.02-.55.03l-.72-1.24c-.09-.16-.26-.43-.4-.66h-.04v1.9c-.15-.01-.3-.03-.46-.03s-.3.02-.46.03v-4.05ZM123.07,30.32c.64.06.96-.24.96-.84,0-.08,0-.17-.03-.3-.1-.49-.55-.44-.92-.44v1.58Z"/>
  <path class="cls-1" d="M128.52,30.76c-.46-.76-.86-1.56-1.31-2.35.18.01.36.03.55.03s.37-.02.55-.03c.16.32.35.7.52,1.05.16.33.31.62.38.71.23-.28.68-1.26.91-1.76.1.01.19.02.3.02.1,0,.19,0,.29-.02-.44.76-.89,1.47-1.28,2.23v1.83c-.15-.01-.3-.03-.46-.03s-.3.02-.46.03v-1.71Z"/>
  <rect class="cls-1" x="13.71" y="26.09" width="116.87" height=".45"/>
  <path class="cls-1" d="M13.81,4.05c1.8,4.97,2.23,8.23,3.01,14.14,1.52-2.2,2.78-4.38,4.19-6.59-.53-3.01-1.22-6.71,1.3-9.22,4.07-4.06,6.35-1.26,5.01,1.22-1.61,2.89-1.95,3.54-3.56,6.17.5,3.09,1.24,6.29,1.86,9.26,1.94-2.67,3.59-5.79,5.08-8.73-1.74-5.88,2.01-11.93,3.66-9.02,1.09,1.94-1.35,6.52-2.19,9.38.31.88.71,1.46,1.25,2.1,1.3-2.64,9.35-5.99,8.72,1.59-.23,2.9-1.11,6.6-3.01,7.7-1.31,1.03-4.14,2.21-5.22,1.83-1.83-.74-3.04-4.91-1.46-8.91.28-.69.4-1.09.35-1.15-.55-.59-.98-1.18-1.32-1.83-2.48,4.23-4.78,8.44-7.89,12.42l-.27-.08c-.67-3.78-1.23-6.56-1.91-10.71-2.3,3.49-4.38,6.88-6.86,10.59h-.3c-1.26-13.94-2.93-20.13-4.89-21.55-2.38-1.73-6.24-.11-7.08,3.75-1.42,6.52,3.43,9.98,3.43,9.98C1.78,16.86-.95,10.36.31,5.57,2.44-.54,11.78-2.18,13.81,4.05ZM24.69,1.8c-1.92-.17-1.52,4.3-1.25,6.01,1.46-2.16,3.12-5.85,1.25-6.01ZM34.83,16.24c-.53,3-.02,5.61,1.16,5.82,1.17.21,2.56-2.06,3.09-5.06.53-3,.02-5.61-1.16-5.82-1.17-.21-2.56,2.06-3.09,5.06Z"/>
  <path class="cls-1" d="M52.89,11.29c1.03,3.16.09,7.11-1.15,9.38-.91,1.66-3.2,2.65-5.18,3.28-1.22.27-2.21-.46-2.74-1.37-1.6-3.47-.84-8.04,1.83-10.79,1.68-1.69,6.16-3.36,7.25-.5ZM46.08,16.24c-.53,3-.02,5.61,1.16,5.82,1.17.21,2.56-2.06,3.09-5.06.53-3,.02-5.61-1.16-5.82-1.17-.21-2.56,2.06-3.09,5.06Z"/>
  <path class="cls-1" d="M125.26,11.96c-1.07.71-1.58,2.07-1.81,4.67,2.33-1.62,4.37-3.36,4.12-4.38-.32-.85-1.38-.81-2.31-.29ZM120.26,20.93c-2.36,1.68-7.34,5.92-5.86-.38-1.55,1.63-2.47,2.29-3.61,3.06-2.07,1.39-4.09-.75-2.97-7.22.62-3.6,4.47-6.37,7.83-6.76.5-.07.52-.04.84-.05,1.28-6.37,1.55-6.35-1.45-4.65l.15-1.11c2.11-1.08,4.96-2.18,5.56-2.46.45-.21.39.17.39.17-1.6,6.29-3.95,17.71-4,19.4-.05,1.52,3.04-1.03,3.04-1.03-.01-6.62,3.13-9.02,6.84-10.14,3.12-.75,4,1.57,2.75,2.88-2.02,2.19-3.95,3.78-6.41,5.81-.11,1.26.13,3.2,1.3,3.47,1.6.21,3.65-1.61,5.06-2.87.1.59-.1,1.26-.12,1.5-6.09,5.69-8.87,3.24-9.33.38ZM111.93,12.46c-2.73,4.37-1.52,9.88-.1,8.94,1.69-1.12,2.33-1.84,2.61-2.85.4-1.38,1.44-6.88,1.44-6.88,0,0-3.02-.49-3.96.79Z"/>
  <path class="cls-1" d="M93.93.81l3.24-.81c-3.76,10.05-4.19,20.34-4.19,20.34,0,0-.38,1,.62.38,1-.62,2.72-1,2.72-1-.05-1.86.43-3.76.43-3.76.71-3.76,3.86-5.34,3.86-5.34,0,0,3.53-1.95,5-.43,2.23,2.3.81,6.86.48,8.1-.33,1.24-1.02,2.56-1.81,3.43-.95,1.05-3.57,2-4,2.14-.43.14-1.19.1-1.19.1-2.05-.29-2.48-3-2.48-3-2.86.71-5.05,2.1-6,2.67-.95.57-.67-.67-.67-.67-.43-7,2.19-16.67,2.19-16.67-4.62,5.86-9.29,16.01-9.53,16.53-.24.52-.43.67-1,1-.57.33-.48-.76-.48-.76-1.29-12.05-3.1-17.15-3.1-17.15-1.05,10.48-4.91,20.34-4.91,20.34l-1.91-.19c4.24-8.05,5.19-22.49,5.15-23.77-.05-1.29-7.24.71-7.24.71l.48-1.29s2.19-1,6.38-1.57c4.19-.57,4.57,1.86,4.57,1.86,1.93,4.58,2.95,14.82,2.95,14.82,3.62-6.67,10.43-16.01,10.43-16.01ZM103.41,18.72s1.43-3.81.05-7c0,0-.67-1.48-2.05-.05-1.38,1.43-2.48,5.19-1.91,8.72,0,0,.48,1.71,1.38,1.71s1.91-1.52,2.53-3.38Z"/>
</svg>